<svg width="64" height="64" viewBox="0 0 64 64" fill="none" xmlns="http://www.w3.org/2000/svg">
<circle cx="32" cy="32" r="32" fill="#651FFF"/>
<g clip-path="url(#clip0_123_5399)">
<path d="M18 27.6313V24C18 26.7625 24.2688 29 32 29C39.7313 29 46 26.7625 46 24V27.6313C45.0688 28.3625 43.8188 28.9562 42.575 29.4187C39.7688 30.4187 36.0312 31 32 31C27.9688 31 24.2288 30.4187 21.4281 29.4187C20.1262 28.9562 18.9331 28.3625 18 27.6313ZM18 37.6313V34C18 36.7625 24.2688 39 32 39C39.7313 39 46 36.7625 46 34V37.6313C45.0688 38.3625 43.8188 38.9563 42.575 39.4188C39.7688 40.4188 36.0312 41 32 41C27.9688 41 24.2288 40.4188 21.4281 39.4188C20.1262 38.9563 18.9331 38.3625 18 37.6313Z" fill="white"/>
<path opacity="0.4" d="M46 21V24C46 26.7625 39.7313 29 32 29C24.2688 29 18 26.7625 18 24V21C18 18.2387 24.2688 16 32 16C39.7313 16 46 18.2387 46 21ZM42.575 29.4187C43.8188 28.9563 45.0688 28.3625 46 27.6313V34C46 36.7625 39.7313 39 32 39C24.2688 39 18 36.7625 18 34V27.6313C18.9331 28.3625 20.1262 28.9563 21.4281 29.4187C24.2288 30.4187 27.9688 31 32 31C36.0312 31 39.7688 30.4187 42.575 29.4187ZM21.4281 39.4188C24.2288 40.4188 27.9688 41 32 41C36.0312 41 39.7688 40.4188 42.575 39.4188C43.8188 38.9563 45.0688 38.3625 46 37.6313V43C46 45.7625 39.7313 48 32 48C24.2688 48 18 45.7625 18 43V37.6313C18.9331 38.3625 20.1262 38.9563 21.4281 39.4188Z" fill="white"/>
</g>
<defs>
<clipPath id="clip0_123_5399">
<rect width="28" height="32" fill="white" transform="translate(18 16)"/>
</clipPath>
</defs>
</svg>
