<svg width="64" height="64" viewBox="0 0 64 64" fill="none" xmlns="http://www.w3.org/2000/svg">
<circle cx="32" cy="32" r="32" fill="#651FFF"/>
<g clip-path="url(#clip0_113_5401)">
<path d="M36 22C36.55 22 37 22.45 37 23C37 23.55 36.55 24 36 24H28C27.45 24 27 23.55 27 23C27 22.45 27.45 22 28 22H36ZM33.2563 30.3938C33.6688 30.4688 34.2938 30.5938 34.5688 30.6687C35.2375 30.8438 35.6375 31.5312 35.4562 32.1938C35.2812 32.8625 34.5937 33.2625 33.9312 33.0812C33.6875 33.0187 32.8438 32.8563 32.5688 32.7563C31.8063 32.6938 31.1312 32.7938 30.7812 32.975C30.3875 33.15 30.2938 33.3563 30.2688 33.4813C30.2313 33.6938 30.2687 33.7688 30.2812 33.7938C30.2938 33.825 30.3438 33.9 30.5063 34.0125C30.8875 34.275 31.4875 34.4625 32.3188 34.7313L32.425 34.7437C33.1812 34.975 34.1938 35.275 34.95 35.8312C35.3688 36.1312 35.7625 36.5438 36.0063 37.1063C36.2563 37.675 36.3063 38.3 36.1938 38.95C35.9875 40.1375 35.2 40.95 34.2125 41.3687C33.9125 41.4438 33.5875 41.5938 33.2563 41.6562V42C33.2563 42.6938 32.6938 43.2563 31.9438 43.2563C31.3063 43.2563 30.7437 42.6938 30.7437 42V41.6C30.15 41.4625 29.3188 41.2 28.8813 41.0312C28.775 40.9937 28.6812 40.9625 28.6062 40.8813C27.95 40.7188 27.5938 40.0125 27.8125 39.3563C28.0312 38.7 28.7375 38.3438 29.3938 38.5625C29.5188 38.6063 29.6562 38.65 29.7937 38.7C30.3875 38.9 31.0562 39.125 31.4312 39.1875C32.2312 39.3125 32.85 39.2313 33.2313 39.0688C33.575 38.925 33.6938 38.7375 33.7313 38.5187C33.775 38.2687 33.7375 38.1562 33.7125 38.1063C33.6937 38.05 33.6375 37.9625 33.4813 37.85C33.1125 37.5813 32.525 37.3875 31.65 37.1187L31.5125 37.0812C30.7812 36.8625 29.825 36.575 29.1 36.0812C28.6875 35.8 28.2813 35.4125 28.0188 34.8625C27.7563 34.3062 27.6937 33.6875 27.8062 33.05C28.0062 31.9062 28.8188 31.1188 29.75 30.6938C30.0062 30.5563 30.3937 30.45 30.7437 30.375V29.9438C30.7437 29.3063 31.3063 28.7437 32 28.7437C32.6937 28.7437 33.2563 29.3063 33.2563 29.9438V30.3938Z" fill="white"/>
<path opacity="0.4" d="M25.0375 17.555C24.5938 16.89 25.0687 16 25.8687 16H38.1313C38.9312 16 39.4062 16.89 38.9625 17.555L36 22H28L25.0375 17.555ZM36.7563 24.525C40.3563 26.7937 48 31.6812 48 42C48 45.3125 45.3125 48 42 48H22C18.6862 48 16 45.3125 16 42C16 31.6812 23.6438 26.7937 27.1875 24.525C27.4937 24.3312 27.7625 24.1562 28 24H36C36.2375 24.1562 36.5063 24.3312 36.7563 24.525ZM30.7437 30V30.375C30.3937 30.45 30.0063 30.5563 29.75 30.6938C28.8188 31.1188 28.0062 31.9062 27.8062 33.05C27.6937 33.6875 27.7563 34.3062 28.0188 34.8625C28.2812 35.4125 28.6875 35.8 29.1 36.0812C29.825 36.575 30.7812 36.8625 31.5125 37.0812L31.65 37.1187C32.525 37.3875 33.1125 37.5813 33.4813 37.85C33.6375 37.9625 33.6938 38.05 33.7125 38.1063C33.7375 38.1562 33.775 38.2687 33.7313 38.5187C33.6938 38.7375 33.575 38.925 33.2313 39.0688C32.85 39.2313 32.2312 39.3125 31.4312 39.1875C31.0562 39.125 30.3875 38.9 29.7937 38.7C29.6562 38.65 29.5188 38.6063 29.3938 38.5625C28.7375 38.3438 28.0312 38.7 27.8125 39.3563C27.5938 40.0125 27.95 40.7188 28.6062 40.8813C28.6812 40.9625 28.775 40.9937 28.8813 41.0312C29.3188 41.2 30.15 41.4625 30.7437 41.6V42C30.7437 42.6938 31.3063 43.2563 31.9438 43.2563C32.6938 43.2563 33.2563 42.6938 33.2563 42V41.6562C33.5875 41.5938 33.9125 41.4438 34.2125 41.3687C35.2 40.95 35.9875 40.1375 36.1938 38.95C36.3062 38.3 36.2563 37.675 36.0063 37.1063C35.7625 36.5438 35.3688 36.1312 34.95 35.8312C34.1938 35.275 33.1812 34.975 32.425 34.7437L32.3188 34.7313C31.4875 34.4625 30.8875 34.275 30.5063 34.0125C30.3438 33.9 30.2937 33.825 30.2812 33.7938C30.2688 33.7688 30.2312 33.6938 30.2688 33.4813C30.2937 33.3563 30.3875 33.15 30.7812 32.975C31.1313 32.7938 31.8063 32.6938 32.5688 32.7563C32.8438 32.8563 33.6875 33.0187 33.9312 33.0812C34.5938 33.2625 35.2812 32.8625 35.4562 32.1938C35.6375 31.5312 35.2375 30.8438 34.5688 30.6687C34.2938 30.5938 33.6688 30.4688 33.2563 30.3938V30C33.2563 29.3062 32.6938 28.7437 31.9438 28.7437C31.3063 28.7437 30.7437 29.3062 30.7437 30Z" fill="white"/>
</g>
<defs>
<clipPath id="clip0_113_5401">
<rect width="32" height="32" fill="white" transform="translate(16 16)"/>
</clipPath>
</defs>
</svg>
