<svg width="64" height="64" viewBox="0 0 64 64" fill="none" xmlns="http://www.w3.org/2000/svg">
<circle cx="32" cy="32" r="32" fill="#651FFF"/>
<g clip-path="url(#clip0_113_5399)">
<path d="M47.9998 21.5V42.5C47.9998 43.468 47.2053 44.25 46.222 44.25C45.2387 44.25 44.4442 43.468 44.4442 42.5V21.5C44.4442 20.5337 45.2387 19.75 46.222 19.75C47.2053 19.75 47.9998 20.5337 47.9998 21.5ZM24.8887 39C24.8887 38.3492 24.9942 37.8133 25.1831 37.2773L27.7387 38.0375C27.622 38.3383 27.5553 38.6609 27.5553 39C27.5553 40.4492 28.7498 41.625 30.222 41.625C31.4498 41.625 32.5665 40.7391 32.8276 39.5578L35.3831 40.3234C34.7887 42.582 32.7053 44.25 30.222 44.25C27.2276 44.25 24.8887 41.8984 24.8887 39Z" fill="white"/>
<path opacity="0.4" d="M19.5533 28.407L42.6667 21.5V42.5L19.5533 35.593C19.5039 36.5172 18.7278 37.25 17.7778 37.25C16.7961 37.25 16 36.468 16 35.5V28.5C16 27.532 16.7961 26.75 17.7778 26.75C18.7278 26.75 19.5039 27.4828 19.5533 28.407Z" fill="white"/>
</g>
<defs>
<clipPath id="clip0_113_5399">
<rect width="32" height="28" fill="white" transform="translate(16 18)"/>
</clipPath>
</defs>
</svg>
