<svg width="680" height="624" viewBox="0 0 680 624" fill="none" xmlns="http://www.w3.org/2000/svg">
<g clip-path="url(#clip0_1716_4698)">
<path d="M452.21 12.9556C452.21 12.9556 341.692 -26.3128 233.216 36.1999C124.739 98.7269 70.0087 222.839 23.0029 322.252C-24.003 421.664 3.05537 522.789 85.8725 568.907C168.69 615.01 224.991 547.046 341.163 543.736C457.336 540.425 488.578 557.02 584.974 491.44C681.37 425.859 698.805 270.969 622.756 156.374C546.707 41.7648 452.21 12.9556 452.21 12.9556Z" fill="#00E5FF"/>
<path opacity="0.7" d="M452.21 12.9556C452.21 12.9556 341.692 -26.3128 233.216 36.1999C124.739 98.7269 70.0087 222.839 23.0029 322.252C-24.003 421.664 3.05537 522.789 85.8725 568.907C168.69 615.01 224.991 547.046 341.163 543.736C457.336 540.425 488.578 557.02 584.974 491.44C681.37 425.859 698.805 270.969 622.756 156.374C546.707 41.7648 452.21 12.9556 452.21 12.9556Z" fill="white"/>
<path d="M213.797 0.712891V621.417" stroke="#263238" stroke-linecap="round" stroke-linejoin="round"/>
<path d="M285.191 0.712891V621.417" stroke="#263238" stroke-linecap="round" stroke-linejoin="round"/>
<path d="M329.455 0.712891V621.417" stroke="#263238" stroke-linecap="round" stroke-linejoin="round"/>
<path d="M643.589 104.877H392.282V622.844H643.589V104.877Z" stroke="#263238" stroke-linecap="round" stroke-linejoin="round"/>
<path d="M655.083 104.877H643.175V622.844H655.083V104.877Z" fill="#263238" stroke="#263238" stroke-linecap="round" stroke-linejoin="round"/>
<path d="M643.375 152.992H392.554V159.898H643.375V152.992Z" stroke="#263238" stroke-linecap="round" stroke-linejoin="round"/>
<path d="M393.039 167.945H642.162" stroke="#263238" stroke-linecap="round" stroke-linejoin="round"/>
<path d="M429.408 108.629H397.994V152.863H429.408V108.629Z" stroke="#263238" stroke-linecap="round" stroke-linejoin="round"/>
<path d="M432.734 108.629H429.407V152.863H432.734V108.629Z" stroke="#263238" stroke-linecap="round" stroke-linejoin="round"/>
<path d="M467.96 108.629H436.547V152.863H467.96V108.629Z" stroke="#263238" stroke-linecap="round" stroke-linejoin="round"/>
<path d="M471.287 108.629H467.96V152.863H471.287V108.629Z" stroke="#263238" stroke-linecap="round" stroke-linejoin="round"/>
<path d="M503.829 116.506H478.013V152.863H503.829V116.506Z" stroke="#263238" stroke-linecap="round" stroke-linejoin="round"/>
<path d="M506.571 116.506H503.829V152.863H506.571V116.506Z" stroke="#263238" stroke-linecap="round" stroke-linejoin="round"/>
<path d="M545.066 108.629H513.652V152.863H545.066V108.629Z" stroke="#263238" stroke-linecap="round" stroke-linejoin="round"/>
<path d="M548.392 108.629H545.065V152.863H548.392V108.629Z" stroke="#263238" stroke-linecap="round" stroke-linejoin="round"/>
<path d="M584.204 116.506H558.388V152.863H584.204V116.506Z" stroke="#263238" stroke-linecap="round" stroke-linejoin="round"/>
<path d="M586.946 116.506H584.204V152.863H586.946V116.506Z" stroke="#263238" stroke-linecap="round" stroke-linejoin="round"/>
<path d="M622.757 116.506H596.94V152.863H622.757V116.506Z" stroke="#263238" stroke-linecap="round" stroke-linejoin="round"/>
<path d="M625.498 116.506H622.757V152.863H625.498V116.506Z" stroke="#263238" stroke-linecap="round" stroke-linejoin="round"/>
<path d="M643.375 227.191H392.554V234.098H643.375V227.191Z" stroke="#263238" stroke-linecap="round" stroke-linejoin="round"/>
<path d="M393.039 242.145H642.162" stroke="#263238" stroke-linecap="round" stroke-linejoin="round"/>
<path d="M429.136 179.219H395.152V227.063H429.136V179.219Z" stroke="#263238" stroke-linecap="round" stroke-linejoin="round"/>
<path d="M432.72 179.219H429.122V227.063H432.72V179.219Z" stroke="#263238" stroke-linecap="round" stroke-linejoin="round"/>
<path d="M467.96 182.828H436.547V227.062H467.96V182.828Z" stroke="#263238" stroke-linecap="round" stroke-linejoin="round"/>
<path d="M471.287 182.828H467.96V227.062H471.287V182.828Z" stroke="#263238" stroke-linecap="round" stroke-linejoin="round"/>
<path d="M506.513 182.828H475.1V227.062H506.513V182.828Z" stroke="#263238" stroke-linecap="round" stroke-linejoin="round"/>
<path d="M509.84 182.828H506.513V227.062H509.84V182.828Z" stroke="#263238" stroke-linecap="round" stroke-linejoin="round"/>
<path d="M544.609 183.471H513.652V227.063H544.609V183.471Z" stroke="#263238" stroke-linecap="round" stroke-linejoin="round"/>
<path d="M547.879 183.471H544.595V227.063H547.879V183.471Z" stroke="#263238" stroke-linecap="round" stroke-linejoin="round"/>
<path d="M583.961 187.553H555.903V227.064H583.961V187.553Z" stroke="#263238" stroke-linecap="round" stroke-linejoin="round"/>
<path d="M586.931 187.553H583.961V227.064H586.931V187.553Z" stroke="#263238" stroke-linecap="round" stroke-linejoin="round"/>
<path d="M628.511 173.896H590.758V227.063H628.511V173.896Z" stroke="#263238" stroke-linecap="round" stroke-linejoin="round"/>
<path d="M632.509 173.896H628.511V227.063H632.509V173.896Z" stroke="#263238" stroke-linecap="round" stroke-linejoin="round"/>
<path d="M643.375 301.391H392.554V308.297H643.375V301.391Z" stroke="#263238" stroke-linecap="round" stroke-linejoin="round"/>
<path d="M393.039 316.344H642.162" stroke="#263238" stroke-linecap="round" stroke-linejoin="round"/>
<path d="M429.408 257.027H397.994V301.261H429.408V257.027Z" stroke="#263238" stroke-linecap="round" stroke-linejoin="round"/>
<path d="M432.734 257.027H429.407V301.261H432.734V257.027Z" stroke="#263238" stroke-linecap="round" stroke-linejoin="round"/>
<path d="M467.96 257.027H436.547V301.261H467.96V257.027Z" stroke="#263238" stroke-linecap="round" stroke-linejoin="round"/>
<path d="M471.287 257.027H467.96V301.261H471.287V257.027Z" stroke="#263238" stroke-linecap="round" stroke-linejoin="round"/>
<path d="M506.513 257.027H475.1V301.261H506.513V257.027Z" stroke="#263238" stroke-linecap="round" stroke-linejoin="round"/>
<path d="M509.84 257.027H506.513V301.261H509.84V257.027Z" stroke="#263238" stroke-linecap="round" stroke-linejoin="round"/>
<path d="M545.408 261.607H517.236V301.275H545.408V261.607Z" stroke="#263238" stroke-linecap="round" stroke-linejoin="round"/>
<path d="M548.392 261.607H545.408V301.275H548.392V261.607Z" stroke="#263238" stroke-linecap="round" stroke-linejoin="round"/>
<path d="M583.618 257.027H552.205V301.261H583.618V257.027Z" stroke="#263238" stroke-linecap="round" stroke-linejoin="round"/>
<path d="M586.945 257.027H583.618V301.261H586.945V257.027Z" stroke="#263238" stroke-linecap="round" stroke-linejoin="round"/>
<path d="M622.171 257.027H590.758V301.261H622.171V257.027Z" stroke="#263238" stroke-linecap="round" stroke-linejoin="round"/>
<path d="M625.498 257.027H622.171V301.261H625.498V257.027Z" stroke="#263238" stroke-linecap="round" stroke-linejoin="round"/>
<path d="M643.375 375.59H392.554V382.496H643.375V375.59Z" stroke="#263238" stroke-linecap="round" stroke-linejoin="round"/>
<path d="M393.039 390.543H642.162" stroke="#263238" stroke-linecap="round" stroke-linejoin="round"/>
<path d="M429.408 331.227H397.994V375.461H429.408V331.227Z" stroke="#263238" stroke-linecap="round" stroke-linejoin="round"/>
<path d="M432.734 331.227H429.407V375.461H432.734V331.227Z" stroke="#263238" stroke-linecap="round" stroke-linejoin="round"/>
<path d="M467.96 331.227H436.547V375.461H467.96V331.227Z" stroke="#263238" stroke-linecap="round" stroke-linejoin="round"/>
<path d="M471.287 331.227H467.96V375.461H471.287V331.227Z" stroke="#263238" stroke-linecap="round" stroke-linejoin="round"/>
<path d="M506.513 331.227H475.1V375.461H506.513V331.227Z" stroke="#263238" stroke-linecap="round" stroke-linejoin="round"/>
<path d="M509.84 331.227H506.513V375.461H509.84V331.227Z" stroke="#263238" stroke-linecap="round" stroke-linejoin="round"/>
<path d="M545.066 331.227H513.652V375.461H545.066V331.227Z" stroke="#263238" stroke-linecap="round" stroke-linejoin="round"/>
<path d="M548.392 331.227H545.065V375.461H548.392V331.227Z" stroke="#263238" stroke-linecap="round" stroke-linejoin="round"/>
<path d="M583.618 331.227H552.205V375.461H583.618V331.227Z" stroke="#263238" stroke-linecap="round" stroke-linejoin="round"/>
<path d="M586.945 331.227H583.618V375.461H586.945V331.227Z" stroke="#263238" stroke-linecap="round" stroke-linejoin="round"/>
<path d="M622.171 331.227H590.758V375.461H622.171V331.227Z" stroke="#263238" stroke-linecap="round" stroke-linejoin="round"/>
<path d="M625.498 331.227H622.171V375.461H625.498V331.227Z" stroke="#263238" stroke-linecap="round" stroke-linejoin="round"/>
<path d="M643.375 449.789H392.554V456.695H643.375V449.789Z" stroke="#263238" stroke-linecap="round" stroke-linejoin="round"/>
<path d="M393.039 464.742H642.162" stroke="#263238" stroke-linecap="round" stroke-linejoin="round"/>
<path d="M429.408 405.426H397.994V449.66H429.408V405.426Z" stroke="#263238" stroke-linecap="round" stroke-linejoin="round"/>
<path d="M432.734 405.426H429.407V449.66H432.734V405.426Z" stroke="#263238" stroke-linecap="round" stroke-linejoin="round"/>
<path d="M467.96 405.426H436.547V449.66H467.96V405.426Z" stroke="#263238" stroke-linecap="round" stroke-linejoin="round"/>
<path d="M471.287 405.426H467.96V449.66H471.287V405.426Z" stroke="#263238" stroke-linecap="round" stroke-linejoin="round"/>
<path d="M506.513 405.426H475.1V449.66H506.513V405.426Z" stroke="#263238" stroke-linecap="round" stroke-linejoin="round"/>
<path d="M509.84 405.426H506.513V449.66H509.84V405.426Z" stroke="#263238" stroke-linecap="round" stroke-linejoin="round"/>
<path d="M545.066 405.426H513.652V449.66H545.066V405.426Z" stroke="#263238" stroke-linecap="round" stroke-linejoin="round"/>
<path d="M548.392 405.426H545.065V449.66H548.392V405.426Z" stroke="#263238" stroke-linecap="round" stroke-linejoin="round"/>
<path d="M583.618 405.426H552.205V449.66H583.618V405.426Z" stroke="#263238" stroke-linecap="round" stroke-linejoin="round"/>
<path d="M586.945 405.426H583.618V449.66H586.945V405.426Z" stroke="#263238" stroke-linecap="round" stroke-linejoin="round"/>
<path d="M622.171 405.426H590.758V449.66H622.171V405.426Z" stroke="#263238" stroke-linecap="round" stroke-linejoin="round"/>
<path d="M625.498 405.426H622.171V449.66H625.498V405.426Z" stroke="#263238" stroke-linecap="round" stroke-linejoin="round"/>
<path d="M643.375 523.988H392.554V530.894H643.375V523.988Z" stroke="#263238" stroke-linecap="round" stroke-linejoin="round"/>
<path d="M393.039 538.941H642.162" stroke="#263238" stroke-linecap="round" stroke-linejoin="round"/>
<path d="M429.408 479.625H397.994V523.859H429.408V479.625Z" stroke="#263238" stroke-linecap="round" stroke-linejoin="round"/>
<path d="M432.734 479.625H429.407V523.859H432.734V479.625Z" stroke="#263238" stroke-linecap="round" stroke-linejoin="round"/>
<path d="M467.96 479.625H436.547V523.859H467.96V479.625Z" stroke="#263238" stroke-linecap="round" stroke-linejoin="round"/>
<path d="M471.287 479.625H467.96V523.859H471.287V479.625Z" stroke="#263238" stroke-linecap="round" stroke-linejoin="round"/>
<path d="M506.513 479.625H475.1V523.859H506.513V479.625Z" stroke="#263238" stroke-linecap="round" stroke-linejoin="round"/>
<path d="M509.84 479.625H506.513V523.859H509.84V479.625Z" stroke="#263238" stroke-linecap="round" stroke-linejoin="round"/>
<path d="M545.066 479.625H513.652V523.859H545.066V479.625Z" stroke="#263238" stroke-linecap="round" stroke-linejoin="round"/>
<path d="M548.392 479.625H545.065V523.859H548.392V479.625Z" stroke="#263238" stroke-linecap="round" stroke-linejoin="round"/>
<path d="M583.618 479.625H552.205V523.859H583.618V479.625Z" stroke="#263238" stroke-linecap="round" stroke-linejoin="round"/>
<path d="M586.945 479.625H583.618V523.859H586.945V479.625Z" stroke="#263238" stroke-linecap="round" stroke-linejoin="round"/>
<path d="M622.171 479.625H590.758V523.859H622.171V479.625Z" stroke="#263238" stroke-linecap="round" stroke-linejoin="round"/>
<path d="M625.498 479.625H622.171V523.859H625.498V479.625Z" stroke="#263238" stroke-linecap="round" stroke-linejoin="round"/>
<path d="M643.375 598.188H392.554V605.094H643.375V598.188Z" stroke="#263238" stroke-linecap="round" stroke-linejoin="round"/>
<path d="M393.039 613.141H642.162" stroke="#263238" stroke-linecap="round" stroke-linejoin="round"/>
<path d="M429.408 553.824H397.994V598.058H429.408V553.824Z" stroke="#263238" stroke-linecap="round" stroke-linejoin="round"/>
<path d="M432.734 553.824H429.407V598.058H432.734V553.824Z" stroke="#263238" stroke-linecap="round" stroke-linejoin="round"/>
<path d="M467.96 553.824H436.547V598.058H467.96V553.824Z" stroke="#263238" stroke-linecap="round" stroke-linejoin="round"/>
<path d="M471.287 553.824H467.96V598.058H471.287V553.824Z" stroke="#263238" stroke-linecap="round" stroke-linejoin="round"/>
<path d="M506.513 553.824H475.1V598.058H506.513V553.824Z" stroke="#263238" stroke-linecap="round" stroke-linejoin="round"/>
<path d="M509.84 553.824H506.513V598.058H509.84V553.824Z" stroke="#263238" stroke-linecap="round" stroke-linejoin="round"/>
<path d="M545.066 553.824H513.652V598.058H545.066V553.824Z" stroke="#263238" stroke-linecap="round" stroke-linejoin="round"/>
<path d="M548.392 553.824H545.065V598.058H548.392V553.824Z" stroke="#263238" stroke-linecap="round" stroke-linejoin="round"/>
<path d="M583.618 553.824H552.205V598.058H583.618V553.824Z" stroke="#263238" stroke-linecap="round" stroke-linejoin="round"/>
<path d="M586.945 553.824H583.618V598.058H586.945V553.824Z" stroke="#263238" stroke-linecap="round" stroke-linejoin="round"/>
<path d="M622.171 553.824H590.758V598.058H622.171V553.824Z" stroke="#263238" stroke-linecap="round" stroke-linejoin="round"/>
<path d="M625.498 553.824H622.171V598.058H625.498V553.824Z" stroke="#263238" stroke-linecap="round" stroke-linejoin="round"/>
<path d="M259.661 256.131H239.328V346.497H259.661V256.131Z" fill="#263238" stroke="#263238" stroke-linecap="round" stroke-linejoin="round"/>
<path d="M309.937 219.973H189.038V310.339H309.937V219.973Z" fill="#263238" stroke="#263238" stroke-linecap="round" stroke-linejoin="round"/>
<path d="M300.713 226.865H198.248V303.462H300.713V226.865Z" fill="#E5E5E5" stroke="#263238" stroke-linecap="round" stroke-linejoin="round"/>
<path d="M379.816 604.481L378.188 622.845H310.792C310.792 622.845 309.165 615.496 312.834 612.642C316.504 609.789 329.983 607.334 332.853 606.521C335.709 605.708 341.435 601.213 341.435 601.213L379.83 604.481H379.816Z" fill="#263238" stroke="#263238" stroke-linecap="round" stroke-linejoin="round"/>
<path d="M378.546 618.65L378.189 622.845H310.793C310.793 622.845 310.379 620.947 310.436 618.707C329.755 618.622 366.266 618.507 378.546 618.636V618.65Z" fill="#919191" stroke="#263238" stroke-linecap="round" stroke-linejoin="round"/>
<path d="M379.417 412.647C379.417 412.647 377.375 460.805 377.375 473.461C377.375 486.118 387.584 509.791 387.998 523.66C388.413 537.544 381.059 596.318 381.059 596.318L350.431 595.904C350.431 595.904 347.975 571.419 347.161 548.146C346.347 524.887 336.952 468.553 334.91 449.775C332.868 430.997 328.37 411.006 328.37 411.006L379.431 412.633L379.417 412.647Z" fill="#263238" stroke="#263238" stroke-linecap="round" stroke-linejoin="round"/>
<path d="M384.715 592.236L382.273 605.706L350.417 604.065V588.969L384.715 592.236Z" fill="#919191" stroke="#263238" stroke-linecap="round" stroke-linejoin="round"/>
<path d="M387.984 380.399C387.984 380.399 384.314 398.764 382.672 406.925C381.045 415.087 372.863 436.719 372.463 446.108C372.049 455.497 368.793 491.013 368.793 510.604C368.793 530.196 367.979 535.09 363.896 551.828C359.812 568.565 355.728 595.505 355.728 595.505C355.728 595.505 348.375 595.919 337.351 594.278C326.328 592.651 318.56 587.743 318.56 587.743L318.146 579.995C318.146 579.995 316.105 568.979 315.291 565.711C314.477 562.444 320.188 547.747 320.188 546.12C320.188 544.493 315.69 539.185 314.063 531.023C312.435 522.861 306.709 474.703 306.709 467.754C306.709 460.805 304.253 412.647 304.253 412.647C304.253 412.647 299.355 381.626 299.355 377.959C299.355 374.292 365.938 373.878 376.961 373.065C387.984 372.252 391.668 374.292 387.984 380.414V380.399Z" fill="#919191" stroke="#263238" stroke-linecap="round" stroke-linejoin="round"/>
<path d="M330.812 389.375C330.812 389.375 339.793 404.072 350.416 408.553" stroke="#263238" stroke-linecap="round" stroke-linejoin="round"/>
<path d="M346.147 443.682L345.505 446.921" stroke="#263238" stroke-linecap="round" stroke-linejoin="round"/>
<path d="M356.542 391.016L347.289 437.889" stroke="#263238" stroke-linecap="round" stroke-linejoin="round"/>
<path d="M365.11 448.962C365.11 448.962 353.672 450.588 346.319 450.588H321.402L320.988 459.563C320.988 459.563 330.384 461.604 341.821 461.19C353.258 460.776 365.096 458.336 365.096 458.336V448.947L365.11 448.962Z" stroke="#263238" stroke-linecap="round" stroke-linejoin="round"/>
<path d="M365.11 458.352C365.11 458.352 364.296 474.276 364.696 486.105C365.11 497.948 360.198 499.989 354.886 499.989C349.574 499.989 325.886 502.842 322.616 500.402C319.346 497.948 318.118 491.427 319.346 486.119C320.574 480.811 320.974 459.593 320.974 459.593" stroke="#263238" stroke-linecap="round" stroke-linejoin="round"/>
<path d="M353.272 608.561L352.044 622.845H284.648C284.648 622.845 283.02 615.496 286.69 612.642C290.359 609.789 303.839 607.334 306.709 606.521C309.564 605.708 315.29 601.213 315.29 601.213L353.272 608.561Z" fill="#263238" stroke="#263238" stroke-linecap="round" stroke-linejoin="round"/>
<path d="M352.401 618.65L352.045 622.845H284.649C284.649 622.845 284.234 620.947 284.292 618.707C303.611 618.622 340.122 618.507 352.401 618.636V618.65Z" fill="white" stroke="#263238" stroke-linecap="round" stroke-linejoin="round"/>
<path d="M360.212 590.198C360.212 590.198 359.398 608.976 356.128 609.789C352.859 610.603 311.207 603.668 310.793 600.4C310.379 597.133 314.463 591.011 314.877 588.971C315.291 586.93 315.291 583.663 316.919 581.223C318.547 578.769 349.589 586.117 360.212 590.198Z" fill="white" stroke="#263238" stroke-linecap="round" stroke-linejoin="round"/>
<path d="M191.679 336.608C191.679 336.608 185.082 338.292 183.269 339.833C181.441 341.374 178.928 345.441 179.756 347.125C180.599 348.808 181.998 348.109 182.555 347.267C183.112 346.425 185.639 342.787 188.438 340.96C191.237 339.134 196.148 337.036 196.148 337.036C196.148 337.036 193.764 335.781 191.665 336.623L191.679 336.608Z" fill="#E5E5E5" stroke="#263238" stroke-linecap="round" stroke-linejoin="round"/>
<path d="M311.25 237.367L282.835 302.677C282.835 302.677 273.368 306.458 254.42 313.564C235.472 320.656 215.596 329.659 210.855 331.072C206.115 332.485 194.749 334.853 189.066 338.164C183.383 341.474 178.499 348.323 182.283 348.794C183.611 348.965 183.683 350.335 187.052 349.921C187.052 349.921 188.88 349.636 190.694 348.095C192.521 346.554 196.105 344.785 199.004 343.843C201.902 342.901 207.371 342.487 211.583 343.186C213.397 343.486 215.482 343.372 217.324 343.144C221.807 339.976 223.635 338.164 223.635 338.164C223.635 338.164 256.776 335.324 270.041 332.956C283.306 330.587 303.182 323.966 303.182 323.966L324.486 237.838L311.221 237.367H311.25Z" fill="white" stroke="#263238" stroke-linecap="round" stroke-linejoin="round"/>
<path d="M198.548 338.164C198.548 338.164 184.812 342.901 183.869 348.58" stroke="#263238" stroke-linecap="round" stroke-linejoin="round"/>
<path d="M223.635 338.164C223.635 338.164 220.323 341.474 217.01 343.372C213.697 345.27 209.428 344.314 206.115 346.212C202.803 348.11 201.86 349.522 198.062 349.051C194.278 348.58 194.278 345.27 199.004 343.843C203.745 342.431 205.159 341.474 205.159 341.474L208 338.164" fill="white"/>
<path d="M223.635 338.164C223.635 338.164 220.323 341.474 217.01 343.372C213.697 345.27 209.428 344.314 206.115 346.212C202.803 348.11 201.86 349.522 198.062 349.051C194.278 348.58 194.278 345.27 199.004 343.843C203.745 342.431 205.159 341.474 205.159 341.474L208 338.164" stroke="#263238" stroke-linecap="round" stroke-linejoin="round"/>
<path d="M244.425 261.295L149.357 263.164L136.206 346.752L252.878 347.694L244.425 261.295Z" fill="#651FFF" stroke="#263238" stroke-linecap="round" stroke-linejoin="round"/>
<path d="M233.145 346.752L236.9 261.295L188.095 318.913L149.356 263.164" stroke="#263238" stroke-linecap="round" stroke-linejoin="round"/>
<path d="M364.296 187.339C364.296 187.339 372.049 190.192 383.487 200.809C394.924 211.425 403.905 239.178 405.133 253.875C406.361 268.572 397.38 313.463 397.38 324.493C397.38 335.523 394.11 382.853 392.482 384.08C390.855 385.308 339.379 389.388 316.519 388.161C293.644 386.934 292.416 377.959 289.975 369.383C287.519 360.808 285.891 338.362 289.561 312.649C293.23 286.937 297.728 253.461 307.938 236.324C318.147 219.187 325.086 210.198 333.668 202.45C342.249 194.701 358.17 186.525 364.296 187.353V187.339Z" fill="#263238" stroke="#263238" stroke-linecap="round" stroke-linejoin="round"/>
<path d="M349.046 278.904L329.569 277.663V244.973L349.046 246.214V278.904Z" fill="#651FFF"/>
<path d="M341.593 240.42H337.866V250.351H341.593V240.42Z" fill="white" stroke="#263238" stroke-linecap="round" stroke-linejoin="round"/>
<path d="M344.905 271.998L333.725 270.913V253.947L344.905 255.032V271.998Z" fill="white"/>
<path d="M349.203 238.08L378.803 303.86L324.843 329.287C324.843 329.287 294.072 329.459 291.659 329.045C289.246 328.631 268.142 341.858 267.071 343.028C266 344.213 267.185 345.283 267.185 345.283C267.185 345.283 264.515 347.794 266.386 349.235L268.242 350.677C268.242 350.677 268.042 351.875 270.755 353.345C273.482 354.8 274.71 354.144 274.71 354.144C274.71 354.144 277.666 353.53 279.936 352.56C282.207 351.59 289.103 346.082 290.317 346.282C291.516 346.481 304.953 348.422 310.307 348.222C315.676 348.023 319.788 342.786 319.788 342.786C319.788 342.786 366.123 342.187 381.973 337.977C397.822 333.754 417.498 322.395 421.082 318.172C424.652 313.948 412.03 259.012 407.532 246.969C403.034 234.926 395.966 221.941 393.953 219.986" fill="#263238"/>
<path d="M349.203 238.079L378.803 303.86L324.843 329.287C324.843 329.287 294.072 329.459 291.659 329.045C289.246 328.631 268.142 341.858 267.071 343.028C266 344.213 267.185 345.283 267.185 345.283C267.185 345.283 264.515 347.794 266.386 349.235L268.242 350.677C268.242 350.677 268.042 351.875 270.755 353.345C273.482 354.8 274.71 354.144 274.71 354.144C274.71 354.144 277.666 353.53 279.936 352.56C282.207 351.59 289.103 346.082 290.317 346.282C291.516 346.481 304.953 348.422 310.307 348.222C315.676 348.023 319.788 342.786 319.788 342.786C319.788 342.786 366.123 342.187 381.973 337.977C397.822 333.753 417.498 322.395 421.082 318.172C424.652 313.948 412.03 259.012 407.532 246.969C403.034 234.926 395.966 221.941 393.953 219.986" stroke="#263238" stroke-linecap="round" stroke-linejoin="round"/>
<path d="M274.71 354.13C274.71 354.13 273.482 354.786 270.755 353.331C268.027 351.875 268.242 350.662 268.242 350.662L266.385 349.221C264.529 347.78 267.185 345.269 267.185 345.269C267.185 345.269 266 344.199 267.071 343.014C268.142 341.83 289.26 328.617 291.659 329.031C294.072 329.444 324.843 329.273 324.843 329.273L378.803 303.846L366.337 276.164L410.616 257.086C416.056 277.134 424.024 314.719 421.096 318.172C417.527 322.395 397.836 333.754 381.987 337.977C366.137 342.201 319.802 342.786 319.802 342.786C319.802 342.786 315.676 348.023 310.321 348.222C304.952 348.422 291.53 346.482 290.331 346.282C289.132 346.082 282.235 351.576 279.95 352.56C277.68 353.53 274.724 354.144 274.724 354.144L274.71 354.13Z" fill="white" stroke="#263238" stroke-linecap="round" stroke-linejoin="round"/>
<path d="M267.186 345.282L284.006 336.107" stroke="#263238" stroke-linecap="round" stroke-linejoin="round"/>
<path d="M268.741 350.134L284.534 339.604" stroke="#263238" stroke-linecap="round" stroke-linejoin="round"/>
<path d="M272.768 354.058C272.768 354.058 272.111 352.574 273.596 351.918C275.081 351.262 286.618 342.957 286.618 342.957" stroke="#263238" stroke-linecap="round" stroke-linejoin="round"/>
<path d="M321.159 197.869L328.027 203.12C328.027 203.12 315.504 227.349 321.159 228.562C326.813 229.774 346.218 203.933 353.486 195.443C360.754 186.967 364.295 187.338 364.295 187.338C364.295 187.338 355.499 177.279 352.272 169.602C349.045 161.925 347.417 157.088 347.417 157.088L321.144 197.883L321.159 197.869Z" fill="white" stroke="#263238" stroke-linecap="round" stroke-linejoin="round"/>
<path d="M297.941 135.042C297.941 135.042 297.256 166.905 298.155 172.541C299.055 178.177 306.837 193.773 309.793 197.141C312.748 200.508 324.857 200.994 329.24 198.368C333.638 195.743 344.833 181.445 346.818 175.837C348.817 170.23 349.002 165.392 349.002 165.392C349.002 165.392 356.027 167.162 359.983 158.829C363.952 150.495 360.011 143.917 354.771 144.26L350.302 146.415C350.302 146.415 356.427 130.519 352.558 124.397C348.688 118.276 314.519 121.33 307.465 122.457C300.426 123.584 297.927 135.042 297.927 135.042H297.941Z" fill="white" stroke="#263238" stroke-linecap="round" stroke-linejoin="round"/>
<path d="M323.344 153.377C323.344 153.377 328.127 149.796 332.896 152.578" stroke="#263238" stroke-linecap="round" stroke-linejoin="round"/>
<path d="M300.24 150.995C300.24 150.995 306.209 149.397 307.408 153.778" stroke="#263238" stroke-linecap="round" stroke-linejoin="round"/>
<path d="M305.509 152.892C305.509 154.048 304.581 154.975 303.425 154.975C302.268 154.975 301.34 154.048 301.34 152.892C301.34 151.736 302.268 150.809 303.425 150.809C304.581 150.809 305.509 151.736 305.509 152.892Z" fill="#263238"/>
<path d="M329.269 154.105C329.269 155.261 328.341 156.188 327.184 156.188C326.028 156.188 325.1 155.261 325.1 154.105C325.1 152.949 326.028 152.021 327.184 152.021C328.341 152.021 329.269 152.949 329.269 154.105Z" fill="#263238"/>
<path d="M326.913 136.797L334.938 138.923C336.109 139.237 336.766 140.478 336.352 141.62L336.152 142.162C335.766 143.218 334.61 143.774 333.539 143.418L325.714 140.749C324.614 140.378 324.043 139.166 324.443 138.081C324.814 137.082 325.885 136.526 326.913 136.797Z" fill="#263238" stroke="#263238" stroke-linecap="round" stroke-linejoin="round"/>
<path d="M309.179 137.681L309.236 137.81C309.636 138.68 309.222 139.708 308.337 140.05L302.768 142.276C301.768 142.676 300.655 142.048 300.483 140.978C300.369 140.221 300.769 139.479 301.483 139.165L306.994 136.811C307.837 136.454 308.808 136.825 309.179 137.667V137.681Z" fill="#263238" stroke="#263238" stroke-linecap="round" stroke-linejoin="round"/>
<path d="M329.126 167.889C329.126 167.889 325.699 175.323 315.861 174.709" stroke="#263238" stroke-linecap="round" stroke-linejoin="round"/>
<path d="M310.635 145.83C310.635 145.83 309.336 165.165 309.264 166.734C309.207 168.318 313.348 172.67 316.575 169.331C319.802 165.992 319.973 163.138 319.973 163.138" fill="white"/>
<path d="M310.635 145.83C310.635 145.83 309.336 165.165 309.264 166.734C309.207 168.318 313.348 172.67 316.575 169.331C319.802 165.992 319.973 163.138 319.973 163.138" stroke="#263238" stroke-linecap="round" stroke-linejoin="round"/>
<path d="M310.407 145.272C308.422 142.761 305.352 141.148 301.897 141.148C295.9 141.148 291.045 146 291.045 151.993C291.045 157.986 295.9 162.837 301.897 162.837C305.352 162.837 307.708 161.696 309.693 159.185L310.407 145.286V145.272Z" stroke="#263238" stroke-linecap="round" stroke-linejoin="round"/>
<path d="M328.07 162.837C334.063 162.837 338.922 157.982 338.922 151.993C338.922 146.004 334.063 141.148 328.07 141.148C322.076 141.148 317.218 146.004 317.218 151.993C317.218 157.982 322.076 162.837 328.07 162.837Z" stroke="#263238" stroke-linecap="round" stroke-linejoin="round"/>
<path d="M338.965 149.825L355.871 144.588" stroke="#263238" stroke-linecap="round" stroke-linejoin="round"/>
<path d="M291.131 150.766L297.556 149.582" stroke="#263238" stroke-linecap="round" stroke-linejoin="round"/>
<path d="M310.407 147.684C310.407 147.684 313.763 145.529 317.361 148.169" stroke="#263238" stroke-linecap="round" stroke-linejoin="round"/>
<path d="M351.53 105.806C351.53 105.806 365.68 116.051 362.639 127.124C359.598 138.196 350.93 159.3 350.93 159.3L348.589 159.671L347.789 151.624C347.789 151.624 339.821 150.011 340.193 143.219C340.55 136.427 343.163 131.675 343.163 131.675C343.163 131.675 336.152 139.053 326.542 139.138C316.933 139.224 310.907 128.65 308.222 132.917C305.538 137.198 300.74 140.365 290.06 136.784C279.379 133.202 262.188 109.958 271.854 101.197C281.521 92.4356 300.683 103.808 306.538 104.322C312.392 104.835 315.119 94.7757 328.398 96.5023C341.678 98.2288 351.544 105.791 351.544 105.791L351.53 105.806Z" fill="#263238" stroke="#263238" stroke-linecap="round" stroke-linejoin="round"/>
<path d="M394.267 342.828H88.5293V623.286H394.267V342.828Z" fill="white" stroke="#263238" stroke-linecap="round" stroke-linejoin="round"/>
<path d="M394.267 342.828H88.5293V361.706H394.267V342.828Z" fill="#263238" stroke="#263238" stroke-linecap="round" stroke-linejoin="round"/>
<path d="M394.267 342.828H297.528V623.286H394.267V342.828Z" stroke="#263238" stroke-linecap="round" stroke-linejoin="round"/>
<path d="M407.404 342.828H75.3926V353.573H407.404V342.828Z" fill="white" stroke="#263238" stroke-linecap="round" stroke-linejoin="round"/>
<path d="M407.403 342.828H285.591V353.573H407.403V342.828Z" fill="white" stroke="#263238" stroke-linecap="round" stroke-linejoin="round"/>
<path d="M463.333 220.484C463.333 220.484 463.048 213.207 459.978 208.17C456.894 203.133 445.699 199.495 439.816 202.02C433.933 204.532 431.135 206.215 431.135 206.215C431.135 206.215 439.816 208.727 447.655 214.049C455.494 219.371 463.333 220.484 463.333 220.484Z" fill="#651FFF" stroke="#263238" stroke-linecap="round" stroke-linejoin="round"/>
<path d="M475.085 224.124C475.085 224.124 468.36 217.688 467.246 208.741C466.132 199.795 475.642 185.797 475.642 185.797C475.642 185.797 480.397 194.472 483.195 204.546C485.994 214.62 475.071 224.124 475.071 224.124H475.085Z" fill="#651FFF" stroke="#263238" stroke-linecap="round" stroke-linejoin="round"/>
<path d="M487.964 221.328C487.964 221.328 486.279 212.937 489.364 207.059C492.448 201.18 500.558 201.736 508.683 204.262C516.807 206.773 519.321 206.773 519.321 206.773C519.321 206.773 509.797 213.209 501.686 216.562C493.562 219.915 487.964 221.313 487.964 221.313V221.328Z" fill="#651FFF" stroke="#263238" stroke-linecap="round" stroke-linejoin="round"/>
<path d="M475.171 251.464C474.771 251.464 474.442 251.136 474.442 250.736V210.726C474.442 210.326 474.771 209.998 475.171 209.998C475.57 209.998 475.899 210.326 475.899 210.726V250.736C475.899 251.136 475.57 251.464 475.171 251.464Z" fill="#263238"/>
<path d="M478.526 251.463C478.526 251.463 478.455 251.463 478.426 251.463C478.026 251.406 477.755 251.049 477.812 250.649C477.955 249.65 481.339 225.95 492.819 212.779C493.076 212.48 493.533 212.451 493.847 212.708C494.147 212.965 494.176 213.421 493.919 213.735C482.724 226.563 479.283 250.607 479.254 250.849C479.212 251.206 478.897 251.477 478.541 251.477L478.526 251.463Z" fill="#263238"/>
<path d="M471.801 250.907C471.401 250.907 471.087 250.579 471.087 250.179C471.087 249.951 471.201 227.178 457.636 216.347C457.322 216.091 457.279 215.648 457.522 215.334C457.779 215.02 458.222 214.978 458.536 215.22C472.643 226.507 472.543 249.238 472.529 250.208C472.529 250.607 472.201 250.921 471.801 250.921V250.907Z" fill="#263238"/>
<path d="M483.009 250.636C483.009 250.636 482.881 250.636 482.824 250.607C482.438 250.508 482.21 250.108 482.31 249.723C482.395 249.423 484.351 242.246 488.864 236.053C489.092 235.725 489.549 235.653 489.877 235.896C490.206 236.124 490.277 236.581 490.034 236.909C485.679 242.888 483.723 250.022 483.709 250.094C483.623 250.422 483.323 250.636 483.009 250.636Z" fill="#263238"/>
<path d="M487.407 239.506C487.407 239.506 487.122 231.672 490.492 230.559C493.847 229.446 496.931 232.243 499.444 233.913C501.957 235.596 504.77 237.266 504.77 242.303C504.77 247.34 502.814 256.572 502.814 256.572C502.814 256.572 500.016 247.896 495.261 243.986C490.506 240.077 487.422 239.506 487.422 239.506H487.407Z" fill="#651FFF" stroke="#263238" stroke-linecap="round" stroke-linejoin="round"/>
<path d="M466.761 250.906C466.461 250.906 466.175 250.707 466.075 250.407C466.061 250.336 463.833 243.572 458.764 239.562C458.45 239.32 458.393 238.863 458.65 238.549C458.893 238.235 459.35 238.178 459.664 238.435C465.09 242.716 467.375 249.679 467.46 249.979C467.589 250.364 467.374 250.764 466.989 250.892C466.918 250.921 466.846 250.921 466.775 250.921L466.761 250.906Z" fill="#263238"/>
<path d="M463.334 242.016C463.334 242.016 464.447 236.979 461.649 233.341C458.85 229.702 452.125 230.544 448.769 234.454C445.414 238.363 440.645 250.121 440.645 250.121C440.645 250.121 447.37 244.799 455.209 244.799C463.048 244.799 463.334 242.002 463.334 242.002V242.016Z" fill="#651FFF" stroke="#263238" stroke-linecap="round" stroke-linejoin="round"/>
<path d="M485.637 293.799H463.305L452.125 256.871H496.818L485.637 293.799Z" fill="white" stroke="#263238" stroke-linecap="round" stroke-linejoin="round"/>
<path d="M496.932 250.734H451.996V256.856H496.932V250.734Z" fill="white" stroke="#263238" stroke-linecap="round" stroke-linejoin="round"/>
<path d="M583.104 293.486H528.645V403.444H583.104V293.486Z" fill="#263238" stroke="#263238" stroke-linecap="round" stroke-linejoin="round"/>
<path d="M534.998 293.486H372.591V403.444H534.998V293.486Z" fill="white" stroke="#263238" stroke-linecap="round" stroke-linejoin="round"/>
<path d="M526.803 301.035H380.987V395.154H526.803V301.035Z" fill="#E5E5E5" stroke="#263238" stroke-linecap="round" stroke-linejoin="round"/>
<path d="M526.803 301.035H452.781V395.154H526.803V301.035Z" fill="#E5E5E5" stroke="#263238" stroke-linecap="round" stroke-linejoin="round"/>
<path d="M526.803 344.969H380.987V351.204H526.803V344.969Z" fill="white" stroke="#263238" stroke-linecap="round" stroke-linejoin="round"/>
<path d="M620.757 403.344H566.298V513.301H620.757V403.344Z" fill="#263238" stroke="#263238" stroke-linecap="round" stroke-linejoin="round"/>
<path d="M319.817 451.275L337.494 512.804H303.354L319.817 451.275Z" fill="#263238" stroke="#263238" stroke-linecap="round" stroke-linejoin="round"/>
<path d="M321.159 444.782L318.903 442.756L260.417 512.803H308.565L321.159 444.782Z" fill="white" stroke="#263238" stroke-linecap="round" stroke-linejoin="round"/>
<path d="M318.903 442.756H270.755L258.004 512.803H306.166L318.903 442.756Z" fill="#651FFF" stroke="#263238" stroke-linecap="round" stroke-linejoin="round"/>
<path d="M276.681 456.439H307.48" stroke="#263238" stroke-linecap="round" stroke-linejoin="round"/>
<path d="M274.696 464.389H305.496" stroke="#263238" stroke-linecap="round" stroke-linejoin="round"/>
<path d="M272.711 472.322H303.51" stroke="#263238" stroke-linecap="round" stroke-linejoin="round"/>
<path d="M572.637 403.344H327.97V513.301H572.637V403.344Z" fill="white" stroke="#263238" stroke-linecap="round" stroke-linejoin="round"/>
<path d="M564.441 410.893H336.352V505.011H564.441V410.893Z" fill="#E5E5E5" stroke="#263238" stroke-linecap="round" stroke-linejoin="round"/>
<path d="M564.456 410.893H391.068V505.011H564.456V410.893Z" fill="white" stroke="#263238" stroke-linecap="round" stroke-linejoin="round"/>
<path d="M564.442 410.893H399.25V505.011H564.442V410.893Z" fill="#E5E5E5" stroke="#263238" stroke-linecap="round" stroke-linejoin="round"/>
<path d="M564.442 410.893H457.536V505.011H564.442V410.893Z" fill="#E5E5E5" stroke="#263238" stroke-linecap="round" stroke-linejoin="round"/>
<path d="M564.441 410.893H499.387V505.011H564.441V410.893Z" fill="white" stroke="#263238" stroke-linecap="round" stroke-linejoin="round"/>
<path d="M564.442 410.893H507.569V505.011H564.442V410.893Z" fill="#E5E5E5" stroke="#263238" stroke-linecap="round" stroke-linejoin="round"/>
<path d="M661.695 512.887H607.235V622.844H661.695V512.887Z" fill="#263238" stroke="#263238" stroke-linecap="round" stroke-linejoin="round"/>
<path d="M613.589 512.887H247.623V622.844H613.589V512.887Z" fill="white" stroke="#263238" stroke-linecap="round" stroke-linejoin="round"/>
<path d="M605.393 520.436H256.005V614.554H605.393V520.436Z" fill="#E5E5E5" stroke="#263238" stroke-linecap="round" stroke-linejoin="round"/>
<path d="M605.407 520.436H354.071V614.554H605.407V520.436Z" fill="#E5E5E5" stroke="#263238" stroke-linecap="round" stroke-linejoin="round"/>
<path d="M605.393 520.436H383.243V614.554H605.393V520.436Z" fill="white" stroke="#263238" stroke-linecap="round" stroke-linejoin="round"/>
<path d="M605.407 520.436H391.439V614.554H605.407V520.436Z" fill="#E5E5E5" stroke="#263238" stroke-linecap="round" stroke-linejoin="round"/>
<path d="M605.393 520.436H445.67V614.554H605.393V520.436Z" fill="#E5E5E5" stroke="#263238" stroke-linecap="round" stroke-linejoin="round"/>
<path d="M605.393 520.436H494.832V614.554H605.393V520.436Z" fill="white" stroke="#263238" stroke-linecap="round" stroke-linejoin="round"/>
<path d="M605.393 520.436H504.042V614.554H605.393V520.436Z" fill="#E5E5E5" stroke="#263238" stroke-linecap="round" stroke-linejoin="round"/>
<path d="M605.393 520.436H557.716V614.554H605.393V520.436Z" fill="#E5E5E5" stroke="#263238" stroke-linecap="round" stroke-linejoin="round"/>
<path d="M601.024 341.316L618.701 402.845H584.561L601.024 341.316Z" fill="#787878" stroke="#263238" stroke-linecap="round" stroke-linejoin="round"/>
<path d="M602.366 334.823L600.11 332.797L541.624 402.844H589.772L602.366 334.823Z" fill="white" stroke="#263238" stroke-linecap="round" stroke-linejoin="round"/>
<path d="M600.11 332.797H551.962L539.211 402.844H587.373L600.11 332.797Z" fill="#651FFF" stroke="#263238" stroke-linecap="round" stroke-linejoin="round"/>
<path d="M558.358 343.742H589.158" stroke="#263238" stroke-linecap="round" stroke-linejoin="round"/>
<path d="M556.374 351.689H587.173" stroke="#263238" stroke-linecap="round" stroke-linejoin="round"/>
<path d="M554.375 359.637H585.174" stroke="#263238" stroke-linecap="round" stroke-linejoin="round"/>
<path d="M470.002 442.598L487.679 504.126H453.538L470.002 442.598Z" fill="#263238" stroke="#263238" stroke-linecap="round" stroke-linejoin="round"/>
<path d="M471.344 436.105L469.088 434.064L410.602 504.125H458.75L471.344 436.105Z" fill="white" stroke="#263238" stroke-linecap="round" stroke-linejoin="round"/>
<path d="M469.088 434.064H420.939L408.188 504.125H456.351L469.088 434.064Z" fill="#651FFF" stroke="#263238" stroke-linecap="round" stroke-linejoin="round"/>
<path d="M426.765 473.846L426.908 473.718L427.551 474.531L435.076 468.281L433.548 466.369L426.223 472.448L425.437 470.336L424.024 472.134L419.526 466.483L417.227 468.395L422.139 474.545L419.283 478.212L414.414 482.251L415.942 484.163L418.426 482.094L416.299 492.539H425.552L427.736 481.808L429.678 484.234L431.977 482.322L428.15 477.513L426.765 473.818V473.846ZM429.207 480.895L429.835 480.381L430.578 481.323L429.949 481.837L429.207 480.895ZM429.607 482.122L428.978 482.636L428.236 481.694L428.864 481.18L429.607 482.122ZM428.978 480.595L428.236 479.654L428.864 479.14L429.607 480.082L428.978 480.595ZM419.412 478.612H420.44L419.811 479.126H419.483L419.197 478.769L419.397 478.598L419.412 478.612ZM420.982 478.641L421.368 479.126H420.397L420.982 478.641ZM419.012 479.254L418.883 479.896L418.141 480.51L417.727 479.996L418.855 479.054L419.012 479.254ZM418.769 480.481L418.641 481.138L418.384 480.809L418.783 480.481H418.769ZM417.784 480.809L416.656 481.751L416.242 481.238L417.37 480.296L417.784 480.809ZM418.012 481.095L418.426 481.608L417.298 482.55L416.884 482.037L418.012 481.095ZM421.739 478.855L421.539 478.598H422.053L421.739 478.855ZM426.437 478.598L426.037 478.926L425.766 478.598H426.437ZM426.894 478.712L427.222 479.126H426.394L426.894 478.712ZM428.279 479.126H427.808L427.393 478.612H428.422L428.607 478.855L428.264 479.14L428.279 479.126ZM427.265 473.418L428.407 472.462L428.821 472.976L427.679 473.932L427.265 473.418ZM431.72 469.708L432.848 468.766L433.262 469.28L432.134 470.222L431.72 469.708ZM431.777 470.521L430.649 471.463L430.235 470.949L431.363 470.008L431.777 470.521ZM431.477 469.423L431.063 468.909L432.191 467.967L432.605 468.481L431.477 469.423ZM431.12 469.708L429.992 470.65L429.578 470.136L430.706 469.194L431.12 469.708ZM429.635 470.935L428.507 471.877L428.093 471.363L429.221 470.422L429.635 470.935ZM429.864 471.221L430.278 471.734L429.15 472.676L428.736 472.162L429.864 471.221ZM433.59 468.98L433.176 468.467L434.062 467.739L434.476 468.253L433.59 468.98ZM433.833 467.439L432.948 468.167L432.534 467.653L433.419 466.926L433.833 467.439ZM427.75 471.634L428.165 472.148L427.022 473.104L426.608 472.59L427.75 471.634ZM426.665 473.39L426.608 473.432L426.522 473.218L426.665 473.39ZM423.224 473.133L422.539 472.277L423.167 471.763L423.738 472.476L423.224 473.133ZM420.354 469.523L419.612 468.581L420.24 468.067L420.982 469.009L420.354 469.523ZM421.211 469.294L421.953 470.236L421.325 470.75L420.582 469.808L421.211 469.294ZM420.011 469.808L419.383 470.322L418.641 469.38L419.269 468.866L420.011 469.808ZM420.24 470.093L420.982 471.035L420.354 471.549L419.612 470.607L420.24 470.093ZM421.225 471.321L421.968 472.262L421.339 472.776L420.597 471.834L421.225 471.321ZM421.582 471.035L422.21 470.521L422.953 471.463L422.324 471.977L421.582 471.035ZM420.011 467.768L419.383 468.281L418.798 467.553L419.426 467.04L420.011 467.768ZM418.455 467.839L419.04 468.567L418.412 469.08L417.827 468.353L418.455 467.839ZM422.353 474.017L421.596 473.061L422.225 472.548L422.967 473.475L422.896 473.575L422.367 474.017H422.353ZM415.899 481.48L416.313 481.994L415.428 482.721L415.014 482.208L415.899 481.48ZM415.656 483.021L416.542 482.293L416.956 482.807L416.07 483.535L415.656 483.021ZM422.01 479.083L422.639 478.569H425.195L425.609 479.083H422.025H422.01ZM428.065 480.153L428.621 480.852L427.993 481.366L427.85 481.195L428.065 480.167V480.153ZM429.207 482.878L429.835 482.365L430.421 483.092L429.792 483.606L429.207 482.878ZM430.763 482.807L430.178 482.079L430.806 481.566L431.392 482.293L430.763 482.807Z" fill="white"/>
<path d="M450.582 467.182L450.782 467.011L451.653 468.109L461.862 459.633L459.792 457.051L449.868 465.298L448.797 462.43L446.884 464.87L440.773 457.208L437.66 459.79L444.314 468.138L440.43 473.103L433.833 478.583L435.903 481.165L439.273 478.369L436.403 492.538H448.94L451.896 477.984L454.523 481.28L457.636 478.697L452.438 472.176L450.568 467.168L450.582 467.182ZM453.895 476.742L454.737 476.043L455.751 477.313L454.909 478.012L453.895 476.742ZM454.437 478.412L453.595 479.111L452.581 477.841L453.424 477.142L454.437 478.412ZM453.581 476.343L452.567 475.073L453.409 474.373L454.423 475.643L453.581 476.343ZM440.601 473.646H442L441.158 474.345H440.715L440.33 473.86L440.601 473.631V473.646ZM442.743 473.689L443.271 474.345H441.958L442.743 473.689ZM440.073 474.53L439.902 475.401L438.888 476.243L438.331 475.543L439.859 474.274L440.073 474.545V474.53ZM439.73 476.186L439.545 477.07L439.188 476.628L439.73 476.186ZM438.402 476.628L436.874 477.898L436.318 477.199L437.845 475.929L438.402 476.628ZM438.716 477.027L439.273 477.727L437.745 478.997L437.189 478.297L438.716 477.027ZM443.771 474.002L443.486 473.646H444.185L443.757 474.002H443.771ZM450.139 473.646L449.597 474.102L449.24 473.646H450.139ZM450.753 473.788L451.196 474.345H450.082L450.753 473.788ZM452.624 474.345H451.981L451.425 473.646H452.824L453.081 473.974L452.624 474.359V474.345ZM451.253 466.611L452.81 465.313L453.366 466.012L451.81 467.31L451.253 466.611ZM457.307 461.588L458.835 460.318L459.392 461.018L457.864 462.288L457.307 461.588ZM457.393 462.687L455.865 463.957L455.308 463.258L456.836 461.988L457.393 462.687ZM456.993 461.189L456.436 460.49L457.964 459.22L458.521 459.919L456.993 461.189ZM456.522 461.588L454.994 462.858L454.437 462.159L455.965 460.889L456.522 461.588ZM454.509 463.258L452.981 464.528L452.424 463.829L453.952 462.559L454.509 463.258ZM454.823 463.657L455.38 464.357L453.852 465.626L453.295 464.927L454.823 463.657ZM459.878 460.632L459.321 459.933L460.52 458.934L461.077 459.633L459.878 460.632ZM460.206 458.535L459.007 459.534L458.45 458.834L459.649 457.836L460.206 458.535ZM451.953 464.228L452.51 464.927L450.953 466.226L450.396 465.527L451.953 464.228ZM450.482 466.611L450.411 466.668L450.296 466.368L450.482 466.611ZM445.813 466.254L444.885 465.099L445.727 464.399L446.498 465.37L445.799 466.254H445.813ZM441.915 461.36L440.901 460.09L441.743 459.391L442.757 460.661L441.915 461.36ZM443.071 461.06L444.085 462.33L443.243 463.03L442.229 461.76L443.071 461.06ZM441.429 461.76L440.587 462.459L439.573 461.189L440.416 460.49L441.429 461.76ZM441.743 462.159L442.757 463.429L441.915 464.128L440.901 462.858L441.743 462.159ZM443.071 463.829L444.085 465.099L443.243 465.798L442.229 464.528L443.071 463.829ZM443.543 463.429L444.385 462.73L445.399 464L444.556 464.699L443.543 463.429ZM441.415 458.991L440.573 459.691L439.773 458.692L440.615 457.993L441.415 458.991ZM439.302 459.091L440.101 460.09L439.259 460.789L438.459 459.79L439.302 459.091ZM444.585 467.481L443.557 466.183L444.399 465.484L445.413 466.754L445.313 466.882L444.585 467.481ZM435.832 477.598L436.389 478.297L435.19 479.296L434.633 478.597L435.832 477.598ZM435.504 479.696L436.703 478.697L437.26 479.396L436.061 480.395L435.504 479.696ZM444.128 474.359L444.971 473.66H448.426L448.983 474.359H444.114H444.128ZM452.338 475.8L453.081 476.742L452.238 477.441L452.053 477.199L452.338 475.8ZM453.895 479.51L454.737 478.811L455.537 479.81L454.694 480.509L453.895 479.51ZM456.008 479.41L455.208 478.412L456.051 477.712L456.85 478.711L456.008 479.41Z" fill="white"/>
<path d="M464.29 451.472C464.219 450.416 462.762 449.56 460.877 449.417C460.934 449.117 460.992 448.818 460.992 448.518C460.992 445.336 457.907 442.768 454.109 442.768C450.711 442.768 447.898 444.822 447.341 447.533C447.098 447.505 446.856 447.476 446.613 447.476C444.542 447.476 442.858 448.718 442.572 450.33C442.115 449.774 441.173 449.403 440.073 449.403C438.974 449.403 437.974 449.802 437.532 450.373C437.003 450.202 436.304 450.102 435.532 450.102C433.89 450.102 432.562 450.573 432.562 451.144C432.562 451.272 432.634 451.386 432.748 451.486H464.29V451.472Z" fill="white"/>
<path d="M436.061 456.18C436.032 455.723 435.39 455.338 434.561 455.281C434.59 455.152 434.604 455.024 434.604 454.881C434.604 453.483 433.248 452.355 431.577 452.355C430.078 452.355 428.85 453.269 428.593 454.453C428.493 454.439 428.379 454.424 428.279 454.424C427.365 454.424 426.622 454.967 426.508 455.68C426.308 455.438 425.894 455.266 425.409 455.266C424.923 455.266 424.481 455.438 424.295 455.694C424.067 455.623 423.752 455.566 423.41 455.566C422.696 455.566 422.11 455.766 422.11 456.023C422.11 456.08 422.139 456.123 422.196 456.18H436.075H436.061Z" fill="white"/>
<path d="M466.389 552.555L484.066 614.083H449.926L466.389 552.555Z" fill="#263238" stroke="#263238" stroke-linecap="round" stroke-linejoin="round"/>
<path d="M467.731 546.062L465.475 544.021L406.975 614.083H455.137L467.731 546.062Z" fill="white" stroke="#263238" stroke-linecap="round" stroke-linejoin="round"/>
<path d="M465.475 544.021H417.313L404.576 614.083H452.724L465.475 544.021Z" fill="white" stroke="#263238" stroke-linecap="round" stroke-linejoin="round"/>
<path d="M453.524 561.986H420.911L412.272 609.431H444.885L453.524 561.986Z" fill="#651FFF"/>
<path d="M423.253 551.471L421.925 558.791H454.538L455.88 551.471H423.253Z" fill="#651FFF"/>
<path d="M361.425 552.555L379.103 614.083H344.962L361.425 552.555Z" fill="#263238" stroke="#263238" stroke-linecap="round" stroke-linejoin="round"/>
<path d="M362.767 546.062L360.511 544.021L302.011 614.083H350.173L362.767 546.062Z" fill="white" stroke="#263238" stroke-linecap="round" stroke-linejoin="round"/>
<path d="M360.511 544.021H312.349L299.612 614.083H347.76L360.511 544.021Z" fill="white" stroke="#263238" stroke-linecap="round" stroke-linejoin="round"/>
<path d="M342.749 569.163C342.749 569.163 341.321 575.441 335.038 578.866C328.756 582.291 319.032 577.439 311.321 584.288C303.611 591.137 303.325 605.706 319.603 607.418C335.895 609.131 339.322 596.859 339.322 596.859C339.322 596.859 346.747 598.286 346.461 596.003C346.176 593.72 341.321 592.008 341.321 592.008C341.321 592.008 344.848 586.443 345.033 580.307C345.219 574.172 345.033 570.033 345.033 570.033C345.033 570.033 349.032 570.89 350.459 570.033C351.887 569.177 354.743 561.187 354.743 561.187C354.743 561.187 349.888 564.611 347.604 564.611C345.319 564.611 339.322 559.76 339.322 559.76C339.322 559.76 338.18 569.177 342.749 569.177V569.163Z" fill="#651FFF"/>
<path d="M315.162 550.984L313.819 558.319H346.446L347.774 550.984H315.162Z" fill="#651FFF"/>
<path d="M313.234 561.586L311.892 568.92H331.482L332.81 561.586H313.234Z" fill="#651FFF"/>
<path d="M574.965 552.555L592.643 614.083H558.502L574.965 552.555Z" fill="#263238" stroke="#263238" stroke-linecap="round" stroke-linejoin="round"/>
<path d="M576.307 546.062L574.051 544.021L515.551 614.083H563.713L576.307 546.062Z" fill="white" stroke="#263238" stroke-linecap="round" stroke-linejoin="round"/>
<path d="M574.051 544.021H525.903L513.152 614.083H561.315L574.051 544.021Z" fill="#651FFF" stroke="#263238" stroke-linecap="round" stroke-linejoin="round"/>
<path d="M538.64 564.511C538.64 567.565 535.898 570.047 532.514 570.047C529.13 570.047 526.389 567.565 526.389 564.511C526.389 561.457 529.13 558.975 532.514 558.975C535.898 558.975 538.64 561.457 538.64 564.511Z" fill="white"/>
<path d="M551.762 574.714C551.762 577.768 549.02 580.25 545.636 580.25C542.252 580.25 539.511 577.768 539.511 574.714C539.511 571.661 542.252 569.178 545.636 569.178C549.02 569.178 551.762 571.661 551.762 574.714Z" fill="white"/>
<path d="M560.815 566.311C560.815 568.865 558.531 570.934 555.704 570.934C552.876 570.934 550.592 568.865 550.592 566.311C550.592 563.756 552.876 561.688 555.704 561.688C558.531 561.688 560.815 563.756 560.815 566.311Z" fill="white"/>
<path d="M533.528 602.268C539.892 602.268 545.051 597.605 545.051 591.852C545.051 586.099 539.892 581.436 533.528 581.436C527.164 581.436 522.005 586.099 522.005 591.852C522.005 597.605 527.164 602.268 533.528 602.268Z" fill="white"/>
<path d="M345.733 431.611H339.122V505.097H345.733V431.611Z" fill="#651FFF" stroke="#263238" stroke-linecap="round" stroke-linejoin="round"/>
<path d="M380.074 431.611H343.963V505.097H380.074V431.611Z" fill="#651FFF" stroke="#263238" stroke-linecap="round" stroke-linejoin="round"/>
<path d="M353.216 431.611H346.604V505.097H353.216V431.611Z" fill="white" stroke="#263238" stroke-linecap="round" stroke-linejoin="round"/>
<path d="M387.556 431.611H351.445V505.097H387.556V431.611Z" fill="white" stroke="#263238" stroke-linecap="round" stroke-linejoin="round"/>
<path d="M360.697 431.611H354.086V505.097H360.697V431.611Z" fill="white" stroke="#263238" stroke-linecap="round" stroke-linejoin="round"/>
<path d="M390.626 431.611H358.927V505.097H390.626V431.611Z" fill="white" stroke="#263238" stroke-linecap="round" stroke-linejoin="round"/>
<path d="M368.179 431.611H361.568V505.097H368.179V431.611Z" fill="#651FFF" stroke="#263238" stroke-linecap="round" stroke-linejoin="round"/>
<path d="M391.082 431.611H366.423V505.097H391.082V431.611Z" fill="#651FFF" stroke="#263238" stroke-linecap="round" stroke-linejoin="round"/>
<path d="M515.265 431.611H508.654V505.097H515.265V431.611Z" fill="white" stroke="#263238" stroke-linecap="round" stroke-linejoin="round"/>
<path d="M549.606 431.611H513.495V505.097H549.606V431.611Z" fill="white" stroke="#263238" stroke-linecap="round" stroke-linejoin="round"/>
<path d="M522.748 431.611H516.137V505.097H522.748V431.611Z" fill="#651FFF" stroke="#263238" stroke-linecap="round" stroke-linejoin="round"/>
<path d="M557.102 431.611H520.991V505.097H557.102V431.611Z" fill="#651FFF" stroke="#263238" stroke-linecap="round" stroke-linejoin="round"/>
<path d="M530.244 431.611H523.633V505.097H530.244V431.611Z" fill="#651FFF" stroke="#263238" stroke-linecap="round" stroke-linejoin="round"/>
<path d="M560.173 431.611H528.474V505.097H560.173V431.611Z" fill="#651FFF" stroke="#263238" stroke-linecap="round" stroke-linejoin="round"/>
<path d="M537.726 431.611H531.115V505.097H537.726V431.611Z" fill="white" stroke="#263238" stroke-linecap="round" stroke-linejoin="round"/>
<path d="M564.585 431.611H535.956V505.097H564.585V431.611Z" fill="white" stroke="#263238" stroke-linecap="round" stroke-linejoin="round"/>
<path d="M415.086 358.197H391.312V394.912H415.086V358.197Z" fill="white" stroke="#263238" stroke-linecap="round" stroke-linejoin="round"/>
<path d="M410.016 358.197H386.242V394.912H410.016V358.197Z" fill="white" stroke="#263238" stroke-linecap="round" stroke-linejoin="round"/>
<path d="M474.014 380.328H424.31V394.911H474.014V380.328Z" fill="white" stroke="#263238" stroke-linecap="round" stroke-linejoin="round"/>
<path d="M474.014 374.764H422.524V385.023H474.014V374.764Z" fill="#263238" stroke="#263238" stroke-linecap="round" stroke-linejoin="round"/>
<path d="M504.456 380.328H474.199V394.911H504.456V380.328Z" fill="white" stroke="#263238" stroke-linecap="round" stroke-linejoin="round"/>
<path d="M507.012 374.764H474.199V385.023H507.012V374.764Z" fill="#263238" stroke="#263238" stroke-linecap="round" stroke-linejoin="round"/>
<path d="M475.513 339.375H389.897V344.983H475.513V339.375Z" fill="#263238" stroke="#263238" stroke-linecap="round" stroke-linejoin="round"/>
<path d="M479.069 339.375H442.087V344.983H479.069V339.375Z" fill="white" stroke="#263238" stroke-linecap="round" stroke-linejoin="round"/>
<path d="M475.513 333.639H389.897V339.246H475.513V333.639Z" fill="white" stroke="#263238" stroke-linecap="round" stroke-linejoin="round"/>
<path d="M479.069 333.639H442.087V339.246H479.069V333.639Z" fill="white" stroke="#263238" stroke-linecap="round" stroke-linejoin="round"/>
<path d="M475.513 327.918H389.897V333.526H475.513V327.918Z" fill="#651FFF" stroke="#263238" stroke-linecap="round" stroke-linejoin="round"/>
<path d="M479.069 327.918H442.087V333.526H479.069V327.918Z" fill="white" stroke="#263238" stroke-linecap="round" stroke-linejoin="round"/>
<path d="M475.513 322.195H389.897V327.803H475.513V322.195Z" fill="white" stroke="#263238" stroke-linecap="round" stroke-linejoin="round"/>
<path d="M479.069 322.195H442.087V327.803H479.069V322.195Z" fill="white" stroke="#263238" stroke-linecap="round" stroke-linejoin="round"/>
<path d="M475.513 316.459H389.897V322.067H475.513V316.459Z" fill="#651FFF" stroke="#263238" stroke-linecap="round" stroke-linejoin="round"/>
<path d="M479.069 316.459H442.087V322.067H479.069V316.459Z" fill="white" stroke="#263238" stroke-linecap="round" stroke-linejoin="round"/>
<path d="M63.5261 462.004C63.5261 462.004 67.6955 483.25 67.6955 491.213C67.6955 499.175 62.3838 513.601 62.3838 530.667C62.3838 547.732 67.3243 592.88 67.3243 592.88L85.544 593.636C85.544 593.636 90.8558 538.243 96.553 525.358C102.25 512.473 104.521 485.519 104.521 477.942C104.521 470.366 107.176 461.633 107.176 461.633L63.5261 462.018V462.004Z" fill="#263238" stroke="#263238" stroke-linecap="round" stroke-linejoin="round"/>
<path d="M58.9713 578.839H89.3423L88.9568 602.354C88.9568 602.354 106.42 613.355 110.589 614.868C114.759 616.38 117.043 619.805 116.658 620.932C116.272 622.059 114.373 622.83 114.373 622.83H61.9984C61.9984 622.83 60.0993 617.893 60.8561 613.341C61.6129 608.789 63.512 604.237 63.512 604.237L58.957 578.824L58.9713 578.839Z" fill="#651FFF" stroke="#263238" stroke-linecap="round" stroke-linejoin="round"/>
<path d="M73.3073 462.004C73.3073 462.004 77.4768 483.25 77.4768 491.213C77.4768 499.175 72.165 513.601 72.165 530.667C72.165 547.732 77.1055 592.88 77.1055 592.88L95.3253 593.636C95.3253 593.636 100.637 538.243 106.334 525.358C112.031 512.473 114.302 485.519 114.302 477.942C114.302 470.366 116.958 461.633 116.958 461.633L73.3073 462.018V462.004Z" fill="#263238" stroke="#263238" stroke-linecap="round" stroke-linejoin="round"/>
<path d="M117.443 288.251C117.443 288.251 129.209 366.017 133.393 380.429C137.562 394.841 153.897 457.824 153.897 457.824C153.897 457.824 134.164 467.313 107.205 469.211C80.247 471.109 45.3353 468.826 35.0831 464.274C24.8309 459.722 17.6201 456.683 17.6201 456.683L28.6291 400.534C28.6291 400.534 52.5461 333.384 52.5461 318.216C52.5461 303.048 51.0325 287.494 59.7569 276.108C68.4813 264.721 78.7334 259.413 85.9442 261.696C93.155 263.979 117.458 288.251 117.458 288.251H117.443Z" fill="#ABABAB"/>
<path d="M140.989 408.553C140.86 408.096 140.746 407.64 140.632 407.183C138.105 407.825 135.592 408.41 133.107 408.953L136.52 401.932L140.475 406.641C140.189 405.542 139.904 404.472 139.618 403.402L137.376 400.734C137.848 400.619 138.333 400.491 138.819 400.377C138.69 399.906 138.576 399.449 138.447 398.993C88.9284 410.936 49.5759 404.115 29.3571 398.465C28.8859 399.82 28.6146 400.577 28.6146 400.577L28.429 401.518L31.5704 407.797C30.0854 407.412 28.7146 407.012 27.4295 406.641L27.1582 408.039C39.181 411.55 58.8001 415.773 83.8879 415.773C100.708 415.773 119.97 413.861 140.989 408.582V408.553ZM135.292 401.19L131.779 408.41L125.868 403.131C128.966 402.56 132.107 401.918 135.292 401.19ZM130.808 409.438C126.524 410.322 122.341 411.064 118.228 411.692L124.911 404.172L130.808 409.423V409.438ZM123.569 403.545L116.715 411.264L112.16 405.271C115.887 404.8 119.699 404.23 123.569 403.559V403.545ZM115.544 412.092C110.832 412.748 106.234 413.248 101.779 413.604L110.918 405.985L115.544 412.078V412.092ZM109.161 405.599L100.28 412.991L92.698 406.855C97.9811 406.641 103.478 406.241 109.147 405.599H109.161ZM29.2144 399.892C32.5413 400.819 36.368 401.775 40.666 402.674L33.0268 407.526L29.2144 399.892ZM34.2119 408.467L41.0087 404.144L46.0491 410.993C41.694 410.208 37.7388 409.338 34.2119 408.453V408.467ZM41.8797 402.917C46.1919 403.787 50.9467 404.601 56.1014 405.257L47.7482 410.893L41.8797 402.902V402.917ZM49.3332 411.564L56.9724 406.413L63.9975 413.433C58.7429 412.948 53.8453 412.306 49.3332 411.564ZM58.1004 405.514C62.3698 406.027 66.9104 406.427 71.6938 406.698L65.2684 412.677L58.1004 405.514ZM66.3393 413.633L72.6933 407.725L80.4182 414.318C75.492 414.246 70.7943 414.004 66.3393 413.647V413.633ZM73.8071 406.798C77.0627 406.941 80.4182 407.041 83.8879 407.041C85.5157 407.041 87.1863 407.012 88.857 406.983L81.3749 413.248L73.8071 406.798ZM90.8417 407.183L99.0378 413.818C93.212 414.218 87.6433 414.361 82.303 414.318L90.8417 407.169V407.183Z" fill="white"/>
<path d="M149.756 441.985C149.542 441.157 149.328 440.315 149.1 439.459L145.073 434.565C145.915 434.337 146.772 434.08 147.629 433.852C147.515 433.395 147.386 432.938 147.272 432.467C146.115 432.796 144.973 433.124 143.831 433.423C143.759 433.423 143.688 433.395 143.617 433.423C143.531 433.452 143.445 433.509 143.374 433.552C84.9449 448.934 39.9381 437.947 22.418 432.125L22.1467 433.538C23.7888 434.08 25.645 434.665 27.7297 435.264L20.9901 440.373C20.9901 440.373 20.8759 440.33 20.8188 440.315L20.5332 441.785C20.7188 441.956 20.9616 442.028 21.2043 441.956C31.9991 445.609 54.1027 451.559 83.8883 451.559C103.022 451.559 125.311 449.105 149.771 442.013L149.756 441.985ZM144.145 435.678L148.429 440.886C146.458 441.457 144.488 441.999 142.546 442.499L144.145 435.678ZM142.803 435.164L141.375 441.257L137.377 436.506C139.176 436.078 140.975 435.635 142.803 435.164ZM140.904 442.912C138.276 443.569 135.692 444.182 133.122 444.739L136.534 437.718L140.904 442.912ZM135.306 436.991L131.794 444.211L125.882 438.931C128.981 438.361 132.122 437.718 135.306 436.991ZM130.823 445.238C126.539 446.123 122.355 446.865 118.243 447.493L124.926 439.973L130.823 445.224V445.238ZM123.583 439.345L116.73 447.065L112.175 441.072C115.901 440.601 119.714 440.03 123.583 439.359V439.345ZM115.559 447.892C110.847 448.549 106.249 449.048 101.794 449.405L110.932 441.785L115.559 447.878V447.892ZM109.176 441.4L100.295 448.791L92.7126 442.656C97.9958 442.456 103.493 442.042 109.162 441.4H109.176ZM22.6465 440.929L28.1724 436.748L31.585 443.583C28.101 442.656 25.1024 441.742 22.6465 440.929ZM29.2433 435.692C32.5702 436.62 36.397 437.576 40.6949 438.475L33.0557 443.326L29.2433 435.692ZM34.2409 444.268L41.0376 439.944L46.078 446.794C41.723 446.009 37.7677 445.138 34.2409 444.254V444.268ZM41.9086 438.717C46.2208 439.588 50.9756 440.401 56.1303 441.057L47.7772 446.694L41.9086 438.703V438.717ZM49.3621 447.364L57.0013 442.213L64.0265 449.234C58.7719 448.748 53.8742 448.106 49.3621 447.364ZM58.1293 441.314C62.3987 441.828 66.9393 442.227 71.7227 442.499L65.2973 448.477L58.1293 441.314ZM66.3682 449.433L72.7223 443.526L80.4471 450.118C75.5209 450.047 70.8232 449.804 66.3682 449.448V449.433ZM73.836 442.598C77.0916 442.741 80.4471 442.841 83.9169 442.841C85.5446 442.841 87.2153 442.813 88.8859 442.784L81.4038 449.048L73.836 442.598ZM90.8706 442.984L99.0667 449.633C93.2409 450.033 87.6722 450.175 82.3319 450.133L90.8706 442.984Z" fill="white"/>
<path d="M152.855 453.899L152.498 452.529C97.3672 471.778 35.2258 457.324 18.3768 452.715L18.1055 454.113C28.7575 457.01 56.8296 463.673 89.8708 463.673C109.975 463.673 131.922 461.191 152.855 453.899Z" fill="white"/>
<path d="M19.1619 448.748L18.8906 450.147C30.0852 453.143 57.6148 459.507 89.8849 459.507C109.675 459.507 131.236 457.096 151.883 450.061C151.769 449.619 151.655 449.162 151.527 448.691C97.4669 467.156 36.9819 453.529 19.1762 448.748H19.1619Z" fill="white"/>
<path d="M145.259 424.79C145.145 424.334 145.016 423.877 144.902 423.406C96.5252 439.545 40.6807 428.957 23.7889 425.076L23.5176 426.474C33.6841 428.8 57.6582 433.509 85.6875 433.509C104.707 433.509 125.583 431.326 145.259 424.79Z" fill="white"/>
<path d="M144.501 421.866C144.387 421.409 144.259 420.953 144.144 420.496C96.5102 436.078 41.8794 426.004 24.4022 422.037L24.1309 423.436C34.6115 425.804 58.2144 430.327 85.7154 430.327C104.492 430.327 125.068 428.201 144.516 421.852L144.501 421.866Z" fill="white"/>
<path d="M117.443 288.251C117.443 288.251 129.209 366.017 133.393 380.429C137.562 394.841 153.897 457.824 153.897 457.824C153.897 457.824 134.164 467.313 107.205 469.211C80.247 471.109 45.3353 468.826 35.0831 464.274C24.8309 459.722 17.6201 456.683 17.6201 456.683L28.6291 400.534C28.6291 400.534 52.5461 333.384 52.5461 318.216C52.5461 303.048 51.0325 287.494 59.7569 276.108C68.4813 264.721 78.7334 259.413 85.9442 261.696C93.155 263.979 117.458 288.251 117.458 288.251H117.443Z" stroke="#263238" stroke-linecap="round" stroke-linejoin="round"/>
<path d="M68.7526 578.839H99.1236L98.7381 602.354C98.7381 602.354 116.201 613.355 120.37 614.868C124.54 616.38 126.825 619.805 126.439 620.932C126.053 622.059 124.154 622.83 124.154 622.83H71.7797C71.7797 622.83 69.8806 617.893 70.6374 613.341C71.3941 608.789 73.2932 604.237 73.2932 604.237L68.7383 578.824L68.7526 578.839Z" fill="#651FFF" stroke="#263238" stroke-linecap="round" stroke-linejoin="round"/>
<path d="M74.5355 254.875C74.5355 254.875 53.6598 269.672 48.7194 285.982C43.7789 302.291 42.2653 332.642 41.123 339.476C39.9807 346.311 22.1465 409.281 22.1465 409.281C22.1465 409.281 36.9536 419.526 63.141 422.18C89.3283 424.834 118.186 418.384 119.328 418.384C120.47 418.384 109.833 287.509 110.218 286.367C110.604 285.226 88.9571 260.198 85.1589 256.773C81.3607 253.363 74.5355 254.875 74.5355 254.875Z" fill="white" stroke="#263238" stroke-linecap="round" stroke-linejoin="round"/>
<path d="M121.384 229.703C121.384 229.703 121.912 243.815 124.525 248.524C127.138 253.233 126.624 257.927 119.813 256.358C113.017 254.788 104.121 240.676 103.079 232.314C102.036 223.953 117.2 219.772 121.384 229.703Z" fill="#263238" stroke="#263238" stroke-linecap="round" stroke-linejoin="round"/>
<path d="M109.605 273.483L121.842 376.334L144.088 373.723L117.944 273.026C117.944 273.026 112.689 266.305 109.591 273.483H109.605Z" fill="#651FFF" stroke="#263238" stroke-linecap="round" stroke-linejoin="round"/>
<path d="M121.656 185.827C121.656 185.827 124.598 191.335 125.854 195.088C127.096 198.841 126.882 205.804 127.225 206.945C127.568 208.101 133.208 214.793 133.236 216.163C133.265 217.533 128.167 220.173 128.167 220.173C128.167 220.173 126.811 229.462 125.854 233.386C124.897 237.31 125.055 239.507 119.886 239.422C114.717 239.336 107.72 237.296 98.9814 232.772C90.2428 228.249 83.7602 221.671 82.061 212.653C80.3761 203.649 103.85 186.241 107.277 183.844C110.704 181.447 121.642 185.813 121.642 185.813L121.656 185.827Z" fill="white" stroke="#263238" stroke-linecap="round" stroke-linejoin="round"/>
<path d="M123.912 207.146C123.826 208.93 123.155 210.342 122.427 210.3C121.699 210.271 121.171 208.787 121.256 207.018C121.342 205.234 122.013 203.821 122.741 203.864C123.469 203.907 123.998 205.377 123.912 207.146Z" fill="#263238"/>
<path d="M117.758 202.822C117.758 202.822 120.314 196.287 124.298 198.57" stroke="#263238" stroke-linecap="round" stroke-linejoin="round"/>
<path d="M126.839 223.554C126.839 223.554 122.013 225.537 119.457 221.57" stroke="#263238" stroke-linecap="round" stroke-linejoin="round"/>
<path d="M78.5194 238.637C78.5194 238.637 123.141 250.166 122.427 255.389C121.713 260.611 120.628 275.836 114.773 276.607C108.919 277.377 64.5261 260.426 61.1992 259.341C57.8722 258.257 63.8979 243.032 67.2391 239.193C70.5803 235.355 78.5051 238.637 78.5051 238.637H78.5194Z" fill="#651FFF" stroke="#263238" stroke-linecap="round" stroke-linejoin="round"/>
<path d="M101.951 198.498C101.951 198.498 106.92 231.345 112.789 244.516C118.657 257.686 124.683 261.353 122.456 263.922C120.228 266.49 107.377 258.257 107.377 258.257C107.377 258.257 118.343 273.839 111.061 278.077C103.779 282.315 85.2021 273.168 81.3611 269.829L77.5201 266.49C77.5201 266.49 76.2922 276.436 63.6126 282.5C50.9187 288.564 33.4557 278.134 44.8502 263.979C56.2447 249.824 60.9853 233.5 58.972 223.654C56.9587 213.809 89.9856 187.44 101.965 198.498H101.951Z" fill="#263238" stroke="#263238" stroke-linecap="round" stroke-linejoin="round"/>
<path d="M66.168 306.456C69.0808 312.863 75.3492 318.699 80.1469 323.751C87.8004 331.813 96.9103 338.02 104.906 345.668C106.406 347.095 122.127 360.75 124.011 359.908C124.011 359.908 139.761 352.831 150.784 342.6C161.807 332.369 189.366 300.892 189.366 300.892C196.234 299.108 207.171 289.89 207.171 289.89L217.338 288.549C217.838 288.477 218.252 288.149 218.409 287.678C218.709 286.794 218.009 285.88 217.066 285.952L207.628 286.708L220.465 280.016C221.093 279.688 221.322 278.917 220.993 278.304C220.722 277.79 220.122 277.533 219.565 277.676L205.801 281.243L217.495 274.836C218.266 274.38 218.452 273.338 217.895 272.639C217.452 272.082 216.667 271.925 216.038 272.254L202.602 278.946L209.27 273.309L211.483 270.527C212.283 269.528 210.998 268.215 209.984 268.986L207.343 270.969C202.488 274.636 190.893 283.455 189.808 284.896C188.437 286.722 181.484 294.613 181.484 294.613C181.484 294.613 169.675 304.059 153.926 315.075C140.561 324.435 132.736 328.459 130.665 329.472C125.868 323.437 111.432 304.915 105.763 293.572C98.9093 279.873 85.6728 275.307 85.6728 275.307" fill="white"/>
<path d="M66.168 306.456C69.0808 312.863 75.3492 318.699 80.1469 323.751C87.8004 331.813 96.9103 338.02 104.906 345.668C106.406 347.095 122.127 360.75 124.011 359.908C124.011 359.908 139.761 352.831 150.784 342.6C161.807 332.369 189.366 300.892 189.366 300.892C196.234 299.108 207.171 289.89 207.171 289.89L217.338 288.549C217.838 288.477 218.252 288.149 218.409 287.678C218.709 286.794 218.009 285.88 217.066 285.952L207.628 286.708L220.465 280.016C221.093 279.688 221.322 278.917 220.993 278.304C220.722 277.79 220.122 277.533 219.565 277.676L205.801 281.243L217.495 274.836C218.266 274.38 218.452 273.338 217.895 272.639C217.452 272.082 216.667 271.925 216.038 272.254L202.602 278.946L209.27 273.309L211.483 270.527C212.283 269.528 210.998 268.215 209.984 268.986L207.343 270.969C202.488 274.636 190.893 283.455 189.808 284.896C188.437 286.722 181.484 294.613 181.484 294.613C181.484 294.613 169.675 304.059 153.926 315.075C140.561 324.435 132.736 328.459 130.665 329.472C125.868 323.437 111.432 304.915 105.763 293.572C98.9093 279.873 85.6728 275.307 85.6728 275.307" stroke="#263238" stroke-linecap="round" stroke-linejoin="round"/>
<path d="M219.566 277.662L205.801 281.229L217.495 274.823C218.266 274.366 218.452 273.324 217.895 272.625C217.452 272.069 216.667 271.912 216.039 272.24L202.602 278.932L209.27 273.296L211.484 270.513C212.283 269.514 210.998 268.202 209.984 268.972L207.343 270.956C202.488 274.623 190.894 283.441 189.808 284.882C188.438 286.709 181.484 294.599 181.484 294.599C181.484 294.599 169.675 304.046 153.926 315.061C147.857 319.313 142.931 322.453 139.176 324.721L148.785 344.384C149.471 343.799 150.128 343.214 150.784 342.615C161.808 332.384 189.366 300.906 189.366 300.906C196.234 299.123 207.171 289.905 207.171 289.905L217.338 288.564C217.838 288.492 218.252 288.164 218.409 287.693C218.709 286.809 218.009 285.895 217.067 285.967L207.628 286.723L220.465 280.031C221.093 279.703 221.322 278.932 220.993 278.318C220.722 277.805 220.122 277.548 219.566 277.691V277.662Z" fill="white" stroke="#263238" stroke-linecap="round" stroke-linejoin="round"/>
<path d="M58.972 223.654C58.972 223.654 49.3338 225.181 44.1221 219.53C38.9103 213.879 47.0778 206.816 55.4309 192.276C63.784 177.736 69.1957 164.009 85.4449 160.57C101.694 157.146 121.156 170.444 125.497 173.983C129.838 177.522 129.952 180.761 127.839 181.631C127.839 181.631 76.3351 202.093 59.4861 225.894" fill="#651FFF"/>
<path d="M58.972 223.654C58.972 223.654 49.3338 225.181 44.1221 219.53C38.9103 213.879 47.0778 206.816 55.4309 192.276C63.784 177.736 69.1957 164.009 85.4449 160.57C101.694 157.146 121.156 170.444 125.497 173.983C129.838 177.522 129.952 180.761 127.839 181.631C127.839 181.631 76.3351 202.093 59.4861 225.894" stroke="#263238" stroke-linecap="round" stroke-linejoin="round"/>
<path d="M84.1882 201.979L58.4863 213.223" stroke="#263238" stroke-linecap="round" stroke-linejoin="round"/>
<path d="M58.9574 228.59C58.9574 228.59 80.9325 209.241 101.979 200.537C123.026 191.833 130.908 191.034 130.951 188.152C130.994 185.269 127.838 181.631 127.838 181.631C127.838 181.631 93.7263 194.502 80.2329 204.59C66.7394 214.678 51.047 222.398 58.9431 228.576L58.9574 228.59Z" fill="#651FFF" stroke="#263238" stroke-linecap="round" stroke-linejoin="round"/>
<path d="M13.8936 622.844H679.286" stroke="#263238" stroke-linecap="round" stroke-linejoin="round"/>
</g>
<defs>
<clipPath id="clip0_1716_4698">
<rect width="680" height="624" fill="white"/>
</clipPath>
</defs>
</svg>
