<svg xmlns="http://www.w3.org/2000/svg" width="474" height="372" fill="none" viewBox="0 0 474 372">
  <g clip-path="url(#a)">
    <path fill="#00E5FF" d="M470.282 250.428s20.741-120.755-35.752-189.271c-49.868-60.474-128.823-84-193.177-33.986-22.936 17.821-39.617 52.42-66.405 63.105-30.034 11.991-68.651 16.267-96.542 67.655-27.892 51.387-17.877 117.328 19.308 152.437 37.185 35.109 102.261.851 160.897-1.713 58.636-2.563 180.916 90.785 211.671-58.239v.012Z"/>
    <path fill="#fff" d="M470.282 250.428s20.741-120.755-35.752-189.271c-49.868-60.474-128.823-84-193.177-33.986-22.936 17.821-39.617 52.42-66.405 63.105-30.034 11.991-68.651 16.267-96.542 67.655-27.892 51.387-17.877 117.328 19.308 152.437 37.185 35.109 102.261.851 160.897-1.713 58.636-2.563 180.916 90.785 211.671-58.239v.012Z" opacity=".8"/>
    <path fill="#fff" d="M266.402 64.307h48.317v15.154h-48.317c-2.153 0-3.903-1.93-3.903-4.304v-6.554c0-2.374 1.75-4.304 3.903-4.304v.008Zm48.317-18.95H269.37c-3.797 0-6.871 3.39-6.871 7.578 0 4.187 3.074 7.577 6.871 7.577h45.349V45.357Zm20.613-17.425h-16.488v50.765h16.488V27.932Zm20.611 0h-16.489v50.765h16.489V27.932Zm20.614 0h-16.489v50.765h16.489V27.932Z"/>
    <path fill="#000" d="M386.509 80.057H257.028v8.458h10.508v20.977h6.255V88.515h92.912v20.977h6.254V88.515h13.552v-8.458Zm-164.679 43.4c-2.151.68-4.302 1.804-5.845 2.508a115.271 115.271 0 0 0 3.087-2.611c4.683-4.085 9.056-8.557 13.245-13.221-4.93 5.22-10.137 10.146-15.684 14.527.669-1.351 1.451-2.94 2.007-4.529.988-2.86 1.235-5.731-1.245-7.274-3.046-1.896-6.751.93-5.763 5.788.689 3.438 2.408 6.06 3.355 7.297-3.602 2.735-7.348 5.243-11.259 7.433l-.37.205c.71-1.419 1.574-3.144 2.181-4.88.988-2.86 1.235-5.731-1.245-7.275-3.046-1.895-6.751.931-5.763 5.788.68 3.359 2.347 5.947 3.304 7.229-4.683 2.542-9.519 4.699-14.336 7.048-.236.113-.473.238-.699.352.874-1.067 1.831-2.27 2.614-3.541 1.564-2.531 2.408-5.266.319-7.4-2.563-2.621-6.762-.828-6.834 4.143-.051 3.461 1.04 6.423 1.698 7.898-4.456 2.327-8.788 5.051-12.76 8.353a.995.995 0 0 0-.124.114c.525-.931 1.05-1.918 1.472-2.917 1.183-2.769 1.615-5.618-.752-7.354-2.15-1.577-4.836-.613-5.824 1.986a3.617 3.617 0 0 0-1.246-1.305c-2.387-1.521-4.733.125-6.74 2.451a28.466 28.466 0 0 0-1.492 1.907 85.552 85.552 0 0 1 5.824-13.698c1.472.703 4.014 1.657 7.009 1.657 4.754-.012 6.761-4.37 4.425-7.082-1.894-2.202-4.57-1.362-7.091.238a27.957 27.957 0 0 0-2.408 1.748c2.418-4.006 5.156-7.785 8.202-11.247 1.183 1.056 3.592 2.894 6.771 3.757 4.621 1.26 7.523-2.44 5.856-5.697-1.358-2.644-4.137-2.542-6.936-1.657-1.338.42-2.676 1.021-3.88 1.577a112.894 112.894 0 0 1 3.89-3.938 129.769 129.769 0 0 1 5.352-4.743c1.214 1.066 3.571 2.825 6.658 3.665 4.62 1.26 7.523-2.44 5.855-5.697-1.358-2.644-4.137-2.542-6.936-1.657-.658.204-1.307.454-1.945.726 2.408-1.895 4.858-3.745 7.307-5.595a172.19 172.19 0 0 0 2.264-1.713c1.08.999 3.591 3.053 7.008 3.983 4.621 1.26 7.523-2.44 5.856-5.697-1.359-2.644-4.137-2.542-6.937-1.657-1.101.352-2.202.817-3.221 1.283.474-.364.937-.738 1.4-1.112.854-.681 1.708-1.385 2.552-2.1 1.05-.863 2.027-1.827 3.046-2.735a38.632 38.632 0 0 0 1.688-1.6c1.06.987 3.592 3.075 7.049 4.017 4.621 1.26 7.523-2.44 5.856-5.697-1.359-2.644-4.137-2.542-6.936-1.657-1.595.5-3.19 1.26-4.549 1.895a93.014 93.014 0 0 0 5.434-6.037c.113-.136.226-.295.339-.431a78.127 78.127 0 0 0 2.182-2.78 83.655 83.655 0 0 0 2.398-3.36c3.077-4.642 5.886-9.567 7.759-14.946-1.976 5.333-4.867 10.18-8.016 14.719-3.201 4.528-6.813 8.682-10.703 12.472l-.432.409c.741-1.487 1.718-3.382 2.377-5.277.988-2.86 1.235-5.732-1.245-7.275-3.046-1.895-6.751.93-5.763 5.788.782 3.847 2.84 6.684 3.663 7.694-.308.296-.607.59-.926.874-.36.33-.73.67-1.091.988a88.79 88.79 0 0 1-1.852 1.577c-.329.272-.669.567-.998.84-.885.715-1.791 1.43-2.696 2.122-.433.33-.865.647-1.297.976-.494.363-.988.738-1.482 1.101.72-1.453 1.647-3.257 2.274-5.073.988-2.86 1.235-5.731-1.245-7.275-3.046-1.895-6.751.931-5.763 5.788.731 3.598 2.583 6.31 3.489 7.48-.36.26-.731.533-1.091.794-1.348.976-2.707 1.952-4.065 2.928-.268.193-.525.385-.792.567-.762.545-1.513 1.112-2.264 1.668-.33.239-.659.477-.978.727-1.06.794-2.11 1.6-3.149 2.428.731-1.475 1.677-3.302 2.315-5.152.988-2.86 1.235-5.731-1.245-7.275-3.046-1.895-6.751.931-5.763 5.788.751 3.7 2.686 6.469 3.561 7.57-1.77 1.43-3.52 2.905-5.218 4.449a136.81 136.81 0 0 0-3.663 3.541c.504-1.045 1.008-2.157 1.389-3.28.988-2.86 1.235-5.731-1.245-7.275-3.046-1.895-6.751.931-5.763 5.788.679 3.359 2.346 5.958 3.303 7.229-3.375 3.689-6.411 7.763-9.087 12.109.278-1.214.546-2.53.69-3.813.329-3.041-.062-5.89-2.81-6.73-3.375-1.021-6.339 2.701-4.332 7.15 1.42 3.132 3.643 5.209 4.837 6.174-2.635 4.721-4.806 9.726-6.545 14.912a34.524 34.524 0 0 0-.289-3.246c-.463-3.018-1.574-5.629-4.414-5.572-3.499.068-5.393 4.574-2.316 8.205 1.986 2.35 4.405 3.643 5.866 4.268a113.659 113.659 0 0 0-2.892 12.279c-.123.658-.216 1.316-.329 1.963-.134.125-.247.25-.36.398-.134-.568-.268-1.147-.443-1.691-.875-2.906-2.346-5.3-5.145-4.756-3.448.67-4.683 5.436-1.143 8.501 2.151 1.861 4.549 2.735 6.103 3.143.041.114.082.216.123.329-.38 3.121-.668 6.265-.843 9.409a161.422 161.422 0 0 0-.247 7.07c-2.985 0-5.094 3.597-3.036 7.524.957 1.816 2.181 3.235 3.283 4.279.247 4.426.648 8.852 1.183 13.244-.813-.829-1.945-1.181-3.19-.817-1.883.567-2.727 2.224-3.026 4.278a4.354 4.354 0 0 0-.988 2.837 139.038 139.038 0 0 1-3.993-7.036c1.256-1.067 3.294-3.11 4.755-6.117 2.243-4.63-.288-8.636-3.561-7.66-2.665.794-3.252 3.79-3.169 7.002.03 1.214.164 2.463.308 3.631-.463-.885-.916-1.781-1.368-2.678-1.153-2.258-2.131-4.596-3.211-6.9a20.453 20.453 0 0 1-.741-1.714c1.41-.794 3.766-2.372 5.701-5.027 2.995-4.086 1.184-8.546-2.192-8.262-2.748.238-3.838 3.053-4.301 6.23-.206 1.385-.289 2.849-.33 4.177l-.977-2.497c-2.1-5.652-3.788-11.474-5.136-17.398 1.369-.533 4.178-1.861 6.607-4.562 3.345-3.722 1.955-8.364-1.43-8.455-2.758-.068-4.096 2.61-4.847 5.72-.412 1.691-.638 3.495-.834 5.062a173.208 173.208 0 0 1-1.873-10.294c-.36-2.145-.586-4.312-.833-6.48 1.276-.272 4.445-1.146 7.368-3.643 3.756-3.223 2.923-8.024-.422-8.591-2.727-.465-4.374 2.009-5.475 4.982-.72 1.941-1.214 4.086-1.626 5.777-.206-2.508-.442-5.017-.556-7.547-.246-5.198-.329-10.419.052-15.616-.525 5.186-.597 10.418-.494 15.638.031 2.406.185 4.801.319 7.207-.566-1.464-1.225-3.212-2.058-4.755-1.42-2.633-3.324-4.619-5.948-3.428-3.232 1.464-3.52 6.412.545 8.58 3.128 1.657 6.319 1.68 7.626 1.6.185 2.145.35 4.29.648 6.424.412 3.382.926 6.752 1.544 10.112-.649-1.203-1.379-2.531-2.213-3.7-1.719-2.406-3.828-4.108-6.298-2.554-3.036 1.918-2.737 6.866 1.544 8.421 3.097 1.124 6.082.817 7.502.556 1.194 5.981 2.727 11.894 4.682 17.648l.618 1.725a28.702 28.702 0 0 0-1.781-2.315c-1.924-2.202-4.188-3.666-6.504-1.839-2.85 2.247-2.099 7.138 2.306 8.217 3.066.749 5.907.181 7.347-.239.216.59.433 1.18.69 1.748 1.029 2.372 1.976 4.8 3.067 7.127.308.67.627 1.328.946 1.986a26.448 26.448 0 0 0-1.687-1.475c-2.275-1.759-4.734-2.735-6.7-.466-2.418 2.792-.844 7.445 3.653 7.593 2.83.091 5.3-.829 6.741-1.532 1.286 2.576 2.614 5.118 4.055 7.615.535.953 1.091 1.895 1.646 2.837-.802-.806-1.677-1.646-2.593-2.349-2.264-1.759-4.734-2.735-6.7-.466-2.418 2.792-.843 7.445 3.654 7.593 3.344.113 6.185-1.203 7.43-1.884a74.954 74.954 0 0 0 2.315 3.416c-1.677 2.145-1.132 5.788 2.275 7.388 1.883.885 3.756 1.203 5.258 1.282.206.182.422.364.649.545l.113.091c.782 3.268 1.657 6.514 2.552 9.737h-15.334v53.465h38.231v-53.465h-17.813c-1.534-5.776-2.82-10.804-3.067-10.951l-.545-.273c1.523-.59 3.591-1.645 5.505-3.45 3.623-3.404 2.594-8.16-.772-8.557-2.737-.329-4.281 2.225-5.268 5.243a34.35 34.35 0 0 0-.721 2.633c-.195-.806-.391-1.611-.576-2.417a239.267 239.267 0 0 1-1.544-7.184c1.554-.556 3.849-1.623 5.959-3.609 3.622-3.404 2.593-8.16-.772-8.557-2.738-.329-4.281 2.225-5.269 5.243a30.2 30.2 0 0 0-.731 2.679 220.013 220.013 0 0 1-.905-5.266c-.196-1.305-.381-2.61-.566-3.927a112.06 112.06 0 0 1-.072-5.595c.01-1.033.041-2.054.082-3.075 1.544.533 3.787 1.066 6.329.885 4.744-.341 6.504-4.823 4.024-7.377-2.017-2.077-4.642-1.044-7.07.726-1.101.806-2.161 1.76-3.118 2.656.298-4.381.874-8.727 1.79-12.994a76.219 76.219 0 0 1 1.997-7.434c1.533.579 3.982 1.26 6.792 1.056 4.744-.341 6.504-4.824 4.023-7.377-2.017-2.077-4.641-1.044-7.069.726a30.825 30.825 0 0 0-2.491 2.077c.926-2.372 1.976-4.687 3.19-6.889a50.063 50.063 0 0 1 8.995-11.893c1.163 1.18 3.355 3.053 6.308 4.119 4.518 1.635 7.667-1.815 6.216-5.197-1.173-2.747-3.952-2.872-6.803-2.225-1.08.25-2.181.602-3.2.976.021-.022.041-.045.072-.057 3.839-3.381 8.068-6.185 12.483-8.647.916 1.327 2.871 3.767 5.825 5.436 4.229 2.406 7.831-.443 6.895-4.029-.762-2.928-3.489-3.53-6.401-3.393-1.143.056-2.306.227-3.407.42 4.693-2.452 9.499-4.767 14.12-7.468h.01s.062-.045.103-.068c.957.919 3.56 3.166 7.183 4.142 4.62 1.26 7.523-2.44 5.855-5.697-1.358-2.644-4.137-2.542-6.936-1.657-.782.25-1.564.556-2.315.885a107.02 107.02 0 0 0 8.974-6.457c.154.182.247.284.247.284a.455.455 0 0 0 .051-.125c.916.885 3.55 3.189 7.235 4.199 4.62 1.26 7.522-2.44 5.855-5.697-1.358-2.645-4.137-2.542-6.936-1.657l-.031.023ZM148.929 227.65a81.37 81.37 0 0 1-2.727-3.779c.216-.216.442-.443.679-.692 1.451.51 2.84.726 4.013.783l.031.238.638-.136c.33 1.816.679 3.62 1.04 5.425-1.04-1.249-2.254-2.043-3.674-1.85v.011Zm3.406-43.296a91.821 91.821 0 0 0-.854 4.075 3.107 3.107 0 0 0-.165-.239c-.031-2.792.011-5.595.114-8.387.072-1.952.205-3.904.36-5.856a18.04 18.04 0 0 0 2.819 2.588 76.788 76.788 0 0 0-2.274 7.819Zm4.281-12.881c.062-.51.113-1.021.134-1.532.01-.261.021-.51.021-.771.37-.125.751-.273 1.132-.443a66.166 66.166 0 0 0-1.297 2.746h.01Zm5.434-9.726a3.492 3.492 0 0 0-1.914-1.974c-2.573-1.101-4.662.919-6.319 3.563a.85.85 0 0 0-.072.125c-.062-.011-.113-.034-.165-.045a2.803 2.803 0 0 0-.525-.08c.021-.159.042-.317.073-.476.668-4.143 1.543-8.262 2.665-12.291 1.595.216 4.271.34 7.142-.602 1.667-.544 2.83-1.543 3.499-2.678.545 2.894 1.78 5.198 2.573 6.458a50.82 50.82 0 0 0-6.947 8h-.01Z" opacity=".15"/>
    <path fill="#27007F" stroke="#27007F" stroke-linecap="round" stroke-linejoin="round" d="M217.737 120.865h203.058c5.026 0 9.104 4.497 9.104 10.04v157.157H208.633V130.905c0-5.543 4.078-10.04 9.104-10.04Z"/>
    <path fill="#fff" stroke="#27007F" stroke-linecap="round" stroke-linejoin="round" d="M463.092 361.98H175.449l33.183-73.918h221.277l33.183 73.918Z"/>
    <path fill="#651FFF" stroke="#27007F" stroke-linecap="round" stroke-linejoin="round" d="M416.511 134.105H222.042v140.718h194.469V134.105Z"/>
    <path fill="#27007F" stroke="#fff" stroke-linecap="round" stroke-linejoin="round" d="m310.042 311.452.388-9.007h-11.696l-.777 9.007h12.085Zm24.171 0-.4-9.007h-11.697l.012 9.007h12.085Zm62.928 9.636h12.496l-2.936-9.637h-12.085l2.525 9.637Z"/>
    <path fill="#27007F" stroke="#fff" stroke-linecap="round" stroke-linejoin="round" d="m297.958 311.452.777-9.007h-11.697l-1.165 9.007h12.085Zm-24.159 0 1.553-9.007h-11.696l-1.942 9.007h12.085Zm108.742 0-1.964-9.007H368.88l1.576 9.007h12.085Zm12.074 0-2.353-9.007h-11.685l1.965 9.007h12.073Zm-132.902 0 1.942-9.007H251.97l-2.342 9.007h12.085Zm84.573 0-.788-9.007h-11.686l.4 9.007h12.074Z"/>
    <path fill="#27007F" stroke="#fff" stroke-linecap="round" stroke-linejoin="round" d="m406.7 311.452-2.742-9.007h-11.696l2.353 9.007H406.7Zm-36.244 0-1.576-9.007h-11.686l1.177 9.007h12.085Z"/>
    <path fill="#27007F" stroke="#fff" stroke-linecap="round" stroke-linejoin="round" d="m358.371 311.452-1.176-9.007h-11.697l.788 9.007h12.085Zm-36.243 0-.011-9.007h-11.686l-.388 9.007h12.085Zm-84.584-.001h-12.073l-3.347 9.637h12.508l2.912-9.637Z"/>
    <path fill="#27007F" stroke="#fff" stroke-linecap="round" stroke-linejoin="round" d="M240.274 302.445h-11.685l-3.118 9.007h12.073l2.73-9.007Z"/>
    <path fill="#27007F" stroke="#fff" stroke-linecap="round" stroke-linejoin="round" d="m249.629 311.452 2.342-9.007h-11.697l-2.73 9.007h12.085Zm-31.081 19.954-3.838 11.085h13.433l3.358-11.085h-12.953Zm16.083-10.318h-12.508l-3.575 10.317h12.953l3.13-10.317Z"/>
    <path fill="#27007F" stroke="#fff" stroke-linecap="round" stroke-linejoin="round" d="m231.501 331.406-3.358 11.085h13.433l2.878-11.085h-12.953Zm54.371-19.954 1.166-9.007h-11.686l-1.553 9.007h12.073Z"/>
    <path fill="#27007F" stroke="#fff" stroke-linecap="round" stroke-linejoin="round" d="m284.627 321.088 1.245-9.637h-12.073l-1.668 9.637h12.496Zm-12.496 0 1.668-9.637h-12.085l-2.079 9.637h12.496Zm25.005 0 .822-9.637h-12.085l-1.245 9.637h12.508Zm-47.507-9.637h-12.085l-2.913 9.637h12.496l2.502-9.637Zm150.207 19.954h12.942l-3.141-10.317h-12.496l2.695 10.317Z"/>
    <path fill="#27007F" stroke="#fff" stroke-linecap="round" stroke-linejoin="round" d="m259.635 321.088 2.079-9.637h-12.086l-2.501 9.637h12.508Zm-25.003 0-3.13 10.317h12.953l2.673-10.317h-12.496Zm137.503 0-1.679-9.637h-12.085l1.268 9.637h12.496Z"/>
    <path fill="#27007F" stroke="#fff" stroke-linecap="round" stroke-linejoin="round" d="m359.639 321.088-1.268-9.637h-12.085l.845 9.637h12.508Zm37.502 0-2.524-9.637h-12.074l2.09 9.637h12.508Zm-75.012 0v-9.637h-12.085l-.411 9.637h12.496Zm25.002 0-.845-9.637h-12.074l.423 9.637h12.496Z"/>
    <path fill="#27007F" stroke="#fff" stroke-linecap="round" stroke-linejoin="round" d="m334.636 321.088-.423-9.637h-12.085v9.637h12.508Zm-25.004 0 .411-9.637h-12.085l-.822 9.637h12.496Zm37.499 0 .902 10.317h12.953l-1.347-10.317h-12.508Zm12.508 0 1.348 10.317h12.953l-1.805-10.317h-12.496Zm-112.512 0-2.673 10.317h12.942l2.239-10.317h-12.508Zm125.009 0 1.804 10.317h12.942l-2.25-10.317h-12.496Zm-50.008 0 .011 10.317h12.954l-.457-10.317h-12.508Z"/>
    <path fill="#27007F" stroke="#fff" stroke-linecap="round" stroke-linejoin="round" d="m384.632 321.088 2.25 10.317h12.953l-2.695-10.317h-12.508Zm-49.998 0 .457 10.317h12.941l-.902-10.317h-12.496Zm-62.502 0-1.782 10.317h12.941l1.337-10.317h-12.496Zm-12.498 0-2.238 10.317h12.953l1.782-10.317h-12.497Zm49.997 0-.434 10.317h12.942l-.011-10.317h-12.497Z"/>
    <path fill="#27007F" stroke="#fff" stroke-linecap="round" stroke-linejoin="round" d="m297.135 321.088-.891 10.317h12.953l.434-10.317h-12.496Zm-12.509 0-1.336 10.317h12.953l.891-10.317h-12.508Zm100.005 0-2.09-9.637h-12.085l1.679 9.637h12.496Zm-144.358-18.643 2.799-9.22h-11.297l-3.187 9.22h11.685Zm-11.685 0h-10.795l-3.483 9.007h11.159l3.119-9.007Z"/>
    <path fill="#27007F" stroke="#fff" stroke-linecap="round" stroke-linejoin="round" d="M231.774 293.225h-10.417l-3.564 9.22h10.794l3.187-9.22Zm-6.304 18.226h-11.16l-3.724 9.637h11.537l3.347-9.637Zm-3.346 9.637h-11.537l-3.986 10.317h11.948l3.575-10.317Zm-3.576 10.318H206.6l-4.284 11.085h12.394l3.838-11.085Zm200.236-19.955 3.347 9.637h11.068l-3.723-9.637h-10.692Z"/>
    <path fill="#27007F" stroke="#fff" stroke-linecap="round" stroke-linejoin="round" d="M425.731 331.405h11.457l-3.987-10.317h-11.068l3.598 10.317Zm3.859 11.086h11.88l-4.284-11.085h-11.457l3.861 11.085Zm-95.777-40.046-.412-9.22h-11.297l.012 9.22h11.697Zm84.972 9.007h10.692l-3.484-9.007h-10.338l3.13 9.007Zm-6.008 19.953h12.953l-3.598-10.317h-12.496l3.141 10.317Zm-160.808-28.96 2.387-9.22h-11.285l-2.799 9.22h11.697Z"/>
    <path fill="#27007F" stroke="#fff" stroke-linecap="round" stroke-linejoin="round" d="m403.959 302.445 2.741 9.007h12.085l-3.129-9.007h-11.697Zm22.033 0-3.563-9.22h-9.984l3.21 9.22h10.337Z"/>
    <path fill="#27007F" stroke="#fff" stroke-linecap="round" stroke-linejoin="round" d="m415.655 302.445-3.21-9.22h-11.297l2.81 9.22h11.697Zm-41.715 28.961 1.931 11.085h13.433l-2.422-11.085H373.94Zm42.218 11.085h13.433l-3.86-11.085h-12.954l3.381 11.085Z"/>
    <path fill="#27007F" stroke="#fff" stroke-linecap="round" stroke-linejoin="round" d="m403.96 302.445-2.81-9.22h-11.286l2.399 9.22h11.697Zm-4.125 28.961 2.89 11.085h13.433l-3.381-11.085h-12.942Z"/>
    <path fill="#27007F" stroke="#fff" stroke-linecap="round" stroke-linejoin="round" d="m386.883 331.406 2.421 11.085h13.422l-2.89-11.085h-12.953Zm22.753-10.318h12.496l-3.347-9.637H406.7l2.936 9.637Zm-110.902-18.643.788-9.22h-11.286l-1.199 9.22h11.697Zm93.528 0-2.399-9.22h-11.297l2.011 9.22h11.685Z"/>
    <path fill="#27007F" stroke="#fff" stroke-linecap="round" stroke-linejoin="round" d="m287.039 302.445 1.199-9.22h-11.297l-1.587 9.22h11.685Zm35.077 0-.011-9.22h-11.286l-.388 9.22h11.685Zm-46.764 0 1.588-9.22h-11.286l-1.999 9.22h11.697Z"/>
    <path fill="#27007F" stroke="#fff" stroke-linecap="round" stroke-linejoin="round" d="m263.656 302.445 1.999-9.22h-11.297l-2.387 9.22h11.685Zm46.775 0 .388-9.22h-11.296l-.789 9.22h11.697Zm70.146 0-2.011-9.22H367.27l1.61 9.22h11.697Z"/>
    <path fill="#27007F" stroke="#fff" stroke-linecap="round" stroke-linejoin="round" d="m368.88 302.445-1.61-9.22h-11.286l1.211 9.22h11.685Zm-23.382 0-.811-9.22h-11.286l.412 9.22h11.685Zm28.443 28.961H244.455l-2.879 11.085h134.295l-1.93-11.085Z"/>
    <path fill="#27007F" stroke="#fff" stroke-linecap="round" stroke-linejoin="round" d="m357.194 302.445-1.211-9.22h-11.296l.811 9.22h11.696Z"/>
    <path fill="#27007F" stroke="#27007F" stroke-linecap="round" stroke-linejoin="round" d="M463.229 361.979h-287.78v4.497h287.78v-4.497Z"/>
    <path fill="#000" d="M396.214 166.203v121.041l-31.903 45.865-5.357 2.217-163.663 26.629v5.921l-59.945 3.552V306.48h102.197V165.623l158.671.58Z" opacity=".15"/>
    <path fill="#fff" stroke="#27007F" stroke-linecap="round" stroke-linejoin="round" d="M98.588 293.49c-7.367.403-15.352 6.601-15.352 6.601L0 371.426h135.346s85.486-71.133 88.033-73.174c4.044-3.237 12.086-4.875 12.086-4.875l-3.804.101H98.588v.012Z"/>
    <path stroke="#27007F" stroke-linecap="round" stroke-linejoin="round" d="M410.035 166.312H228.862"/>
    <path fill="#fff" d="M382.714 123.258c-7.47 0-13.513 6.663-13.513 14.902v183.181c0 8.642-6.419 15.116-13.672 15.116-1.52 0-3.073-.277-4.615-.882L248.431 295.43a27.256 27.256 0 0 0-16.757-1.046V138.16c0-4.119 1.519-7.835 3.963-10.531 2.445-2.708 5.826-4.371 9.561-4.371h137.528-.012Z"/>
    <mask id="b" width="152" height="214" x="231" y="123" maskUnits="userSpaceOnUse" style="mask-type:luminance">
      <path fill="#fff" d="M382.716 123.256c-7.47 0-13.513 6.664-13.513 14.902v183.181c0 8.642-6.419 15.116-13.672 15.116-1.52 0-3.073-.277-4.615-.881l-102.483-40.146a27.256 27.256 0 0 0-16.757-1.046V138.158c0-4.119 1.519-7.835 3.963-10.531 2.445-2.708 5.826-4.371 9.561-4.371h137.528-.012Z"/>
    </mask>
    <g mask="url(#b)">
      <path fill="#651FFF" d="m261.021 300.352 89.895 35.208c1.542.605 3.096.882 4.615.882 7.253 0 13.673-6.475 13.673-15.116V300.34H261.021v.012Z"/>
      <path fill="#fff" d="m261.021 300.352 89.895 35.208c1.542.605 3.096.882 4.615.882 7.253 0 13.673-6.475 13.673-15.116V300.34H261.021v.012Z" opacity=".6"/>
      <path fill="#651FFF" d="m261.021 324.475 89.895 35.208c1.542.605 3.096.882 4.615.882 7.253 0 13.673-6.475 13.673-15.116v-20.986H261.021v.012Z"/>
    </g>
    <path stroke="#27007F" stroke-linecap="round" stroke-linejoin="round" d="M382.714 123.258c-7.47 0-13.513 6.663-13.513 14.902v183.181c0 8.642-6.419 15.116-13.672 15.116-1.52 0-3.073-.277-4.615-.882L248.431 295.43a27.256 27.256 0 0 0-16.757-1.046V138.16c0-4.119 1.519-7.835 3.963-10.531 2.445-2.708 5.826-4.371 9.561-4.371h137.528-.012Zm-145.215 170.23h-5.837"/>
    <path fill="#fff" d="M355.517 336.459H217.989c-1.507 0-3.061-.277-4.603-.882l-23.747-9.208 29.527-25.08c3.678-3.426 7.961-5.744 12.485-6.903a27.256 27.256 0 0 1 16.757 1.046l102.483 40.145c1.542.605 3.095.882 4.615.882h.011Z"/>
    <mask id="c" width="167" height="44" x="189" y="293" maskUnits="userSpaceOnUse" style="mask-type:luminance">
      <path fill="#fff" d="M355.518 336.461H217.99c-1.507 0-3.061-.277-4.603-.882l-23.747-9.208 29.527-25.08c3.678-3.426 7.961-5.744 12.485-6.903a27.256 27.256 0 0 1 16.757 1.046l102.483 40.145c1.542.605 3.095.882 4.615.882h.011Z"/>
    </mask>
    <g mask="url(#c)">
      <path fill="#651FFF" d="M355.518 336.461H217.99a12.56 12.56 0 0 1-4.603-.882L188.2 325.88l30.978-24.589c3.678-3.426 7.962-5.744 12.485-6.903a27.256 27.256 0 0 1 16.757 1.046l102.483 40.145c1.542.605 3.096.882 4.615.882Z"/>
      <path fill="#000" d="M355.518 336.461H217.99a12.56 12.56 0 0 1-4.603-.882L188.2 325.88l30.978-24.589c3.678-3.426 7.962-5.744 12.485-6.903a27.256 27.256 0 0 1 16.757 1.046l102.483 40.145c1.542.605 3.096.882 4.615.882Z" opacity=".2"/>
    </g>
    <path stroke="#27007F" stroke-linecap="round" stroke-linejoin="round" d="M355.517 336.459H217.989c-1.507 0-3.061-.277-4.603-.882l-23.747-9.208 29.527-25.08c3.678-3.426 7.961-5.744 12.485-6.903a27.256 27.256 0 0 1 16.757 1.046l102.483 40.145c1.542.605 3.095.882 4.615.882h.011Zm-137.527-.002h-.299m138.09 0h-.263"/>
    <path fill="#fff" d="M392.262 127.629c-2.444-2.708-5.814-4.371-9.549-4.371-14.072 0-13.513 14.902-13.513 14.902v28.053h27.026V138.16c0-4.119-1.519-7.835-3.964-10.531Z"/>
    <mask id="d" width="28" height="44" x="369" y="123" maskUnits="userSpaceOnUse" style="mask-type:luminance">
      <path fill="#fff" d="M392.263 127.627c-2.444-2.708-5.814-4.371-9.549-4.371-14.072 0-13.513 14.902-13.513 14.902v28.053h27.026v-28.053c0-4.119-1.519-7.835-3.964-10.531Z"/>
    </mask>
    <g mask="url(#d)">
      <path fill="#651FFF" d="M392.263 127.627c-2.444-2.708-5.814-4.371-9.549-4.371-14.072 0-13.513 14.902-13.513 14.902v28.053h27.026v-28.053c0-4.119-1.519-7.835-3.964-10.531Z"/>
      <path fill="#000" d="M392.263 127.627c-2.444-2.708-5.814-4.371-9.549-4.371-14.072 0-13.513 14.902-13.513 14.902v28.053h27.026v-28.053c0-4.119-1.519-7.835-3.964-10.531Z" opacity=".2"/>
    </g>
    <path stroke="#27007F" stroke-linecap="round" stroke-linejoin="round" d="M392.262 127.629c-2.444-2.708-5.814-4.371-9.549-4.371-14.072 0-13.513 14.902-13.513 14.902v28.053h27.026V138.16c0-4.119-1.519-7.835-3.964-10.531Z"/>
    <path fill="#000" d="M244.295 148.928v73.111h13.056v-79.725h-13.056v6.614Zm102.941-6.614h-89.724v6.878h102.506v-6.878h-12.782Z" opacity=".15"/>
    <path stroke="#27007F" stroke-linecap="round" stroke-linejoin="round" stroke-width=".25" d="M257.351 142.314h-13.056v6.891h13.056v-6.891Z"/>
    <path stroke="#27007F" stroke-linecap="round" stroke-linejoin="round" stroke-width=".25" d="M257.351 148.928h-13.056v6.89h13.056v-6.89Z"/>
    <path stroke="#27007F" stroke-linecap="round" stroke-linejoin="round" stroke-width=".25" d="M257.351 155.555h-13.056v6.89h13.056v-6.89Z"/>
    <path stroke="#27007F" stroke-linecap="round" stroke-linejoin="round" stroke-width=".25" d="M257.351 162.18h-13.056v6.89h13.056v-6.89Z"/>
    <path stroke="#27007F" stroke-linecap="round" stroke-linejoin="round" stroke-width=".25" d="M257.351 168.793h-13.056v6.89h13.056v-6.89Z"/>
    <path stroke="#27007F" stroke-linecap="round" stroke-linejoin="round" stroke-width=".25" d="M257.351 175.418h-13.056v6.89h13.056v-6.89Z"/>
    <path stroke="#27007F" stroke-linecap="round" stroke-linejoin="round" stroke-width=".25" d="M257.351 182.043h-13.056v6.89h13.056v-6.89Z"/>
    <path stroke="#27007F" stroke-linecap="round" stroke-linejoin="round" stroke-width=".25" d="M257.351 188.658h-13.056v6.891h13.056v-6.891Z"/>
    <path stroke="#27007F" stroke-linecap="round" stroke-linejoin="round" stroke-width=".25" d="M257.351 195.283h-13.056v6.891h13.056v-6.891Z"/>
    <path stroke="#27007F" stroke-linecap="round" stroke-linejoin="round" stroke-width=".25" d="M257.351 201.91h-13.056v6.891h13.056v-6.891Z"/>
    <path stroke="#27007F" stroke-linecap="round" stroke-linejoin="round" stroke-width=".25" d="M257.351 208.523h-13.056v6.891h13.056v-6.891Z"/>
    <path stroke="#27007F" stroke-linecap="round" stroke-linejoin="round" stroke-width=".25" d="M257.351 215.148h-13.056v6.891h13.056v-6.891Zm13.217-72.834h-13.056v6.891h13.056v-6.891Z"/>
    <path stroke="#27007F" stroke-linecap="round" stroke-linejoin="round" stroke-width=".25" d="M283.349 142.314h-13.056v6.891h13.056v-6.891Z"/>
    <path stroke="#27007F" stroke-linecap="round" stroke-linejoin="round" stroke-width=".25" d="M296.131 142.314h-13.056v6.891h13.056v-6.891Z"/>
    <path stroke="#27007F" stroke-linecap="round" stroke-linejoin="round" stroke-width=".25" d="M308.902 142.314h-13.056v6.891h13.056v-6.891Z"/>
    <path stroke="#27007F" stroke-linecap="round" stroke-linejoin="round" stroke-width=".25" d="M321.682 142.314h-13.056v6.891h13.056v-6.891Z"/>
    <path stroke="#27007F" stroke-linecap="round" stroke-linejoin="round" stroke-width=".25" d="M334.452 142.314h-13.056v6.891h13.056v-6.891Z"/>
    <path stroke="#27007F" stroke-linecap="round" stroke-linejoin="round" stroke-width=".25" d="M347.235 142.314h-13.056v6.891h13.056v-6.891Z"/>
    <path stroke="#27007F" stroke-linecap="round" stroke-linejoin="round" stroke-width=".25" d="M360.005 142.314h-13.056v6.891h13.056v-6.891Z"/>
    <path stroke="#27007F" stroke-linecap="round" stroke-linejoin="round" stroke-width=".25" d="M360.005 149.193H257.351v72.835h102.654v-72.835Zm-89.599 0v72.822m12.782-72.822v72.822m12.782-72.822v72.822m12.77-72.822v72.822m12.781-72.822v72.822m12.784-72.822v72.822m12.781-72.822v72.822m-89.735-66.197h102.586m-102.586 6.602h102.586m-102.586 6.6h102.586m-102.586 6.601h102.586m-102.586 6.602h102.586m-102.586 6.586h102.586m-102.586 6.603h102.586m-102.586 6.6h102.586m-102.586 6.599h102.586m-102.586 6.602h102.586"/>
    <path fill="#651FFF" d="M191.911 311.237H81.855l7.596-6.374h110.056l-7.596 6.374Z"/>
    <path fill="#651FFF" d="M23.61 362.279h-2.707l68.547-57.416h2.707l-68.546 57.416Z"/>
    <path fill="#27007F" d="M167.66 331.505H57.604l8.6-7.105h110.057l-8.601 7.105Z"/>
    <path stroke="#27007F" stroke-linecap="round" stroke-linejoin="round" stroke-width=".25" d="M130.617 362.581H20.561l68.889-57.718h110.056l-68.889 57.718Zm-29.824-57.503L32.2 362.544m79.649-57.466-68.604 57.466m79.65-57.466-68.592 57.466m79.649-57.466-68.593 57.466m79.65-57.466-68.604 57.466m79.649-57.466-68.592 57.466m79.651-57.466L98.52 362.544m79.649-57.466-68.604 57.466m79.65-57.466-68.593 57.466m-45.508-45.513H184.84m-118.487 7.344H176.08m-118.488 7.346h109.725m-118.497 7.33h109.737m-118.498 7.344h109.725M31.298 353.74h109.725"/>
    <path fill="#651FFF" d="M360.186 227.594H244.19v4.698h115.996v-4.698Z"/>
    <path fill="#651FFF" d="M247.035 227.594h-2.845v60.514h2.845v-60.514Z"/>
    <path stroke="#27007F" stroke-linecap="round" stroke-linejoin="round" stroke-width=".25" d="M360.186 227.594H244.19v60.829h115.996v-60.829Zm-103.773.226v60.565m11.65-60.565v60.565m11.652-60.565v60.565m11.65-60.565v60.565m11.652-60.565v60.565m11.639-60.565v60.565m11.652-60.565v60.565m11.65-60.565v60.565m11.651-60.565v60.565m-105.224-47.967h115.653m-115.653 7.746h115.653m-115.653 7.734h115.653m-115.653 7.735h115.653m-115.653 7.734h115.653m-115.653 7.735h115.653"/>
    <path fill="#27007F" stroke="#27007F" stroke-miterlimit="10" stroke-width=".5" d="M321.785 266.418h-4.832v12.446h4.832v-12.446Z"/>
    <path fill="#651FFF" stroke="#27007F" stroke-miterlimit="10" stroke-width=".5" d="M329.529 258.961h-4.832v19.915h4.832v-19.915Z"/>
    <path fill="#27007F" stroke="#27007F" stroke-miterlimit="10" stroke-width=".5" d="M337.262 246.516h-4.831v32.361h4.831v-32.361Z"/>
    <path fill="#651FFF" stroke="#27007F" stroke-miterlimit="10" stroke-width=".5" d="M344.996 258.596h-4.832v20.268h4.832v-20.268Z"/>
    <path fill="#27007F" stroke="#27007F" stroke-miterlimit="10" stroke-width=".5" d="M352.741 246.516h-4.832v32.361h4.832v-32.361Z"/>
    <path fill="#651FFF" stroke="#27007F" stroke-miterlimit="10" stroke-width=".5" d="M272.039 263.91v14.788c-7.402 0-13.41-6.626-13.41-14.788 0-8.163 6.008-14.789 13.41-14.789v14.789Z"/>
    <path fill="#fff" stroke="#27007F" stroke-miterlimit="10" stroke-width=".5" d="m272.039 263.909 12.759-4.573c2.285 7.772-1.565 16.111-8.613 18.63a11.662 11.662 0 0 1-4.146.718v-14.788.013Z"/>
    <path fill="#27007F" stroke="#27007F" stroke-miterlimit="10" stroke-width=".5" d="M272.039 263.91v-14.789c5.928 0 10.92 4.006 12.759 10.216l-12.759 4.573Z"/>
  </g>
  <defs>
    <clipPath id="a">
      <path fill="#fff" d="M0 0h474v372H0z"/>
    </clipPath>
  </defs>
</svg>
