<svg xmlns="http://www.w3.org/2000/svg" width="358" height="344" fill="none" viewBox="0 0 358 344">
  <g clip-path="url(#a)">
    <path fill="#651FFF" d="M16.801 153.916s-5.44 60.335 40.059 105.841c45.499 45.506 115.012 55.897 171.107 65.791 56.094 9.895 103.454-17.3 115.92-64.781 12.465-47.482-29.018-66.279-45.722-123.647-16.712-57.376-12.412-75.181-57.884-114.256-45.473-39.066-125.635-26.708-173.43 26.7C19.053 102.97 16.8 153.916 16.8 153.916Z"/>
    <path fill="#fff" d="M16.801 153.916s-5.44 60.335 40.059 105.841c45.499 45.506 115.012 55.897 171.107 65.791 56.094 9.895 103.454-17.3 115.92-64.781 12.465-47.482-29.018-66.279-45.722-123.647-16.712-57.376-12.412-75.181-57.884-114.256-45.473-39.066-125.635-26.708-173.43 26.7C19.053 102.97 16.8 153.916 16.8 153.916Z" opacity=".7"/>
    <path fill="#651FFF" d="M358 339.933c0 2.241-80.144 4.066-178.996 4.066C80.154 343.999 0 342.174 0 339.933c0-2.241 80.144-4.066 178.996-4.066 98.851 0 178.995 1.816 178.995 4.066H358Z"/>
    <path fill="#fff" d="M358 339.933c0 2.241-80.144 4.066-178.996 4.066C80.154 343.999 0 342.174 0 339.933c0-2.241 80.144-4.066 178.996-4.066 98.851 0 178.995 1.816 178.995 4.066H358Z" opacity=".6"/>
    <path fill="#651FFF" d="M293.607 198.349c-.054 0 .605-3.207.667-3.401.748-2.295 3.544-6.281 6.251-6.272 1.95 0 3.277 1.771 3.081 3.623-.196 1.896-1.906 3.508-3.455 4.438-1.816 1.09-6.544 1.612-6.553 1.612h.009Z"/>
    <path fill="#651FFF" d="M288.354 176.744c2.555.913 3.819 5.608 3.739 8.017 0 .213-.49 3.446-.534 3.429l-.053-.027c.204.744.418 1.532.632 2.409.383 1.622.801 3.446 1.122 5.475.32 2.02.623 4.225.721 6.573.107 2.356.089 4.837-.249 7.397a.307.307 0 0 1-.018.088c.338-.717 1.335-2.693 1.433-2.834 1.327-2.011 5.084-5.129 7.693-4.412 1.879.514 2.689 2.569 2.013 4.305-.695 1.772-2.77 2.879-4.506 3.375-1.959.558-6.331-.097-6.678-.15-.347 2.436-.908 4.899-1.611 7.37a95.922 95.922 0 0 1-1.318 4.225c.311-.611.587-1.151.641-1.222 1.327-2.011 5.084-5.129 7.693-4.411 1.879.513 2.689 2.568 2.012 4.305-.694 1.771-2.769 2.879-4.505 3.375-1.763.496-5.503.018-6.491-.124-.187.54-.365 1.081-.552 1.612-.9 2.578-1.799 5.147-2.609 7.689-.285.895-.534 1.79-.784 2.684.276-.54.508-.992.552-1.063 1.327-2.011 5.085-5.129 7.693-4.411 1.879.514 2.689 2.569 2.013 4.305-.695 1.772-2.769 2.879-4.506 3.375-1.683.478-5.137.062-6.313-.106-.231.921-.463 1.842-.641 2.746-.107.62-.258 1.213-.329 1.842-.089.62-.178 1.241-.258 1.843-.125 1.178-.259 2.392-.348 3.543-.071.798-.115 1.568-.169 2.339.276-.895.846-2.64.908-2.782.668-1.452 2.324-3.543 4.15-4.695.098-.212.213-.425.347-.62 1.077-1.523 3.241-2.002 4.719-.735 2.048 1.763 1.54 6.6.597 8.814-.054.133-.82 1.48-1.318 2.33.365-.452.721-.895 1.104-1.355.757-.922 1.531-1.807 2.368-2.773.419-.452.846-.904 1.274-1.364.418-.47.908-.904 1.371-1.364a62.052 62.052 0 0 1 3.419-3.03c-.81-.656-3.633-3.038-4.452-4.651-.81-1.612-1.389-3.88-.543-5.589.828-1.675 2.894-2.463 4.55-1.435 2.297 1.435 2.528 6.289 1.932 8.628-.036.141-.65 1.771-1.006 2.657.712-.584 1.424-1.178 2.163-1.745 2.146-1.648 4.363-3.251 6.571-4.854.677-.496 1.345-.992 2.013-1.489-.294-.23-3.713-2.985-4.621-4.792-.811-1.612-1.389-3.88-.544-5.59.829-1.674 2.894-2.462 4.55-1.435 2.298 1.435 2.529 6.29 1.933 8.628-.045.178-.935 2.516-1.194 3.101a110.015 110.015 0 0 0 4.337-3.34 55.368 55.368 0 0 0 5.36-4.969c-.134-.107-3.722-2.968-4.657-4.819-.81-1.613-1.389-3.88-.543-5.59.828-1.674 2.894-2.463 4.55-1.435 2.297 1.435 2.528 6.289 1.932 8.628-.036.151-.712 1.94-1.06 2.782.072.044.063.035.134.079 1.727-1.878 3.152-3.906 4.398-5.882a48.9 48.9 0 0 0 1.942-3.384c-.722-.46-4.007-2.622-5.031-4.199-.98-1.505-1.817-3.702-1.158-5.492.641-1.754 2.609-2.772 4.363-1.922 2.44 1.169 3.206 5.979 2.876 8.362-.018.133-.347 1.427-.605 2.374.258-.505.534-1.027.765-1.514.891-1.834 1.594-3.57 2.209-5.112.338-.877.632-1.683.89-2.436-.472-.824-2.324-4.163-2.502-5.997-.169-1.789.107-4.119 1.514-5.404 1.38-1.258 3.597-1.258 4.763.293 1.621 2.161.08 6.776-1.326 8.734-.125.168-2.324 2.605-2.351 2.569l-.027-.053c-.24.726-.498 1.515-.81 2.356-.579 1.559-1.247 3.313-2.101 5.182-.846 1.861-1.826 3.863-3.045 5.882-1.22 2.02-2.609 4.084-4.31 6.033l-.062.062a84.275 84.275 0 0 1 2.76-1.577c2.226-.948 7.087-1.488 8.868.55 1.282 1.461.819 3.623-.712 4.694-1.558 1.099-3.909.886-5.636.337-1.941-.611-5.227-3.561-5.485-3.791-1.638 1.833-3.473 3.587-5.431 5.262a98.038 98.038 0 0 1-3.437 2.799 41.51 41.51 0 0 1 1.211-.673c2.226-.948 7.087-1.489 8.868.549 1.282 1.461.819 3.623-.712 4.695-1.559 1.098-3.909.886-5.637.336-1.745-.549-4.594-3.011-5.342-3.667-.454.346-.899.7-1.353 1.045-2.173 1.657-4.354 3.305-6.438 4.979a72.254 72.254 0 0 0-2.146 1.807c.534-.301.98-.549 1.051-.585 2.226-.948 7.087-1.488 8.868.549 1.282 1.462.819 3.624-.712 4.695-1.558 1.099-3.909.886-5.636.337-1.665-.523-4.319-2.773-5.209-3.552-.704.647-1.407 1.284-2.066 1.94-.436.46-.89.868-1.3 1.346-.418.47-.828.939-1.237 1.4-.757.912-1.541 1.86-2.253 2.773-.499.629-.971 1.24-1.443 1.851.722-.593 2.173-1.736 2.298-1.816 2.056-1.276 6.776-2.533 8.85-.797 1.496 1.258 1.362 3.455.009 4.748-1.38 1.32-3.731 1.462-5.511 1.187-1.968-.31-5.53-2.613-5.966-2.906a129.525 129.525 0 0 0-2.208 2.968 166.456 166.456 0 0 0-5.547 8.132c-.045.071-.089.133-.134.204l-1.656-.797.258-.39a162.332 162.332 0 0 1 8.316-11.33c-.231-.248-1.531-1.683-2.573-3.172-1.905.745-5.868.771-6.384.771a163.95 163.95 0 0 0-.312 13.509v.275l-1.825-.877c.018-2.356.089-5.537.33-9.301.08-1.294.187-2.676.32-4.093-.507-.124-4.63-1.178-6.188-2.418-1.416-1.125-2.903-2.941-2.849-4.846.053-1.86 1.593-3.446 3.526-3.198 2.689.346 4.941 4.66 5.386 7.025.027.142.143 1.683.196 2.666.054-.576.107-1.142.169-1.736.116-1.178.276-2.347.437-3.614.098-.603.196-1.223.302-1.843.09-.62.259-1.258.383-1.887.33-1.461.73-2.932 1.167-4.402-1.033-.107-4.719-.541-6.286-1.435-1.567-.895-3.313-2.472-3.553-4.359-.232-1.851 1.051-3.649 3.001-3.694 2.706-.062 5.591 3.863 6.393 6.13.053.142.436 1.834.632 2.773.267-.886.534-1.763.837-2.649.872-2.551 1.834-5.102 2.787-7.662.293-.78.569-1.568.854-2.348-.365-.035-4.754-.451-6.517-1.461-1.567-.895-3.313-2.472-3.553-4.359-.231-1.851 1.051-3.649 3.001-3.694 2.707-.062 5.591 3.863 6.393 6.13.062.169.614 2.614.73 3.243.623-1.728 1.229-3.446 1.763-5.165.73-2.374 1.318-4.748 1.718-7.087-.169-.017-4.746-.434-6.553-1.461-1.567-.895-3.312-2.472-3.553-4.359-.231-1.851 1.051-3.649 3.001-3.694 2.707-.062 5.592 3.863 6.393 6.13.053.151.481 2.011.659 2.897h.151c.401-2.507.463-4.996.41-7.317-.027-1.346-.134-2.631-.258-3.88-.864.009-4.791.009-6.518-.744-1.656-.718-3.571-2.099-4.016-3.951-.436-1.816.641-3.738 2.574-4.004 2.688-.363 5.992 3.225 7.034 5.395.053.115.498 1.382.81 2.312a79.324 79.324 0 0 0-.196-1.683c-.276-2.02-.65-3.854-.997-5.475a91.9 91.9 0 0 0-.606-2.524c-.846-.426-4.247-2.197-5.413-3.632-1.14-1.4-2.191-3.499-1.737-5.342.454-1.807 2.298-3.03 4.141-2.374l.018-.027Z"/>
    <path fill="#651FFF" d="M337.361 218.317c-2.119-.089-6.357-2.25-6.357-2.25-.045-.027 2.279-2.348 2.439-2.472 1.897-1.497 6.438-3.295 8.699-1.807 1.63 1.072 1.746 3.278.561 4.713-1.211 1.47-3.535 1.878-5.342 1.807v.009Z"/>
    <g opacity=".5">
      <path fill="#fff" d="M293.607 198.349c-.054 0 .605-3.207.667-3.401.748-2.295 3.544-6.281 6.251-6.272 1.95 0 3.277 1.771 3.081 3.623-.196 1.896-1.906 3.508-3.455 4.438-1.816 1.09-6.544 1.612-6.553 1.612h.009Z"/>
      <path fill="#fff" d="M288.354 176.744c2.555.913 3.819 5.608 3.739 8.017 0 .213-.49 3.446-.534 3.429l-.053-.027c.204.744.418 1.532.632 2.409.383 1.622.801 3.446 1.122 5.475.32 2.02.623 4.225.721 6.573.107 2.356.089 4.837-.249 7.397a.307.307 0 0 1-.018.088c.338-.717 1.335-2.693 1.433-2.834 1.327-2.011 5.084-5.129 7.693-4.412 1.879.514 2.689 2.569 2.013 4.305-.695 1.772-2.77 2.879-4.506 3.375-1.959.558-6.331-.097-6.678-.15-.347 2.436-.908 4.899-1.611 7.37a95.922 95.922 0 0 1-1.318 4.225c.311-.611.587-1.151.641-1.222 1.327-2.011 5.084-5.129 7.693-4.411 1.879.513 2.689 2.568 2.012 4.305-.694 1.771-2.769 2.879-4.505 3.375-1.763.496-5.503.018-6.491-.124-.187.54-.365 1.081-.552 1.612-.9 2.578-1.799 5.147-2.609 7.689-.285.895-.534 1.79-.784 2.684.276-.54.508-.992.552-1.063 1.327-2.011 5.085-5.129 7.693-4.411 1.879.514 2.689 2.569 2.013 4.305-.695 1.772-2.769 2.879-4.506 3.375-1.683.478-5.137.062-6.313-.106-.231.921-.463 1.842-.641 2.746-.107.62-.258 1.213-.329 1.842-.089.62-.178 1.241-.258 1.843-.125 1.178-.259 2.392-.348 3.543-.071.798-.115 1.568-.169 2.339.276-.895.846-2.64.908-2.782.668-1.452 2.324-3.543 4.15-4.695.098-.212.213-.425.347-.62 1.077-1.523 3.241-2.002 4.719-.735 2.048 1.763 1.54 6.6.597 8.814-.054.133-.82 1.48-1.318 2.33.365-.452.721-.895 1.104-1.355.757-.922 1.531-1.807 2.368-2.773.419-.452.846-.904 1.274-1.364.418-.47.908-.904 1.371-1.364a62.052 62.052 0 0 1 3.419-3.03c-.81-.656-3.633-3.038-4.452-4.651-.81-1.612-1.389-3.88-.543-5.589.828-1.675 2.894-2.463 4.55-1.435 2.297 1.435 2.528 6.289 1.932 8.628-.036.141-.65 1.771-1.006 2.657.712-.584 1.424-1.178 2.163-1.745 2.146-1.648 4.363-3.251 6.571-4.854.677-.496 1.345-.992 2.013-1.489-.294-.23-3.713-2.985-4.621-4.792-.811-1.612-1.389-3.88-.544-5.59.829-1.674 2.894-2.462 4.55-1.435 2.298 1.435 2.529 6.29 1.933 8.628-.045.178-.935 2.516-1.194 3.101a110.015 110.015 0 0 0 4.337-3.34 55.368 55.368 0 0 0 5.36-4.969c-.134-.107-3.722-2.968-4.657-4.819-.81-1.613-1.389-3.88-.543-5.59.828-1.674 2.894-2.463 4.55-1.435 2.297 1.435 2.528 6.289 1.932 8.628-.036.151-.712 1.94-1.06 2.782.072.044.063.035.134.079 1.727-1.878 3.152-3.906 4.398-5.882a48.9 48.9 0 0 0 1.942-3.384c-.722-.46-4.007-2.622-5.031-4.199-.98-1.505-1.817-3.702-1.158-5.492.641-1.754 2.609-2.772 4.363-1.922 2.44 1.169 3.206 5.979 2.876 8.362-.018.133-.347 1.427-.605 2.374.258-.505.534-1.027.765-1.514.891-1.834 1.594-3.57 2.209-5.112.338-.877.632-1.683.89-2.436-.472-.824-2.324-4.163-2.502-5.997-.169-1.789.107-4.119 1.514-5.404 1.38-1.258 3.597-1.258 4.763.293 1.621 2.161.08 6.776-1.326 8.734-.125.168-2.324 2.605-2.351 2.569l-.027-.053c-.24.726-.498 1.515-.81 2.356-.579 1.559-1.247 3.313-2.101 5.182-.846 1.861-1.826 3.863-3.045 5.882-1.22 2.02-2.609 4.084-4.31 6.033l-.062.062a84.275 84.275 0 0 1 2.76-1.577c2.226-.948 7.087-1.488 8.868.55 1.282 1.461.819 3.623-.712 4.694-1.558 1.099-3.909.886-5.636.337-1.941-.611-5.227-3.561-5.485-3.791-1.638 1.833-3.473 3.587-5.431 5.262a98.038 98.038 0 0 1-3.437 2.799 41.51 41.51 0 0 1 1.211-.673c2.226-.948 7.087-1.489 8.868.549 1.282 1.461.819 3.623-.712 4.695-1.559 1.098-3.909.886-5.637.336-1.745-.549-4.594-3.011-5.342-3.667-.454.346-.899.7-1.353 1.045-2.173 1.657-4.354 3.305-6.438 4.979a72.254 72.254 0 0 0-2.146 1.807c.534-.301.98-.549 1.051-.585 2.226-.948 7.087-1.488 8.868.549 1.282 1.462.819 3.624-.712 4.695-1.558 1.099-3.909.886-5.636.337-1.665-.523-4.319-2.773-5.209-3.552-.704.647-1.407 1.284-2.066 1.94-.436.46-.89.868-1.3 1.346-.418.47-.828.939-1.237 1.4-.757.912-1.541 1.86-2.253 2.773-.499.629-.971 1.24-1.443 1.851.722-.593 2.173-1.736 2.298-1.816 2.056-1.276 6.776-2.533 8.85-.797 1.496 1.258 1.362 3.455.009 4.748-1.38 1.32-3.731 1.462-5.511 1.187-1.968-.31-5.53-2.613-5.966-2.906a129.525 129.525 0 0 0-2.208 2.968 166.456 166.456 0 0 0-5.547 8.132c-.045.071-.089.133-.134.204l-1.656-.797.258-.39a162.332 162.332 0 0 1 8.316-11.33c-.231-.248-1.531-1.683-2.573-3.172-1.905.745-5.868.771-6.384.771a163.95 163.95 0 0 0-.312 13.509v.275l-1.825-.877c.018-2.356.089-5.537.33-9.301.08-1.294.187-2.676.32-4.093-.507-.124-4.63-1.178-6.188-2.418-1.416-1.125-2.903-2.941-2.849-4.846.053-1.86 1.593-3.446 3.526-3.198 2.689.346 4.941 4.66 5.386 7.025.027.142.143 1.683.196 2.666.054-.576.107-1.142.169-1.736.116-1.178.276-2.347.437-3.614.098-.603.196-1.223.302-1.843.09-.62.259-1.258.383-1.887.33-1.461.73-2.932 1.167-4.402-1.033-.107-4.719-.541-6.286-1.435-1.567-.895-3.313-2.472-3.553-4.359-.232-1.851 1.051-3.649 3.001-3.694 2.706-.062 5.591 3.863 6.393 6.13.053.142.436 1.834.632 2.773.267-.886.534-1.763.837-2.649.872-2.551 1.834-5.102 2.787-7.662.293-.78.569-1.568.854-2.348-.365-.035-4.754-.451-6.517-1.461-1.567-.895-3.313-2.472-3.553-4.359-.231-1.851 1.051-3.649 3.001-3.694 2.707-.062 5.591 3.863 6.393 6.13.062.169.614 2.614.73 3.243.623-1.728 1.229-3.446 1.763-5.165.73-2.374 1.318-4.748 1.718-7.087-.169-.017-4.746-.434-6.553-1.461-1.567-.895-3.312-2.472-3.553-4.359-.231-1.851 1.051-3.649 3.001-3.694 2.707-.062 5.592 3.863 6.393 6.13.053.151.481 2.011.659 2.897h.151c.401-2.507.463-4.996.41-7.317-.027-1.346-.134-2.631-.258-3.88-.864.009-4.791.009-6.518-.744-1.656-.718-3.571-2.099-4.016-3.951-.436-1.816.641-3.738 2.574-4.004 2.688-.363 5.992 3.225 7.034 5.395.053.115.498 1.382.81 2.312a79.324 79.324 0 0 0-.196-1.683c-.276-2.02-.65-3.854-.997-5.475a91.9 91.9 0 0 0-.606-2.524c-.846-.426-4.247-2.197-5.413-3.632-1.14-1.4-2.191-3.499-1.737-5.342.454-1.807 2.298-3.03 4.141-2.374l.018-.027Z"/>
      <path fill="#fff" d="M337.361 218.317c-2.119-.089-6.357-2.25-6.357-2.25-.045-.027 2.279-2.348 2.439-2.472 1.897-1.497 6.438-3.295 8.699-1.807 1.63 1.072 1.746 3.278.561 4.713-1.211 1.47-3.535 1.878-5.342 1.807v.009Z"/>
    </g>
    <path fill="#651FFF" d="M312.625 271.087s-12.848-30.828-20.051-29.49c-7.195 1.338 12.34 49.147 12.34 49.147s-22.616-42.441-38.037-42.441c-15.422 0 5.654 46.914 25.189 62.549 0 0-30.843-33.059-48.838-25.911-17.995 7.149 35.981 40.661 35.981 40.661s-31.36-9.833-27.763-2.233c3.598 7.592 13.365 8.938 13.365 8.938l-35.473 1.79h123.373l-27.763-2.684s28.787-14.298 21.076-20.109c-7.711-5.811-24.673 6.706-24.673 6.706s29.303-32.165 23.649-44.23c-5.654-12.065-30.843 21.889-30.843 21.889s20.559-43.336 16.445-50.936c-4.113-7.592-17.995 26.363-17.995 26.363l.018-.009Z"/>
    <path fill="#fff" d="M312.625 271.087s-12.848-30.828-20.051-29.49c-7.195 1.338 12.34 49.147 12.34 49.147s-22.616-42.441-38.037-42.441c-15.422 0 5.654 46.914 25.189 62.549 0 0-30.843-33.059-48.838-25.911-17.995 7.149 35.981 40.661 35.981 40.661s-31.36-9.833-27.763-2.233c3.598 7.592 13.365 8.938 13.365 8.938l-35.473 1.79h123.373l-27.763-2.684s28.787-14.298 21.076-20.109c-7.711-5.811-24.673 6.706-24.673 6.706s29.303-32.165 23.649-44.23c-5.654-12.065-30.843 21.889-30.843 21.889s20.559-43.336 16.445-50.936c-4.113-7.592-17.995 26.363-17.995 26.363l.018-.009Z" opacity=".4"/>
    <path stroke="#27007F" stroke-linecap="round" stroke-linejoin="round" d="M316.739 272.717c-11.308 33.246-11.308 56.765-11.308 56.765s13.364.514 27.246-9.718"/>
    <path stroke="#27007F" stroke-linecap="round" stroke-linejoin="round" d="M311.084 290.61s-2.573-12.278-9.251-29.153"/>
    <path stroke="#27007F" stroke-linecap="round" stroke-linejoin="round" d="m277.668 271.174 28.786 42.45s19.536-16.362 26.213-25.575m-26.729 35.807s-30.327-14.324-42.667-22.501"/>
    <path fill="#27007F" d="m147.244 49.315-6.776-10.755H80.794v203.302h245.632V49.315H147.244Z"/>
    <path fill="#fff" d="M324.806 54.248H82.619v183.706h242.187V54.248Z"/>
    <mask id="b" width="243" height="184" x="82" y="54" maskUnits="userSpaceOnUse" style="mask-type:luminance">
      <path fill="#fff" d="M324.806 54.248H82.619v183.706h242.187V54.248Z"/>
    </mask>
    <g mask="url(#b)">
      <path fill="#00E5FF" d="M325.989 52.76h-5.618v186.523h5.618V52.76Z" opacity=".17"/>
      <path fill="#00E5FF" d="M325.989 159.674h-5.618v78.167h5.618v-78.167Z" opacity=".17"/>
      <path fill="#651FFF" d="M325.126 51.893H81.657v19.683h243.469V51.893Z"/>
      <path fill="#fff" d="M256.851 58.164h-101.14v11.233h101.14V58.164Zm-112.421 0h-15.885v11.233h15.885V58.164Z"/>
      <path fill="#00E5FF" d="M256.851 58.164h-13.187v11.233h13.187V58.164Z" opacity=".3"/>
      <path stroke="#fff" stroke-miterlimit="10" d="M248.873 65.56a2.887 2.887 0 0 0 2.894-2.878 2.887 2.887 0 0 0-2.894-2.88 2.887 2.887 0 0 0-2.894 2.88 2.887 2.887 0 0 0 2.894 2.879Z"/>
      <path stroke="#fff" stroke-linecap="round" stroke-linejoin="round" d="m250.93 64.719 2.706 2.684"/>
      <path fill="#00E5FF" d="M172.379 88.734h-20.88v20.773h20.88V88.734Z" opacity=".3"/>
      <path stroke="#27007F" stroke-linecap="round" stroke-linejoin="round" stroke-width="2" d="M177.498 91.871h16.935"/>
      <path stroke="#27007F" stroke-linecap="round" stroke-linejoin="round" stroke-width="2" d="M177.498 98.133h35.455m-35.455 3.73h50.423" opacity=".3"/>
      <path fill="#651FFF" d="M247.216 95.785h-15.36v6.662h15.36v-6.662Z"/>
      <path fill="#00E5FF" d="M264.16 95.785h-15.359v6.662h15.359v-6.662Zm-91.781 22.342h-20.88V138.9h20.88v-20.773Z" opacity=".3"/>
      <path stroke="#27007F" stroke-linecap="round" stroke-linejoin="round" stroke-width="2" d="M177.498 121.264h16.935"/>
      <path stroke="#27007F" stroke-linecap="round" stroke-linejoin="round" stroke-width="2" d="M177.498 127.535h35.455m-35.455 3.721h50.423" opacity=".3"/>
      <path fill="#651FFF" d="M247.216 125.178h-15.36v6.661h15.36v-6.661Z"/>
      <path fill="#00E5FF" d="M264.16 125.178h-15.359v6.661h15.359v-6.661Zm-91.781 22.342h-20.88v20.773h20.88V147.52Z" opacity=".3"/>
      <path stroke="#27007F" stroke-linecap="round" stroke-linejoin="round" stroke-width="2" d="M177.498 150.656h16.935"/>
      <path stroke="#27007F" stroke-linecap="round" stroke-linejoin="round" stroke-width="2" d="M177.498 156.928h35.455m-35.455 3.72h50.423" opacity=".3"/>
      <path fill="#651FFF" d="M247.216 154.57h-15.36v6.662h15.36v-6.662Z"/>
      <path fill="#00E5FF" d="M264.16 154.57h-15.359v6.662h15.359v-6.662Zm-91.781 22.342h-20.88v20.773h20.88v-20.773Z" opacity=".3"/>
      <path stroke="#27007F" stroke-linecap="round" stroke-linejoin="round" stroke-width="2" d="M177.498 180.049h16.935"/>
      <path stroke="#27007F" stroke-linecap="round" stroke-linejoin="round" stroke-width="2" d="M177.498 186.32h35.455m-35.455 3.721h50.423" opacity=".3"/>
      <path fill="#651FFF" d="M247.216 183.963h-15.36v6.661h15.36v-6.661Z"/>
      <path fill="#00E5FF" d="M264.16 183.963h-15.359v6.661h15.359v-6.661Zm-91.781 22.34h-20.88v20.773h20.88v-20.773Z" opacity=".3"/>
      <path stroke="#27007F" stroke-linecap="round" stroke-linejoin="round" stroke-width="2" d="M177.498 209.439h16.935"/>
      <path stroke="#27007F" stroke-linecap="round" stroke-linejoin="round" stroke-width="2" d="M177.498 215.711h35.455m-35.455 3.721h50.423" opacity=".3"/>
      <path fill="#651FFF" d="M247.216 213.354h-15.36v6.661h15.36v-6.661Z"/>
      <path fill="#00E5FF" d="M264.16 213.354h-15.359v6.661h15.359v-6.661Z" opacity=".3"/>
      <path stroke="#27007F" stroke-miterlimit="10" d="M155.355 79.53a1.936 1.936 0 0 0 1.941-1.93 1.936 1.936 0 0 0-1.941-1.932 1.936 1.936 0 0 0-1.941 1.931c0 1.067.869 1.931 1.941 1.931Z"/>
      <path stroke="#27007F" stroke-linecap="round" stroke-linejoin="round" d="m156.735 78.963 1.817 1.807"/>
      <path fill="#27007F" d="M164.152 80.142h-1.924l-.213.612a.705.705 0 0 1-.232.345.464.464 0 0 1-.32.106.76.76 0 0 1-.303-.097.391.391 0 0 1-.187-.275.878.878 0 0 1 .027-.425l1.193-3.074c.062-.186.133-.336.214-.46a.997.997 0 0 1 .249-.284c.089-.062.178-.106.258-.133a.988.988 0 0 1 .294-.035c.107 0 .205.009.294.035a.907.907 0 0 1 .258.133 1 1 0 0 1 .249.284c.08.124.143.283.214.46l1.193 3.074c.045.16.054.301.027.425a.42.42 0 0 1-.187.275.717.717 0 0 1-.303.097.463.463 0 0 1-.32-.106.65.65 0 0 1-.232-.345l-.214-.612h-.035Zm-.962-2.71-.721 2.037h1.442l-.721-2.037Zm3.001 3.614c-.08-.115-.116-.292-.116-.522v-3.34c0-.23.036-.398.116-.522.08-.125.205-.178.383-.178.187 0 .32.062.409.178.089.115.134.292.134.522v3.34c0 .23-.045.398-.134.522-.089.124-.222.178-.409.178-.178 0-.303-.062-.383-.178Zm1.879 0c-.08-.115-.116-.292-.116-.522v-3.34c0-.23.036-.398.116-.522.08-.125.205-.178.383-.178.187 0 .32.062.409.178.089.115.134.292.134.522v3.34c0 .23-.045.398-.134.522-.089.124-.222.178-.409.178-.178 0-.303-.062-.383-.178Zm3.81-.008c-.116-.124-.169-.284-.169-.496v-3.429c0-.212.071-.363.214-.47a.866.866 0 0 1 .534-.159h1.318c.213 0 .4.01.561.027.16.018.329.053.498.106.169.053.303.124.41.204a.97.97 0 0 1 .267.346c.071.141.098.31.098.504 0 .62-.347.993-1.051 1.117.178.035.321.062.428.106a.692.692 0 0 1 .276.195.9.9 0 0 1 .16.301c.035.115.062.266.089.452l.062.434c.036.336.009.576-.071.726-.08.15-.24.222-.472.222-.196 0-.347-.062-.445-.186-.098-.124-.16-.328-.187-.612l-.054-.425c-.026-.248-.089-.425-.204-.54-.116-.115-.294-.168-.552-.168h-.668v1.248c0 .222-.054.39-.169.505a.594.594 0 0 1-.437.178.558.558 0 0 1-.427-.178l-.009-.008Zm1.549-2.516c.134 0 .259 0 .357-.027.097-.026.204-.044.311-.088a.485.485 0 0 0 .241-.195.647.647 0 0 0 .089-.328.973.973 0 0 0-.027-.24.436.436 0 0 0-.08-.168c-.036-.044-.071-.088-.134-.115-.062-.026-.107-.053-.16-.07a.97.97 0 0 0-.196-.036c-.08-.009-.151-.018-.205-.018h-.73v1.294h.525l.009-.01Zm3.643 2.55a1.424 1.424 0 0 1-.624-.567c-.151-.257-.231-.567-.231-.94 0-.318.071-.602.213-.858.143-.257.348-.452.606-.603.258-.15.561-.221.899-.221.267 0 .499.044.704.124.204.08.365.204.48.345.116.142.205.32.268.505.062.186.089.39.089.612 0 .177-.107.265-.33.265h-1.896c.026.532.311.797.854.797.152 0 .303-.026.446-.088.142-.062.267-.133.374-.222.089-.053.178-.062.267-.008a.43.43 0 0 1 .196.248.289.289 0 0 1-.072.3 1.77 1.77 0 0 1-.213.17 1.937 1.937 0 0 1-.65.284 1.993 1.993 0 0 1-.472.043 2.13 2.13 0 0 1-.908-.186Zm1.522-1.807c-.018-.248-.071-.443-.169-.585-.098-.142-.258-.204-.49-.204a.602.602 0 0 0-.498.222.908.908 0 0 0-.196.567h1.353Zm1.532 1.595a.285.285 0 0 1-.116-.159.327.327 0 0 1 0-.186.368.368 0 0 1 .098-.16.275.275 0 0 1 .169-.079.36.36 0 0 1 .223.053c.018 0 .053.027.124.062.072.036.125.062.17.089.044.026.115.044.213.07.098.027.187.036.285.045.071 0 .143.009.223 0a1.81 1.81 0 0 0 .222-.035.357.357 0 0 0 .17-.098.249.249 0 0 0 .071-.177c0-.053-.036-.115-.098-.168a.651.651 0 0 0-.285-.124l-.454-.124a6.412 6.412 0 0 1-.41-.124 2.278 2.278 0 0 1-.311-.133.67.67 0 0 1-.241-.186.934.934 0 0 1-.187-.585c0-.319.134-.558.41-.735.276-.177.641-.248 1.104-.222.133 0 .258.027.374.053.116.027.214.054.276.08.062.027.142.062.24.107.08.035.134.088.169.15a.3.3 0 0 1 .045.186.483.483 0 0 1-.062.177.266.266 0 0 1-.152.107c-.062.017-.142 0-.231-.018a2.838 2.838 0 0 0-.668-.16h-.249a.54.54 0 0 0-.241.062c-.071.036-.107.089-.107.16 0 .08.027.142.089.186.063.044.152.08.285.106l.446.106c.187.045.338.098.463.142.124.044.231.115.338.186a.608.608 0 0 1 .223.275c.044.106.08.24.08.39 0 .239-.054.443-.187.61a1.082 1.082 0 0 1-.517.364 2.18 2.18 0 0 1-.748.097 2.355 2.355 0 0 1-1.246-.39Zm3.543.062c-.222-.222-.338-.532-.338-.921v-1.356c0-.23.045-.407.134-.522.089-.116.222-.178.409-.178.178 0 .303.062.383.178.08.115.116.292.116.522v1.347c0 .194.053.336.151.442.098.107.223.16.383.16.187 0 .347-.07.472-.213a.758.758 0 0 0 .196-.522v-1.214c0-.23.044-.407.133-.522.089-.116.223-.178.41-.178.178 0 .303.062.383.178.08.115.116.292.116.522v2.011c0 .195-.045.337-.125.425-.08.089-.214.142-.401.142-.338 0-.507-.195-.507-.576v-.035c-.098.221-.232.38-.401.487-.169.106-.401.16-.677.16-.329 0-.605-.116-.828-.337h-.009Zm3.9.124c-.08-.115-.116-.292-.116-.522v-3.34c0-.23.036-.398.116-.522.08-.125.205-.178.383-.178.187 0 .32.062.409.178.089.115.134.292.134.522v3.34c0 .23-.045.398-.134.522-.089.124-.222.178-.409.178-.178 0-.303-.062-.383-.178Zm2.2-.079c-.179-.195-.268-.505-.268-.948v-1.382h-.196c-.124 0-.213-.026-.276-.088-.062-.062-.089-.15-.089-.284 0-.23.116-.345.348-.345h.285l.071-.638c.035-.399.205-.602.498-.602.268 0 .41.221.41.655v.576h.401c.231 0 .347.124.347.363 0 .115-.027.204-.089.266-.062.062-.151.088-.276.088h-.383v1.161c0 .284.036.47.098.576.062.106.187.15.356.142h.187c.062-.01.116 0 .16.044a.357.357 0 0 1 .098.142.41.41 0 0 1 .018.186.385.385 0 0 1-.053.177.333.333 0 0 1-.134.115c-.151.062-.401.088-.757.088-.329 0-.578-.106-.756-.292Zm2.225-.107a.29.29 0 0 1-.116-.159.327.327 0 0 1 0-.186.378.378 0 0 1 .098-.16.278.278 0 0 1 .169-.079.36.36 0 0 1 .223.053c.018 0 .053.027.125.062.071.036.124.062.169.089.044.026.115.044.213.07.098.027.187.036.285.045.072 0 .143.009.223 0 .08-.009.151-.018.223-.035a.358.358 0 0 0 .169-.098.249.249 0 0 0 .071-.177c0-.053-.036-.115-.098-.168a.651.651 0 0 0-.285-.124l-.454-.124a6.412 6.412 0 0 1-.41-.124 2.389 2.389 0 0 1-.311-.133.67.67 0 0 1-.241-.186.934.934 0 0 1-.187-.585c0-.319.134-.558.41-.735.276-.177.641-.248 1.104-.222.134 0 .258.027.374.053.116.027.214.054.276.08.062.027.142.062.24.107a.354.354 0 0 1 .17.15.305.305 0 0 1 .044.186.483.483 0 0 1-.062.177.266.266 0 0 1-.152.107c-.062.017-.142 0-.231-.018a2.827 2.827 0 0 0-.668-.16h-.249a.543.543 0 0 0-.241.062c-.071.036-.106.089-.106.16 0 .08.026.142.089.186a.73.73 0 0 0 .285.106l.445.106c.187.045.338.098.463.142.124.044.231.115.338.186a.608.608 0 0 1 .223.275c.044.106.08.24.08.39 0 .239-.054.443-.187.61a1.082 1.082 0 0 1-.517.364 2.18 2.18 0 0 1-.748.097 2.358 2.358 0 0 1-1.246-.39Z"/>
      <path stroke="#27007F" stroke-linecap="round" stroke-linejoin="round" d="M151.25 83.941h118.253M146.122 73.313v154.305M274.427 73.313v154.305M143.619 83.65H92.065" opacity=".3"/>
      <path stroke="#27007F" stroke-linecap="round" stroke-linejoin="round" stroke-width="2" d="M97.817 98.133h26.392m-26.392 3.73h37.53m-37.53 14.635h26.392m-26.392 3.729h37.53m-37.53 14.634h26.392m-26.392 3.729h37.53m-37.53 14.635h26.392m-26.392 3.728h37.53m-37.53 14.635h26.392m-26.392 3.728h37.53m-37.53 14.635h26.392m-26.392 3.731h37.53m-37.53 14.632h26.392m-26.392 3.731h37.53" opacity=".3"/>
    </g>
    <path stroke="#27007F" stroke-linecap="round" stroke-linejoin="round" d="M324.806 54.248H82.619v183.706h242.187V54.248Z"/>
    <path fill="#27007F" stroke="#27007F" stroke-linecap="round" stroke-linejoin="round" d="M33.46 331.022s-.418 1.861-5.2 4.341c-4.78 2.48-10.186 5.997-7.488 7.45 2.698 1.453 12.27-1.86 14.968-4.341 2.698-2.48 5.823-3.933 5.823-5.997s-2.493-3.313-4.577-3.313c-2.083 0-2.911.824-3.534 1.86h.009Z"/>
    <path fill="#27007F" stroke="#27007F" stroke-linecap="round" stroke-linejoin="round" d="M37.619 321.102c-1.247 3.72-4.577 5.793-4.577 6.83 0 1.036.419 3.1.419 3.1s2.493 1.444 4.78 1.86c2.29.417 3.33-.416 3.33-.416s2.494-1.86 3.117-2.48c.624-.62 2.289-1.657 2.084-3.721-.205-2.064-1.042-2.897-.205-4.757.837-1.86 18.502-30.402 18.502-30.402l-14.558-5.581S38.865 317.39 37.62 321.111v-.009Zm69.646 13.233s13.098 5.997 13.303 7.45c.205 1.453-9.145 1.656-13.303 1.24-4.158-.416-6.865-3.933-6.865-3.933s1.452-5.377 6.865-4.757Z"/>
    <path fill="#27007F" stroke="#27007F" stroke-linecap="round" stroke-linejoin="round" d="M88.14 285.934s5.404 33.511 7.488 39.925c2.083 6.413-.623 5.793.418 7.654 1.042 1.86 4.363 5.58 4.363 5.58s3.74-3.313 5.405-3.516c1.665-.204 2.912-.417 2.912-.417s-.829-4.137-1.452-4.96c-.623-.824-1.042-3.721-1.665-5.998-.623-2.276-1.665-39.925-1.665-39.925s-11.433 2.073-15.804 1.657Z"/>
    <path fill="#651FFF" d="M66.307 145.482s-3.116 2.072-8.111 6.617c-4.995 4.544-13.303 11.17-13.721 12.614-.419 1.444 5.61 28.542 7.898 37.232 2.288 8.69 2.911 48.607 0 62.257-2.912 13.651-7.693 25.238-7.693 25.238s8.94 6.83 21.832 6.21c12.893-.62 18.716-4.137 25.154-3.517 6.446.62 13.721.416 17.051-3.933 3.33-4.35 6.865-5.997 8.939-8.69 2.075-2.693 2.084-5.794 2.084-5.794s-1.87-7.033-8.735-29.162c-6.865-22.128-6.865-51.715-8.112-57.916-1.246-6.201-4.158-25.025-7.07-30.199-2.91-5.173-14.762-9.097-20.585-10.134-5.823-1.036-6.865-1.86-8.94-.823h.01Z"/>
    <mask id="c" width="76" height="151" x="44" y="145" maskUnits="userSpaceOnUse" style="mask-type:luminance">
      <path fill="#fff" d="M66.307 145.482s-3.116 2.072-8.111 6.617c-4.995 4.544-13.303 11.17-13.721 12.614-.419 1.444 5.61 28.542 7.898 37.232 2.288 8.69 2.911 48.607 0 62.257-2.912 13.651-7.693 25.238-7.693 25.238s8.94 6.83 21.832 6.21c12.893-.62 18.716-4.137 25.154-3.517 6.446.62 13.721.416 17.051-3.933 3.33-4.35 6.865-5.997 8.939-8.69 2.075-2.693 2.084-5.794 2.084-5.794s-1.87-7.033-8.735-29.162c-6.865-22.128-6.865-51.715-8.112-57.916-1.246-6.201-4.158-25.025-7.07-30.199-2.91-5.173-14.762-9.097-20.585-10.134-5.823-1.036-6.865-1.86-8.94-.823h.01Z"/>
    </mask>
    <g mask="url(#c)">
      <path fill="#000" d="M49.87 144.242h-3.15v155.962h3.152V144.242Zm10.846 0h-3.151v155.962h3.151V144.242Zm10.854 0h-3.152v155.962h3.152V144.242Zm10.854 0H79.27v155.962h3.153V144.242Zm10.846 0h-3.153v155.962h3.152V144.242Zm10.853 0h-3.152v155.962h3.152V144.242Zm10.853 0h-3.152v155.962h3.152V144.242Z" opacity=".15"/>
      <path stroke="#fff" stroke-miterlimit="10" d="M40.335 147.768c27.22.203 53.833.203 81.088.115m-81.088 1.621c27.22.115 53.833.115 81.088.062m-81.088 7.254c27.22.248 53.833.248 81.088.142m-81.088 1.595c27.22.159 53.833.159 81.088.088m-81.088 7.23c27.22.292 53.833.292 81.088.168m-81.088 1.568c27.22.213 53.833.213 81.088.115m-81.088 7.202c27.22.345 53.833.345 81.088.195m-81.088 1.551c27.22.257 53.833.257 81.088.142m-81.088 7.164c27.22.39 53.833.39 81.088.222m-81.088 1.525c27.22.301 53.833.301 81.088.168m-81.088 7.139c26.391-.39 53.833-.39 80.509-.222m-80.509 1.967c27.22.355 53.833.355 81.088.195m-81.088 7.114c27.22-.346 53.833-.346 81.088-.195m-81.088 1.939c27.22.399 53.833.399 81.088.221m-81.088 7.089c27.22-.301 53.833-.301 81.088-.168m-81.088 1.913c27.22-.381 53.833-.381 81.088-.213m-81.088 7.529c27.22-.248 53.833-.248 81.088-.141m-81.088 1.877c27.22-.337 53.833-.337 81.088-.186m-81.088 7.504c27.22-.203 53.833-.203 81.088-.115m-81.088 1.851c27.22-.292 53.833-.292 81.088-.159m-81.088 7.476c27.22-.16 53.833-.16 81.088-.089m-81.088 1.826c27.22-.24 53.833-.24 81.088-.133m-81.088 7.449c27.22-.106 53.833-.106 81.088-.062m-81.088 1.798c27.22-.195 53.833-.195 81.088-.106m-81.088 7.425c27.22-.062 53.833-.062 81.088-.036m-81.088 1.781c27.22-.151 53.833-.151 81.088-.08m-81.088 7.387c27.22-.017 53.833-.017 81.088 0m-81.088 1.744c27.22-.097 53.833-.097 81.088-.053m-81.088 7.362c27.22.036 53.833.036 81.088.018m-81.088 1.728c27.22-.054 53.833-.054 81.088-.027m-81.088 7.334c27.22.08 53.833.08 81.088.044m-81.088 1.702h81.088m-81.088 7.309c27.22.124 53.833.124 81.088.071m-81.088 1.673c27.22.035 53.833.035 81.088.018"/>
      <path fill="#000" d="m71.988 198.439.552 3.313s-11.361.275-13.863.275h-3.882l1.113 16.547s1.389 11.862 2.769 28.135c1.389 16.273-3.606 39.437-3.606 42.192 0 2.755-2.77 5.794 3.882 7.167 6.651 1.382 15.52 1.107 16.908-2.48 1.39-3.588 6.928-32.821 5.823-26.478-1.112 6.342-6.65 28.409-2.769 29.507 3.882 1.107 14.14-3.029 20.791-2.755 6.651.275 12.474-1.931 13.026-4.686.553-2.755-3.33-28.134-3.33-28.134l8.317 22.89s1.113 1.382-4.434 7.999c-5.548 6.617-30.496 8.823-43.799 8.823-13.302 0-29.659-9.656-29.659-9.656s14.416-23.723 11.647-43.574c-2.77-19.861-2.494-54.887-2.494-54.887s7.489 2.205 12.75 2.205c5.263 0 10.258 3.588 10.258 3.588v.009Zm12.083-32.662 6.197 37.781s6.465-.69 8.913-2.781c2.449-2.091 3.491-8.345 3.491-8.345l-7.337-29.383-11.264 2.728Z" opacity=".3"/>
    </g>
    <path stroke="#27007F" stroke-linecap="round" stroke-linejoin="round" d="M66.307 145.482s-3.116 2.072-8.111 6.617c-4.995 4.544-13.303 11.17-13.721 12.614-.419 1.444 5.61 28.542 7.898 37.232 2.288 8.69 2.911 48.607 0 62.257-2.912 13.651-7.693 25.238-7.693 25.238s8.94 6.83 21.832 6.21c12.893-.62 18.716-4.137 25.154-3.517 6.446.62 13.721.416 17.051-3.933 3.33-4.35 6.865-5.997 8.939-8.69 2.075-2.693 2.084-5.794 2.084-5.794s-1.87-7.033-8.735-29.162c-6.865-22.128-6.865-51.715-8.112-57.916-1.246-6.201-4.158-25.025-7.07-30.199-2.91-5.173-14.762-9.097-20.585-10.134-5.823-1.036-6.865-1.86-8.94-.823h.01Z"/>
    <path fill="#fff" stroke="#27007F" stroke-miterlimit="10" d="m67.332 168.575 11.77 16.504 6.91-20.88s-.48-9-3.989-12.162c-3.508-3.163-7.426-7.813-13.284-3.703-5.86 4.11-4.782 9.514-4.515 12.419.267 2.906 3.108 7.814 3.108 7.814v.008Z"/>
    <path fill="#27007F" stroke="#27007F" stroke-miterlimit="10" d="m71.668 162.083 3.455 3.968-.793 12.163 4.782 6.865 3.187-8.716-4.256-10.312.534-6.342-4.247-3.703-2.662 6.077Z"/>
    <path fill="#fff" stroke="#27007F" stroke-miterlimit="10" d="m74.793 160.586-7.461 7.99s-3.873-11.986-4.443-16.131c-.57-4.146.72-4.997 2.867-6.281 2.145-1.284 5.538-.735 8.174-.142 2.635.594 4.015 1.71 4.594 2.853.579 1.142 6.74 16.131 6.74 16.131l-10.47-4.42Z"/>
    <path stroke="#27007F" stroke-miterlimit="10" d="M79.165 182.484c4.906 24.955 10.854 67.67 5.298 109.73"/>
    <path fill="#27007F" d="M83.456 193.07c.684 0 1.238-.551 1.238-1.231s-.554-1.232-1.238-1.232c-.683 0-1.237.552-1.237 1.232 0 .68.554 1.231 1.237 1.231Zm3.554 27.895c.683 0 1.237-.552 1.237-1.232 0-.68-.554-1.231-1.238-1.231-.683 0-1.237.551-1.237 1.231s.554 1.232 1.237 1.232Z"/>
    <path fill="#fff" d="M62.043 139.831s2.226 4.633 2.43 7.477c.205 2.843 7.204 13.163 9.634 13.163 2.431 0 2.333-7.795 2.013-11.268-.32-3.472.632-5.368.952-5.793.321-.425-4.443-1.683-7.408-3.898-2.965-2.214-5.395-2.524-6.562-2.108-1.166.416-1.06 2.418-1.06 2.418v.009Z"/>
    <mask id="d" width="16" height="24" x="62" y="137" maskUnits="userSpaceOnUse" style="mask-type:luminance">
      <path fill="#fff" d="M62.043 139.831s2.226 4.633 2.43 7.477c.205 2.843 7.204 13.163 9.634 13.163 2.431 0 2.333-7.795 2.013-11.268-.32-3.472.632-5.368.952-5.793.321-.425-4.443-1.683-7.408-3.898-2.965-2.214-5.395-2.524-6.562-2.108-1.166.416-1.06 2.418-1.06 2.418v.009Z"/>
    </mask>
    <g mask="url(#d)">
      <path fill="#651FFF" d="M69.664 139.512c-2.965-2.214-5.395-2.524-6.562-2.108-1.166.416-1.06 2.418-1.06 2.418s2.227 4.633 2.431 7.477c0 .035.01.071.018.097 1.879.736 3.954 1.055 6.188 1.267 2.048.195 3.945-.071 5.396-.398-.089-2.879.712-4.483.997-4.864.321-.425-4.443-1.683-7.408-3.897v.008Z"/>
      <path fill="#fff" d="M69.664 139.512c-2.965-2.214-5.395-2.524-6.562-2.108-1.166.416-1.06 2.418-1.06 2.418s2.227 4.633 2.431 7.477c0 .035.01.071.018.097 1.879.736 3.954 1.055 6.188 1.267 2.048.195 3.945-.071 5.396-.398-.089-2.879.712-4.483.997-4.864.321-.425-4.443-1.683-7.408-3.897v.008Z" opacity=".5"/>
    </g>
    <path stroke="#27007F" stroke-linecap="round" stroke-linejoin="round" d="M62.043 139.831s2.226 4.633 2.43 7.477c.205 2.843 7.204 13.163 9.634 13.163 2.431 0 2.333-7.795 2.013-11.268-.32-3.472.632-5.368.952-5.793.321-.425-4.443-1.683-7.408-3.898-2.965-2.214-5.395-2.524-6.562-2.108-1.166.416-1.06 2.418-1.06 2.418v.009Z"/>
    <path fill="#27007F" stroke="#27007F" stroke-linecap="round" stroke-linejoin="round" d="M57.172 136.978s3.49 3.579 5.396 4.004c1.906.425 3.286-1.054 2.538-2.525-.748-1.47-.32-3.685 1.905-3.366 2.226.319 4.025-1.577 3.286-4.11-.74-2.534-1.906-4.952-4.657-4.421-2.751.532-11.112 5.687-8.468 10.427v-.009Z"/>
    <path fill="#fff" d="M80.251 122.972s1.692 3.685 3.286 5.165c1.594 1.479 2.965 1.16 2.43 2.321-.534 1.16-2.858 2.631-2.858 2.631s.214 5.27 0 7.795c-.213 2.525 0 3.269-2.332 3.685-2.333.417-5.93.213-9.528-1.054-3.597-1.267-4.87-3.898-4.87-3.898s-.953.107-2.965-.319c-2.012-.425-3.704-4.633-2.538-6.218 1.167-1.586 3.598-1.373 4.345-.523.748.851 1.585 1.683 2.226 1.683s1.906-.522 1.167-1.895c-.74-1.373-1.585-2.525-.428-3.473 1.158-.948 10.16-6.006 12.074-5.9h-.009Z"/>
    <mask id="e" width="27" height="23" x="60" y="122" maskUnits="userSpaceOnUse" style="mask-type:luminance">
      <path fill="#fff" d="M80.251 122.972s1.692 3.685 3.286 5.165c1.594 1.479 2.965 1.16 2.43 2.321-.534 1.16-2.858 2.631-2.858 2.631s.214 5.27 0 7.795c-.213 2.525 0 3.269-2.332 3.685-2.333.417-5.93.213-9.528-1.054-3.597-1.267-4.87-3.898-4.87-3.898s-.953.107-2.965-.319c-2.012-.425-3.704-4.633-2.538-6.218 1.167-1.586 3.598-1.373 4.345-.523.748.851 1.585 1.683 2.226 1.683s1.906-.522 1.167-1.895c-.74-1.373-1.585-2.525-.428-3.473 1.158-.948 10.16-6.006 12.074-5.9h-.009Z"/>
    </mask>
    <g mask="url(#e)">
      <path fill="#651FFF" d="M80.251 122.972c-1.905-.106-10.907 4.952-12.073 5.9-1.167.948-.32 2.108.427 3.473.74 1.373-.525 1.895-1.166 1.895-.641 0-1.478-.841-2.226-1.683-.748-.841-3.18-1.054-4.345.523-1.167 1.577.525 5.793 2.537 6.218.232.054.445.089.659.124 7.515-6.714 15.11-10.869 18.422-12.517-1.21-1.683-2.243-3.933-2.243-3.933h.008Z"/>
      <path fill="#fff" d="M80.251 122.972c-1.905-.106-10.907 4.952-12.073 5.9-1.167.948-.32 2.108.427 3.473.74 1.373-.525 1.895-1.166 1.895-.641 0-1.478-.841-2.226-1.683-.748-.841-3.18-1.054-4.345.523-1.167 1.577.525 5.793 2.537 6.218.232.054.445.089.659.124 7.515-6.714 15.11-10.869 18.422-12.517-1.21-1.683-2.243-3.933-2.243-3.933h.008Z" opacity=".5"/>
    </g>
    <path stroke="#27007F" stroke-linecap="round" stroke-linejoin="round" d="M80.251 122.972s1.692 3.685 3.286 5.165c1.594 1.479 2.965 1.16 2.43 2.321-.534 1.16-2.858 2.631-2.858 2.631s.214 5.27 0 7.795c-.213 2.525 0 3.269-2.332 3.685-2.333.417-5.93.213-9.528-1.054-3.597-1.267-4.87-3.898-4.87-3.898s-.953.107-2.965-.319c-2.012-.425-3.704-4.633-2.538-6.218 1.167-1.586 3.598-1.373 4.345-.523.748.851 1.585 1.683 2.226 1.683s1.906-.522 1.167-1.895c-.74-1.373-1.585-2.525-.428-3.473 1.158-.948 10.16-6.006 12.074-5.9h-.009Z"/>
    <path fill="#27007F" stroke="#27007F" stroke-linecap="round" stroke-linejoin="round" d="M83.11 133.088s-3.064.461-4.729 3.154 0 3.109 1.042 2.489c1.042-.62 2.912-2.073 3.953-2.693 1.042-.62 1.336-3.207-.267-2.95Z"/>
    <path fill="#27007F" d="M78.697 130.018c.326-.124.357-.836.068-1.59-.289-.754-.787-1.266-1.114-1.142-.326.124-.356.835-.068 1.59.29.754.788 1.265 1.114 1.142Z"/>
    <path stroke="#27007F" stroke-linecap="round" stroke-linejoin="round" d="M75.024 126.542s1.897-1.364 3.891-.416"/>
    <path fill="#651FFF" d="M53.459 144.88s2.644-5.9 8.468-11.799c5.823-5.9 27.628-12.012 28.795-13.696 1.166-1.683-10.061 1.055-10.061 1.055s-6.563-7.902-16.09-8.425c-9.527-.522-12.278 9.798-12.385 14.953-.107 5.156 2.537 11.162 2.537 11.162s-2.965 7.583-1.273 6.741l.009.009Z"/>
    <mask id="f" width="39" height="34" x="52" y="111" maskUnits="userSpaceOnUse" style="mask-type:luminance">
      <path fill="#fff" d="M53.459 144.88s2.644-5.9 8.468-11.799c5.823-5.9 27.628-12.012 28.795-13.696 1.166-1.683-10.061 1.055-10.061 1.055s-6.563-7.902-16.09-8.425c-9.527-.522-12.278 9.798-12.385 14.953-.107 5.156 2.537 11.162 2.537 11.162s-2.965 7.583-1.273 6.741l.009.009Z"/>
    </mask>
    <g mask="url(#f)">
      <path fill="#000" d="M60.715 108.25h-3.152v43.849h3.152V108.25Zm10.855 0h-3.152v43.849h3.152V108.25Zm10.854 0H79.27v43.849h3.153V108.25Zm10.844 0h-3.152v43.849h3.152V108.25Z" opacity=".15"/>
      <path stroke="#fff" stroke-miterlimit="10" d="M47.44 114.814c16.277-.018 32.553-.062 48.83-.142m-48.83 1.826c16.277 0 32.553-.036 48.83-.08m-48.83 7.486c16.277-.018 32.553-.08 48.83-.177m-48.83 1.859c16.277-.009 32.553-.053 48.83-.115m-48.83 7.521a8193.62 8193.62 0 0 0 48.83-.213m-48.83 1.887c16.277-.017 32.553-.062 48.83-.15m-48.83 7.564c16.277-.027 32.553-.106 48.83-.248m-48.83 1.922c16.277-.017 32.553-.079 48.83-.186"/>
    </g>
    <path stroke="#27007F" stroke-linecap="round" stroke-linejoin="round" d="M53.459 144.88s2.644-5.9 8.468-11.799c5.823-5.9 27.628-12.012 28.795-13.696 1.166-1.683-10.061 1.055-10.061 1.055s-6.563-7.902-16.09-8.425c-9.527-.522-12.278 9.798-12.385 14.953-.107 5.156 2.537 11.162 2.537 11.162s-2.965 7.583-1.273 6.741l.009.009Z"/>
    <path fill="#651FFF" stroke="#27007F" stroke-linecap="round" stroke-linejoin="round" d="M54.732 138.138s-2.965 7.583-1.273 6.742c0 0 2.644-5.9 8.468-11.8 5.823-5.9 27.629-12.012 28.795-13.695 1.166-1.683-10.061 1.054-10.061 1.054s-7.515 3.898-13.766 8.008c-6.25 4.111-12.172 9.691-12.172 9.691h.01Z"/>
    <path stroke="#27007F" stroke-linecap="round" stroke-linejoin="round" d="M57.483 114.336s.107 10.214 7.729 15.378"/>
    <path fill="#fff" stroke="#27007F" stroke-linecap="round" stroke-linejoin="round" d="m54.982 212.637 3.24.895s5.592-3.898 6.269-4.004c.677-.106 5.93 2.897 7.604 4.234 1.674 1.338 3.802 2.782 3.241 3.225-.56.443-1.79-.115-2.573-.558-.784-.443-5.592-2.782-5.592-2.782s3.58 2.339 4.808 3.34c1.229 1.001 3.019 1.559 2.573 2.117-.445.558-1.006 1.001-2.128.443-1.122-.558-6.829-3.783-6.829-3.783s4.808 3.225 5.707 4.005c.9.779.9 1.895-.115 1.895-1.015 0-3.802-1.444-4.808-2.002-1.007-.558-3.918-2.002-3.918-2.002s2.796 3.118 3.472 4.341c.677 1.222 1.674 2.781.561 2.781s-2.689-2.56-3.472-3.454c-.784-.895-3.695-1.896-3.695-1.896s-2.35 1.116-4.256 1.444c-1.906.328-5.708-3.676-5.708-3.676l5.592-4.563h.027Z"/>
    <path stroke="#27007F" stroke-linecap="round" stroke-linejoin="round" d="m58.222 213.523-2.769 3.314m10.16-1.081-1.79-1.063m3.357-1.055-2.012-1.099"/>
    <path fill="#651FFF" d="M29.507 175.68s-13.302 10.967-13.516 11.791c-.213.824 33.684 32.059 33.684 32.059l6.241-6.83-18.502-24.618 14.14-8.894s1.246-6.83-.829-10.754c-2.083-3.933-6.241-4.553-6.241-4.553l-14.968 11.79-.009.009Z"/>
    <mask id="g" width="41" height="57" x="15" y="163" maskUnits="userSpaceOnUse" style="mask-type:luminance">
      <path fill="#fff" d="M29.507 175.68s-13.302 10.967-13.516 11.791c-.213.824 33.684 32.059 33.684 32.059l6.241-6.83-18.502-24.618 14.14-8.894s1.246-6.83-.829-10.754c-2.083-3.933-6.241-4.553-6.241-4.553l-14.968 11.79-.009.009Z"/>
    </mask>
    <g mask="url(#g)">
      <path fill="#000" d="M17.318 159.549h-3.152v66.606h3.152v-66.606Zm10.845 0H25.01v66.606h3.152v-66.606Zm10.853 0h-3.152v66.606h3.152v-66.606Zm10.854 0h-3.15v66.606h3.152v-66.606Z" opacity=".15"/>
      <path stroke="#fff" stroke-miterlimit="10" d="M7.247 166.059c24.548.106 49.497.106 74.027-.186m-74.027 1.869c24.548.08 49.497.08 74.027-.133M7.247 175.14c24.548.124 49.497.124 74.027-.212m-74.027 1.903c24.548.098 49.497.098 74.027-.159m-74.027 7.557c24.548.141 49.497.141 74.027-.249m-74.027 1.931c24.548.115 49.497.115 74.027-.186"/>
      <path fill="#000" d="M22.651 178.576s6.652 4.137 9.43 5.244c2.769 1.108 8.316 3.588 8.316 3.588l6.375-3.313-14.967-12.136-9.145 6.617h-.009Z" opacity=".3"/>
      <path stroke="#fff" stroke-miterlimit="10" d="M7.247 192.794c24.548-.142 49.497-.142 74.027.248m-74.027 1.959c24.548.133 49.497.133 74.027-.222m-74.027 7.096c24.548-.124 49.497-.124 74.027.212M7.247 204.08c24.548.151 49.497.151 74.027-.248m-74.027 7.122c24.548-.115 49.497-.115 74.027.186m-74.027 1.506c24.548-.142 49.497-.142 74.027.239m-74.027 7.158c24.548-.098 49.497-.098 74.027.159"/>
    </g>
    <path stroke="#27007F" stroke-linecap="round" stroke-linejoin="round" d="M29.507 175.68s-13.302 10.967-13.516 11.791c-.213.824 33.684 32.059 33.684 32.059l6.241-6.83-18.502-24.618 14.14-8.894s1.246-6.83-.829-10.754c-2.083-3.933-6.241-4.553-6.241-4.553l-14.968 11.79-.009.009Z"/>
    <path fill="#651FFF" d="M122.446 175.239s-12.982-7.344-18.351-12.579c-5.369-5.236-7.604-7.681-8.165-5.679-.56 2.002 4.702 28.383 5.708 28.835 1.006.451 22.269 8.016 26.516 8.238 4.247.221 7.158.558 7.604-1.338.445-1.895-2.689-7.68-6.598-12.242-3.909-4.562-6.714-5.235-6.714-5.235Z"/>
    <mask id="h" width="41" height="39" x="95" y="156" maskUnits="userSpaceOnUse" style="mask-type:luminance">
      <path fill="#fff" d="M122.446 175.239s-12.982-7.344-18.351-12.579c-5.369-5.236-7.604-7.681-8.165-5.679-.56 2.002 4.702 28.383 5.708 28.835 1.006.451 22.269 8.016 26.516 8.238 4.247.221 7.158.558 7.604-1.338.445-1.895-2.689-7.68-6.598-12.242-3.909-4.562-6.714-5.235-6.714-5.235Z"/>
    </mask>
    <g mask="url(#h)">
      <path fill="#000" d="M104.122 164.928h-3.152v35.168h3.152v-35.168Zm10.854 0h-3.152v35.168h3.152v-35.168Zm10.845 0h-3.152v35.168h3.152v-35.168Zm10.853 0h-3.152v35.168h3.152v-35.168Z" opacity=".15"/>
      <path stroke="#fff" stroke-miterlimit="10" d="M91.639 167.611c15.403.169 30.816.204 46.229.098m-46.229 7.221c15.403.274 30.816.327 46.229.15m-46.229 1.594c15.403.204 30.816.248 46.229.115m-46.229 7.193c15.403.31 30.816.372 46.229.178m-46.229 1.567c15.403.239 30.816.292 46.229.132"/>
      <path fill="#000" d="M109.135 190.989s8.592-2.755 11.361-7.166c2.769-4.412 1.665-7.167-.828-10.205-2.493-3.039-5.823-3.313-5.823-3.313s-1.389 10.205-4.71 12.136c-3.322 1.931-6.652 5.244-6.652 5.244l6.652 3.313v-.009Z" opacity=".3"/>
      <path stroke="#fff" stroke-miterlimit="10" d="M91.639 193.037c15.403-.31 30.816-.381 46.229-.178"/>
    </g>
    <path stroke="#27007F" stroke-linecap="round" stroke-linejoin="round" d="M122.446 175.239s-12.982-7.344-18.351-12.579c-5.369-5.236-7.604-7.681-8.165-5.679-.56 2.002 4.702 28.383 5.708 28.835 1.006.451 22.269 8.016 26.516 8.238 4.247.221 7.158.558 7.604-1.338.445-1.895-2.689-7.68-6.598-12.242-3.909-4.562-6.714-5.235-6.714-5.235Z"/>
    <path fill="#651FFF" d="M63.396 148.175s5.823 17.788 8.316 29.994c2.493 12.207 3.535 23.582 3.535 23.582s-3.535-2.277-13.098-3.101c-9.563-.824-13.925-2.276-18.084-10.134-4.158-7.857-6.864-7.237-11.023-8.477-4.158-1.241-5.404-3.517-5.404-3.517s34.306-28.542 35.758-28.338v-.009Zm13.178-1.542s4.256 8.017 7.497 19.144c3.24 11.126 7.835 35.398 7.835 35.398s7.942-.895 10.293-5.9c2.351-5.005 2.458-6.901 6.268-8.238 3.811-1.338 8.949-4.119 9.403-7.68.454-3.562 1.451-7.123 1.451-7.123s-20.924-17.256-24.165-19.479c-3.24-2.224-17.674-7.016-18.573-6.122h-.01Z"/>
    <mask id="i" width="93" height="56" x="27" y="146" maskUnits="userSpaceOnUse" style="mask-type:luminance">
      <path fill="#fff" d="M63.396 148.175s5.823 17.788 8.316 29.994c2.493 12.207 3.535 23.582 3.535 23.582s-3.535-2.277-13.098-3.101c-9.563-.824-13.925-2.276-18.084-10.134-4.158-7.857-6.864-7.237-11.023-8.477-4.158-1.241-5.404-3.517-5.404-3.517s34.306-28.542 35.758-28.338v-.009Zm13.178-1.542s4.256 8.017 7.497 19.144c3.24 11.126 7.835 35.398 7.835 35.398s7.942-.895 10.293-5.9c2.351-5.005 2.458-6.901 6.268-8.238 3.811-1.338 8.949-4.119 9.403-7.68.454-3.562 1.451-7.123 1.451-7.123s-20.924-17.256-24.165-19.479c-3.24-2.224-17.674-7.016-18.573-6.122h-.01Z"/>
    </mask>
    <g mask="url(#i)">
      <path fill="#000" d="M28.163 159.062H25.01v59.529h3.152v-59.529Zm10.854 0h-3.152v59.529h3.152v-59.529Zm10.853-19.001h-3.15V218.6h3.152v-78.539Zm10.845 0h-3.152V218.6h3.152v-78.539Zm10.855 0h-3.152V218.6h3.152v-78.539Zm10.854 0H79.27V218.6h3.153v-78.539Zm10.844 0h-3.152V218.6h3.152v-78.539Zm10.855 0h-3.152V218.6h3.152v-78.539Zm10.853 0h-3.152V218.6h3.152v-78.539Z" opacity=".15"/>
      <path stroke="#fff" stroke-miterlimit="10" d="M41.75 147.768c25.804.203 51.59.203 77.055.124m-77.055 1.612c25.804.115 51.59.115 77.055.071M41.75 156.82c25.804.248 51.59.248 77.055.151m-77.055 1.586c25.804.159 51.59.159 77.055.097m-107.809 7.221c35.767.292 71.525.292 107.577.151m-107.577 1.583c35.767.213 71.525.213 107.577.107m-107.577 7.212c35.767.345 71.525.345 107.577.177m-107.577 1.567c35.767.257 71.525.257 107.577.133M10.996 183.98c35.767.39 71.525.39 107.577.195m-107.577 1.552c35.767.301 71.525.301 107.577.15m-107.577 7.157c35.767-.39 71.525-.39 107.577-.195m-107.577 1.94c35.767.355 71.525.355 107.577.177m-107.577 7.132c35.767-.346 71.525-.346 107.577-.177"/>
    </g>
    <path stroke="#27007F" stroke-linecap="round" stroke-linejoin="round" d="M63.396 148.175s5.823 17.788 8.316 29.994c2.493 12.207 3.535 23.582 3.535 23.582s-3.535-2.277-13.098-3.101c-9.563-.824-13.925-2.276-18.084-10.134-4.158-7.857-6.864-7.237-11.023-8.477-4.158-1.241-5.404-3.517-5.404-3.517s34.306-28.542 35.758-28.338v-.009Zm13.178-1.542s4.256 8.017 7.497 19.144c3.24 11.126 7.835 35.398 7.835 35.398s7.942-.895 10.293-5.9c2.351-5.005 2.458-6.901 6.268-8.238 3.811-1.338 8.949-4.119 9.403-7.68.454-3.562 1.451-7.123 1.451-7.123s-20.924-17.256-24.165-19.479c-3.24-2.224-17.674-7.016-18.573-6.122h-.01Zm36.318-.636s.837 4.943 1.122 6.121c.285 1.178 3.009 4.598 3.009 4.598l-4.549 2.852s-2.796-4.872-3.571-5.634c-.775-.762-4.621-1.736-5.734-3.269-1.113-1.532-.837-3.268-1.122-4.385-.285-1.116-2.867-4.314-2.235-4.801.632-.487 1.959-.071 2.591.7.632.771.632 1.878.908 2.436s3.704 2.649 3.704 2.649-1.54-4.385-1.816-5.014c-.276-.629.276-1.604.979-1.604.704 0 3.847 3.065 3.847 3.065l2.867 2.295v-.009Z"/>
    <path fill="#fff" stroke="#27007F" stroke-linecap="round" stroke-linejoin="round" d="M99.659 137.522c2.74-1.363 2.938-6.498.441-11.469-2.497-4.972-6.743-7.898-9.483-6.535-2.741 1.362-2.939 6.497-.442 11.468 2.497 4.972 6.743 7.898 9.484 6.536Z"/>
    <path fill="#fff" stroke="#27007F" stroke-linecap="round" stroke-linejoin="round" d="M98.54 136.352c1.883-.936 1.697-5.104-.415-9.31s-5.35-6.856-7.234-5.92c-1.882.936-1.696 5.104.416 9.31 2.112 4.205 5.351 6.856 7.234 5.92Z"/>
    <path fill="#27007F" stroke="#27007F" stroke-linecap="round" stroke-linejoin="round" d="m99.385 137.174 7.862 11.702c.427.628 1.3.779 1.914.327a1.32 1.32 0 0 0 .25-1.878l-8.708-11.073a.63.63 0 0 0-.846-.133l-.294.195a.623.623 0 0 0-.17.868l-.008-.008Z"/>
    <path fill="#fff" stroke="#27007F" stroke-linecap="round" stroke-linejoin="round" d="M105.092 138.812s-2.332 1.435-2.217 2.206c.116.77.445 1.107 1.113 1.107.668 0 2.44-.992 3.108-1.329.668-.336.222-2.87-1.995-1.984h-.009Z"/>
    <path fill="#fff" stroke="#27007F" stroke-linecap="round" stroke-linejoin="round" d="M106.036 141.469s-2.172 2.994-2.235 3.481c-.062.488 3.989 4.456 4.684 4.385.694-.071 4.55-2.365 4.407-3.339-.142-.975-4.06-3.898-4.754-4.598-.695-.7-1.327-.903-2.102.071Z"/>
    <path stroke="#27007F" stroke-linecap="round" stroke-linejoin="round" d="m104.985 146.343 3.776-4.456m2.101 2.16-3.775 4.243"/>
    <path fill="#651FFF" d="m122.109 182.918-11.522-24.042 8.503-4.456s9.064 10.462 12.759 17.699c3.696 7.237 5.37 18.815 3.918 20.596-1.451 1.781-7.942.558-11.192-1.444"/>
    <mask id="j" width="27" height="40" x="110" y="154" maskUnits="userSpaceOnUse" style="mask-type:luminance">
      <path fill="#fff" d="m122.109 182.918-11.522-24.042 8.503-4.456s9.064 10.462 12.759 17.699c3.696 7.237 5.37 18.815 3.918 20.596-1.451 1.781-7.942.558-11.192-1.444"/>
    </mask>
    <g mask="url(#j)">
      <path fill="#000" d="M114.976 150.451h-3.152v48.403h3.152v-48.403Zm10.846 0h-3.152v48.403h3.152v-48.403Zm10.853 0h-3.152v48.403h3.152v-48.403Z" opacity=".15"/>
      <path stroke="#fff" stroke-miterlimit="10" d="M102.359 156.82c15.093.248 30.897.248 45.864 0m-45.864 1.737c15.093.159 30.897.159 45.864 0m-45.864 7.316c15.093.292 30.897.292 45.864 0m-45.864 1.736c15.093.213 30.897.213 45.864 0m-45.864 7.319c15.093.345 30.897.345 45.864 0m-45.864 1.744c15.093.257 30.897.257 45.864 0m-45.864 7.308c15.093.39 30.897.39 45.864 0m-45.864 1.745c15.093.301 30.897.301 45.864 0m-45.864 7.31c15.093-.39 30.897-.39 45.864 0"/>
    </g>
    <path stroke="#27007F" stroke-linecap="round" stroke-linejoin="round" d="m122.109 182.918-11.522-24.042 8.503-4.456s9.064 10.462 12.759 17.699c3.696 7.237 5.37 18.815 3.918 20.596-1.451 1.781-7.942.558-11.192-1.444"/>
  </g>
  <defs>
    <clipPath id="a">
      <path fill="#fff" d="M0 0h358v344H0z"/>
    </clipPath>
  </defs>
</svg>
