<svg width="169" height="40" viewBox="0 0 169 40" fill="none" xmlns="http://www.w3.org/2000/svg">
<g clip-path="url(#clip0_105_2312)">
<path d="M9.08689 19.4316C9.28799 19.4316 9.5766 19.476 10.4071 20.0156C10.9454 20.3655 11.4561 20.7571 11.9348 21.1869L11.9094 26.1064C13.3391 26.085 14.473 26.0935 15.264 26.1064C16.055 26.1193 16.8538 26.0707 17.6491 26.0613C18.145 26.0631 18.6394 26.0081 19.1232 25.8975C19.3833 25.8368 19.6394 25.7598 19.8902 25.6671C19.8902 26.0785 19.9445 27.6084 21.0954 28.9057C21.6534 29.5295 22.364 29.9928 23.1552 30.2488C22.1577 30.681 21.1166 31.0011 20.0504 31.2034C19.0999 31.3805 18.1349 31.4658 17.1685 31.4581C15.0079 31.471 12.4408 31.4882 9.48628 31.4875C8.80604 31.4875 8.32056 31.3444 7.9494 31.1411C7.61529 30.9558 7.31848 30.7084 7.07441 30.412C6.64167 29.8938 6.35195 29.2687 6.2347 28.6002L6.23047 21.1197C6.72142 20.6979 7.24373 20.3151 7.79275 19.9748C8.60917 19.4703 8.89143 19.4309 9.08689 19.4316Z" fill="#651FFF"/>
<path d="M9.08676 12.2109C8.43214 12.2147 7.7983 12.4444 7.28951 12.8621L0.207031 18.0478L2.21668 20.8764C2.44418 21.1819 2.78059 21.3848 3.15386 21.4418C3.52712 21.4988 3.90755 21.4052 4.21364 21.1812L8.27316 18.2267C8.52912 18.0446 8.83638 17.9517 9.14886 17.9617C9.46133 17.9718 9.76216 18.0843 10.0062 18.2825C10.5002 18.6331 11.9982 19.7136 14.0283 21.2292C14.3262 21.4216 14.6838 21.4953 15.0321 21.4361C15.3804 21.3769 15.6948 21.189 15.9145 20.9086L17.9609 18.0464L10.7591 12.7641C10.2725 12.4068 9.68756 12.2133 9.08676 12.2109Z" fill="#00E5FF"/>
<path d="M6.20996 4.37726C6.28052 3.85704 6.50633 2.84738 7.31781 2.12538C7.91258 1.60534 8.67058 1.31716 9.45589 1.3125L17.2814 1.33325C20.9676 1.29747 23.34 2.57189 24.3949 3.24667C31.3306 7.68316 30.5834 17.6731 30.5269 18.2978C30.3089 20.7307 29.4847 22.8553 29.3979 23.0678C29.0147 24.0374 28.3627 25.6488 26.9239 27.3189C26.3347 28.0029 25.6776 28.6235 24.963 29.1708C24.1312 28.9763 23.3681 28.5538 22.7571 27.9494C21.5413 26.7329 21.4094 25.2209 21.3868 24.8274C21.8055 24.5155 22.1831 24.1504 22.5102 23.7411C22.7251 23.4649 22.9195 23.1729 23.0916 22.8674C25.7695 18.0359 24.0372 12.3737 24.0372 12.3737C23.5679 10.8395 23.0846 9.30248 21.638 8.13182C20.1562 6.92967 18.4873 6.74291 17.7154 6.70856L11.908 6.6735L6.20996 6.75651V4.37726Z" fill="#651FFF"/>
<path d="M51.6924 18.934C51.8115 19.5036 51.9086 20.1071 51.9839 20.7444L37.0081 23.9716C37.4503 25.2439 38.2501 26.1565 39.4073 26.7094C40.5645 27.2622 41.8719 27.3815 43.3292 27.0671C44.3357 26.8581 45.2813 26.4174 46.0932 25.7791C46.8986 25.1451 47.4396 24.3673 47.7162 23.4457C48.4044 23.6537 49.8575 24.083 52.0756 24.7337C51.5741 26.5364 50.5794 28.0141 49.0915 29.1666C47.6035 30.3191 45.8782 31.1063 43.9156 31.528C41.055 32.1443 38.4389 31.6911 36.0675 30.1684C33.6961 28.6457 32.1875 26.3487 31.5416 23.2775C30.8976 20.2063 31.3574 17.5065 32.9211 15.1781C34.4848 12.8496 36.6969 11.377 39.5576 10.7602C42.4173 10.1433 44.9936 10.5837 47.2864 12.0811C49.5793 13.5785 51.048 15.8628 51.6924 18.934ZM36.2242 20.4367L46.3197 18.2607C45.8436 16.967 45.0792 16.047 44.0264 15.5008C42.9736 14.9546 41.8025 14.8205 40.513 15.0986C39.1385 15.3949 38.0605 16.021 37.2791 16.977C36.4977 17.933 36.1461 19.0874 36.2242 20.4403V20.4367Z" fill="#651FFF"/>
<path d="M66.8235 10.9297H72.1454V23.0943C72.1454 28.5326 68.0485 31.9601 62.5156 31.9601C56.9827 31.9601 52.8857 28.534 52.8857 23.0943V10.9297H58.2077V22.622C58.2077 25.3626 59.8123 27.1615 62.512 27.1615C65.2118 27.1615 66.8235 25.3626 66.8235 22.622V10.9297Z" fill="#651FFF"/>
<path d="M73.1412 10.9297H78.4624V12.8997C80.1527 11.1866 82.3912 10.3301 85.178 10.3301C91.0489 10.3301 94.9348 15.0843 94.9348 21.2066C94.9348 27.329 91.0489 31.9995 85.178 31.9995C82.6441 31.9995 80.1101 31.2281 78.4624 29.6868V39.9279L75.781 39.9666C75.129 39.9424 74.5055 39.6894 74.0169 39.251C73.1645 38.4746 73.1067 37.4385 73.0996 37.2474L73.1412 10.9297ZM84.0786 15.2982C80.6577 15.2982 78.6727 17.739 78.6727 21.2088C78.6727 24.592 80.7 27.0335 84.0786 27.0335C87.4572 27.0335 89.4415 24.592 89.4415 21.2088C89.4443 17.739 87.4586 15.2982 84.08 15.2982H84.0786Z" fill="#651FFF"/>
<path d="M96.7364 0.89375C97.2197 0.423501 97.8506 0.140355 98.5189 0.09375H101.227V31.3589H95.9059C95.9002 21.8242 95.8948 12.2893 95.8896 2.75422C95.9398 2.05039 96.2408 1.38911 96.7364 0.89375Z" fill="#651FFF"/>
<path d="M113.096 10.2871C119.642 10.2871 124.077 15.0413 124.077 21.08C124.077 27.2045 119.642 31.9565 113.096 31.9565C106.507 31.9565 102.158 27.2023 102.158 21.08C102.157 15.0413 106.507 10.2871 113.096 10.2871ZM113.096 15.2553C109.675 15.2553 107.563 17.6968 107.563 21.08C107.563 24.5061 109.675 26.9905 113.096 26.9905C116.601 26.9905 118.713 24.549 118.713 21.08C118.713 17.6968 116.601 15.2553 113.096 15.2553Z" fill="#651FFF"/>
<path d="M133.536 10.2871C136.281 10.2871 138.52 11.1436 140.252 12.8567V10.9297H145.572V31.359H140.252V29.3891C138.562 31.1021 136.324 31.9587 133.536 31.9587C127.75 31.9587 123.78 27.1186 123.78 21.0821C123.78 15.0456 127.75 10.2871 133.536 10.2871ZM134.635 15.2553C131.299 15.2553 129.272 17.6968 129.272 21.08C129.272 24.5061 131.257 26.9905 134.635 26.9905C138.013 26.9905 140.041 24.549 140.041 21.08C140.04 17.6968 138.013 15.2553 134.635 15.2553Z" fill="#651FFF"/>
<path d="M156.298 10.287C158.833 10.287 161.367 11.0576 163.014 12.5997V0.09375H168.336L168.356 28.7292C168.369 28.9059 168.432 30.1159 167.509 31.019C167.029 31.4804 166.405 31.7585 165.745 31.8061L162.993 31.7345V29.3732C162.153 30.2094 161.159 30.8696 160.068 31.3159C158.422 31.9871 157.026 31.9599 156.298 31.9599C150.428 31.9599 146.542 27.2057 146.542 21.0834C146.542 14.961 150.43 10.287 156.298 10.287ZM157.397 15.2551C154.018 15.2551 152.034 17.6966 152.034 21.0798C152.034 24.5488 154.019 26.9904 157.397 26.9904C160.818 26.9904 162.803 24.5488 162.803 21.0798C162.805 17.6966 160.778 15.2551 157.399 15.2551H157.397Z" fill="#651FFF"/>
</g>
<defs>
<clipPath id="clip0_105_2312">
<rect width="169" height="40" fill="white"/>
</clipPath>
</defs>
</svg>
