<svg width="24" height="24" viewBox="0 0 24 24" fill="none" xmlns="http://www.w3.org/2000/svg">
<path d="M14.3714 8.7375L18.1683 9.28594C18.4542 9.32813 18.6886 9.525 18.7777 9.79688C18.8621 10.0687 18.7917 10.3687 18.5855 10.5656L15.8386 13.2469L16.4855 17.0297C16.5324 17.3109 16.4199 17.5969 16.1855 17.7234C15.9558 17.9344 15.6511 17.9531 15.398 17.8219L11.9996 16.0359L8.60112 17.8219C8.34799 17.9531 8.04331 17.9344 7.81362 17.7234C7.57924 17.5969 7.46674 17.3109 7.51362 17.0297L8.16049 13.2469L5.41362 10.5656C5.20737 10.3687 5.13706 10.0687 5.22143 9.79688C5.31049 9.525 5.54487 9.32813 5.83081 9.28594L9.62768 8.7375L11.3292 5.29219C11.4511 5.03906 11.7136 4.875 11.9996 4.875C12.2855 4.875 12.548 5.03906 12.6699 5.29219L14.3714 8.7375Z" fill="#651FFF"/>
<path opacity="0.4" d="M1.5 4.5C1.5 2.84297 2.84297 1.5 4.5 1.5H19.5C21.1547 1.5 22.5 2.84297 22.5 4.5V19.5C22.5 21.1547 21.1547 22.5 19.5 22.5H4.5C2.84297 22.5 1.5 21.1547 1.5 19.5V4.5ZM11.3297 5.29219L9.62812 8.7375L5.83125 9.28594C5.54531 9.32813 5.31094 9.525 5.22188 9.79688C5.1375 10.0688 5.20781 10.3687 5.41406 10.5656L8.16094 13.2469L7.51406 17.0297C7.46719 17.3109 7.57969 17.5969 7.81406 17.7234C8.04375 17.9344 8.34844 17.9531 8.60156 17.8219L11.9578 16.0359L15.3984 17.8219C15.6516 17.9531 15.9562 17.9344 16.1859 17.7234C16.4203 17.5969 16.5328 17.3109 16.4859 17.0297L15.8391 13.2469L18.5859 10.5656C18.7922 10.3687 18.8625 10.0688 18.7781 9.79688C18.6891 9.525 18.4547 9.32813 18.1688 9.28594L14.3719 8.7375L12.6703 5.29219C12.5484 5.03906 12.2859 4.875 11.9578 4.875C11.7141 4.875 11.4516 5.03906 11.3297 5.29219Z" fill="#651FFF"/>
</svg>
