<svg width="64" height="64" viewBox="0 0 64 64" fill="none" xmlns="http://www.w3.org/2000/svg">
<circle cx="32" cy="32" r="32" fill="#651FFF"/>
<path d="M19.8794 18.4978L28.4481 27.1228C29.5112 28.1865 28.7578 30.004 27.2544 30.004H18.1981C17.5362 30.0065 17 29.469 17 28.8065V19.6903C17 18.1872 18.8169 17.4347 19.8794 18.4978Z" fill="white"/>
<path opacity="0.4" d="M46.0001 32.0009C46.0001 39.7134 39.7189 45.9947 32.0064 45.9947C28.9539 45.9947 26.0582 45.0209 23.6189 43.1909C22.7364 42.5291 22.5582 41.2747 23.2204 40.3903C23.8823 39.5078 25.1342 39.3316 26.021 39.9919C27.761 41.2987 29.8335 41.9881 32.0135 41.9881C37.5189 41.9884 42.0001 37.5072 42.0001 32.0009C42.0001 26.4947 37.5195 22.0134 32.0126 22.0134C29.6714 22.0134 27.4445 22.8566 25.6814 24.3034L22.8564 21.4753C25.3689 19.2953 28.5939 18.0078 32.0064 18.0078C39.7189 18.0078 46.0001 24.2884 46.0001 32.0009Z" fill="white"/>
</svg>
