<svg width="64" height="64" viewBox="0 0 64 64" fill="none" xmlns="http://www.w3.org/2000/svg">
<circle cx="32" cy="32" r="32" fill="#651FFF"/>
<g clip-path="url(#clip0_123_5401)">
<path d="M46.2002 25.207H37.0002C36.0052 25.207 35.2002 26.0371 35.2002 27.0088V42.2432C35.2002 43.2148 36.0052 44.001 37.0002 44.001H46.2002C47.1952 44.001 48.0002 43.2148 48.0002 42.2432V27.0088C48.0002 26.0371 47.1952 25.207 46.2002 25.207ZM44.8002 40.876H38.4002V28.376H44.8002V40.876Z" fill="white"/>
<path opacity="0.4" d="M38.4 28.375V40.875H44.8V28.375H38.4ZM22.4 22.125H38.4V23.6875H41.6V21.3438C41.6 20.0498 40.525 19.0059 39.206 19H21.595C20.275 19.0061 19.2 20.0498 19.2 21.3438V33.0625H16.8C16.3563 33.0625 16 33.4092 16 33.8438V34.625C16.0063 36.3462 17.4315 37.7441 19.194 37.75H33.6V33.0625H22.4V22.125Z" fill="white"/>
</g>
<defs>
<clipPath id="clip0_123_5401">
<rect width="32" height="25" fill="white" transform="translate(16 19)"/>
</clipPath>
</defs>
</svg>
